<?xml version="1.0" standalone="no"?>
<!DOCTYPE svg PUBLIC "-//W3C//DTD SVG 1.1//EN" "http://www.w3.org/Graphics/SVG/1.1/DTD/svg11.dtd" >
<svg xmlns="http://www.w3.org/2000/svg" xmlns:xlink="http://www.w3.org/1999/xlink" version="1.1">
<metadata>
Created by FontForge 20170731 at Fri Oct  2 07:07:11 2020
 By Aleksey,,,
Copyright (c) 2018 by Riley Cran. All rights reserved.
</metadata>
<defs>
<font id="MortModern-09Medium" horiz-adv-x="1056" >
  <font-face 
    font-family="Mort Modern 09 Medium"
    font-weight="90"
    font-stretch="normal"
    units-per-em="2048"
    panose-1="0 0 1 0 0 0 0 0 0 0"
    ascent="1638"
    descent="-410"
    x-height="975"
    cap-height="1421"
    bbox="-932 -780 3172 1896.07"
    underline-thickness="61"
    underline-position="-199"
    unicode-range="U+0020-FB03"
  />
<missing-glyph horiz-adv-x="923" 
d="M756 1468v-1845h-584v1845h584zM614 1346h-305v-62h121v-67h-123v-62h307v62h-120v67h120v62zM494 1106h-187v-191h307v62h-120v129zM430 1044v-67h-61v67h61zM614 864h-307v-59h123v-70h-123v-59h187v129h120v59zM614 754h-61v-121h-246v-64h307v185zM614 528h-184v-102
h64v43h59v-88h-184v147h-62v-206h307v206zM614 211h-307v-209h307v209zM553 150v-89h-184v89h184zM614 -41h-307v-61h131l-131 -86v-62h307v62h-188l129 86h59v61z" />
    <glyph glyph-name=".notdef" horiz-adv-x="923" 
d="M756 1468v-1845h-584v1845h584zM614 1346h-305v-62h121v-67h-123v-62h307v62h-120v67h120v62zM494 1106h-187v-191h307v62h-120v129zM430 1044v-67h-61v67h61zM614 864h-307v-59h123v-70h-123v-59h187v129h120v59zM614 754h-61v-121h-246v-64h307v185zM614 528h-184v-102
h64v43h59v-88h-184v147h-62v-206h307v206zM614 211h-307v-209h307v209zM553 150v-89h-184v89h184zM614 -41h-307v-61h131l-131 -86v-62h307v62h-188l129 86h59v61z" />
    <glyph glyph-name=".null" horiz-adv-x="0" 
 />
    <glyph glyph-name="nonmarkingreturn" horiz-adv-x="682" 
 />
    <glyph glyph-name="space" unicode=" " horiz-adv-x="397" 
 />
    <glyph glyph-name="exclam" unicode="!" horiz-adv-x="636" 
d="M338 412h-41q-4 108 -42.5 288t-74 338.5t-35.5 221.5q0 87 48.5 136.5t125.5 49.5t126 -49.5t49 -136.5q0 -63 -37 -221.5t-76.5 -338t-42.5 -288.5zM317 -27q-67 0 -109 41t-42 103q0 64 42 105.5t109 41.5t110.5 -42t43.5 -105q0 -62 -43.5 -103t-110.5 -41z" />
    <glyph glyph-name="quotedbl" unicode="&#x22;" horiz-adv-x="935" 
d="M276 950h-20q-121 222 -121 346q0 69 37.5 109.5t95.5 40.5t95.5 -40.5t37.5 -109.5q0 -116 -125 -346zM676 950h-21q-120 221 -120 346q0 69 37.5 109.5t95.5 40.5t95.5 -40.5t37.5 -109.5q0 -116 -125 -346z" />
    <glyph glyph-name="numbersign" unicode="#" horiz-adv-x="1380" 
d="M1436 971h-365l-127 -488h371v-45h-381l-115 -438h-55l113 438h-480l-112 -438h-60l115 438h-330v45h340l127 488h-346v45h358l103 397h57l-102 -397h479l102 397h58l-103 -397h353v-45zM889 483l125 488h-479l-125 -488h479z" />
    <glyph glyph-name="dollar" unicode="$" horiz-adv-x="1179" 
d="M1081 412q0 -199 -127.5 -314t-328.5 -123v-190h-43v190q-203 3 -328 82.5t-125 212.5q0 78 40.5 121t106.5 43q62 0 101 -37.5t39 -95.5t-38.5 -93.5t-94.5 -35.5q-61 0 -97 39q35 -85 144.5 -134.5t251.5 -47.5v585q-154 72 -198 97q-157 92 -202 219q-22 59 -22 131
q0 93 34.5 165.5t94.5 118t134 70t159 29.5v172h43v-170q175 0 296 -78t121 -199q0 -69 -38.5 -108t-98.5 -39q-63 0 -100 36t-37 91t37 88t90 33q39 0 68 -19q-42 65 -137 104.5t-201 37.5v-519q163 -67 216 -96q170 -92 218 -229q22 -63 22 -137zM342 1155q0 -92 61 -150
t179 -112v498q-107 -12 -173.5 -75.5t-66.5 -160.5zM625 31q122 9 196 80.5t74 181.5q0 48 -14 87.5t-35 68t-59.5 56t-73 46t-88.5 43.5v-563z" />
    <glyph glyph-name="percent" unicode="%" horiz-adv-x="1681" 
d="M270 0l1088 1454h63l-1087 -1454h-64zM379 709q-56 0 -112 24t-103.5 68t-77 116t-29.5 160q0 86 29.5 158t77 117t103.5 69.5t112 24.5t112 -24t102.5 -69t75.5 -117t29 -159q0 -88 -29 -160t-76 -116t-102.5 -68t-111.5 -24zM379 737q73 0 107 81.5t34 258.5
q0 175 -34 257.5t-107 82.5t-107 -82.5t-34 -257.5q0 -177 34 -258.5t107 -81.5zM1303 -25q-55 0 -110.5 24.5t-103 69t-77 116.5t-29.5 159t29.5 159t76.5 116.5t102.5 69t111.5 24.5q58 0 114 -24t102.5 -69t75.5 -117t29 -159t-29.5 -159t-76.5 -116.5t-103 -69
t-112 -24.5zM1303 4q73 0 107 82.5t34 257.5t-34 257.5t-107 82.5t-106.5 -82t-33.5 -258t33.5 -258t106.5 -82z" />
    <glyph glyph-name="ampersand" unicode="&#x26;" horiz-adv-x="1503" 
d="M1491 307l37 -8q-4 -47 -11.5 -83.5t-27.5 -84.5t-50.5 -79.5t-85 -54t-126.5 -22.5q-121 0 -203 43t-156 134q-150 -179 -399 -179q-67 0 -129 12.5t-117.5 40.5t-96.5 69t-65 101.5t-24 133.5q0 313 434 401q-65 98 -101 183.5t-36 183.5q0 166 110.5 257t292.5 91
q178 0 275.5 -81.5t97.5 -209.5q0 -77 -40 -118.5t-107 -41.5q-61 0 -97.5 36.5t-36.5 90.5q0 55 35.5 89t91.5 34q67 0 105 -51q-17 90 -81 142.5t-161 52.5q-107 0 -170 -65.5t-63 -182.5q0 -84 32 -154.5t103 -171.5l293 -422l108 180q38 60 21.5 113t-82.5 53h-41v43
h430v-43h-29q-64 0 -127.5 -44.5t-107.5 -119.5l-142 -227l66 -94q107 -156 219 -156q68 0 109.5 56.5t52.5 152.5zM569 51q151 0 271 137q-8 10 -29 39l-317 473q-94 -40 -141.5 -124t-47.5 -195q0 -165 74 -247.5t190 -82.5z" />
    <glyph glyph-name="quotesingle" unicode="'" horiz-adv-x="536" 
d="M276 950h-20q-121 222 -121 346q0 69 37.5 109.5t95.5 40.5t95.5 -40.5t37.5 -109.5q0 -116 -125 -346z" />
    <glyph glyph-name="parenleft" unicode="(" horiz-adv-x="829" 
d="M104 559q0 120 24 232.5t62 199.5t92 167.5t105.5 137.5t112 108.5t102 81t84.5 54.5l37 -35q-65 -50 -122.5 -132t-106 -198t-77 -275t-28.5 -341q0 -181 28.5 -340t77 -274.5t106 -197.5t122.5 -132l-37 -37q-42 25 -84 54.5t-102.5 81.5t-112 109t-105.5 137.5
t-92 167.5t-62 199t-24 232z" />
    <glyph glyph-name="parenright" unicode=")" horiz-adv-x="827" 
d="M723 559q0 120 -24 232.5t-62 199.5t-92 167.5t-105.5 137.5t-112 108.5t-102 81t-84.5 54.5l-37 -35q65 -50 122.5 -132t106 -198t77 -275t28.5 -341q0 -181 -28.5 -340t-77 -274.5t-106 -197.5t-122.5 -132l37 -37q42 25 84 54.5t102.5 81.5t112 109t105.5 137.5
t92 167.5t62 199t24 232z" />
    <glyph glyph-name="asterisk" unicode="*" horiz-adv-x="1003" 
d="M410 799q-28 -36 -66.5 -40.5t-64.5 17.5q-32 24 -40 57.5t17 73.5q22 31 104 80.5t125 91.5q-62 9 -162.5 0t-121.5 4q-43 13 -58 47.5t-4 71.5q13 36 45.5 55t75.5 5q36 -12 106.5 -73t122.5 -89q-9 63 -45 149t-36 121q0 44 27.5 68t66.5 24q37 0 65.5 -24t28.5 -68
q0 -38 -37.5 -125t-48.5 -147q57 29 128 91t107 73q42 13 74 -6.5t43 -55.5q12 -35 -3 -69.5t-56 -47.5q-22 -13 -124 -4.5t-161 0.5q44 -44 125 -93.5t102 -78.5q25 -40 17.5 -73.5t-39.5 -57.5q-26 -22 -64.5 -18t-66.5 39q-22 31 -43 122.5t-47 145.5q-28 -57 -50 -147
t-42 -119z" />
    <glyph glyph-name="plus" unicode="+" horiz-adv-x="1011" 
d="M907 641v-53h-375v-414h-53v414h-375v53h375v369h53v-369h375z" />
    <glyph glyph-name="comma" unicode="," horiz-adv-x="589" 
d="M293 268q71 0 116.5 -47t45.5 -129q0 -117 -78 -220t-203 -140l-18 39q165 62 221 223q-40 -21 -86 -21q-69 0 -110.5 41.5t-41.5 108.5q0 64 43 104.5t111 40.5z" />
    <glyph glyph-name="hyphen" unicode="-" horiz-adv-x="745" 
d="M92 586v55h561v-55h-561z" />
    <glyph glyph-name="period" unicode="." horiz-adv-x="575" 
d="M287 -27q-67 0 -109.5 41t-42.5 103q0 64 42.5 105.5t109.5 41.5t110 -42t43 -105q0 -62 -43 -103t-110 -41z" />
    <glyph glyph-name="slash" unicode="/" horiz-adv-x="1050" 
d="M1018 1466l-959 -1691h-59l956 1691h62z" />
    <glyph glyph-name="zero" unicode="0" horiz-adv-x="1368" 
d="M684 -25q-83 0 -166.5 31t-159 94t-133.5 149.5t-92.5 206t-34.5 255.5t34 255.5t92 205.5t133 149t159 94t168 31q107 0 210.5 -50.5t187.5 -141t136 -232.5t52 -311q0 -136 -34.5 -255.5t-92.5 -206t-133.5 -149.5t-159 -94t-166.5 -31zM684 23q293 0 293 688t-293 688
q-150 0 -221.5 -172.5t-71.5 -515.5q0 -688 293 -688z" />
    <glyph glyph-name="one" unicode="1" horiz-adv-x="806" 
d="M535 43h180v-43h-617v43h178v1249q-87 -69 -200 -90l-8 41q87 23 159.5 72.5t147.5 124.5h160v-1397z" />
    <glyph glyph-name="two" unicode="2" horiz-adv-x="1110" 
d="M999 403h37q0 -428 -278 -428q-61 0 -115 21.5t-93 52t-75 60.5t-78 51.5t-86 21.5q-71 0 -120 -49.5t-72 -132.5h-51q0 111 21 205.5t57 162.5t82.5 126t97.5 103t102 87t97.5 84.5t82.5 88t57 105.5t21 130q0 141 -71.5 212.5t-190.5 71.5q-114 0 -197 -62.5
t-106 -170.5q37 57 115 57q58 0 96.5 -36.5t38.5 -94.5q0 -60 -39.5 -98.5t-104.5 -38.5q-71 0 -114 46.5t-43 129.5q0 143 119.5 240.5t322.5 97.5q94 0 174 -19t147 -59.5t105.5 -113.5t38.5 -173q0 -85 -27.5 -152.5t-74.5 -113.5t-108.5 -84.5t-130 -71.5t-138 -67.5
t-135 -80t-118 -101.5t-88.5 -140t-46 -188q40 118 120.5 180t196.5 62q85 0 205 -44t188 -44q178 0 178 167z" />
    <glyph glyph-name="three" unicode="3" horiz-adv-x="1126" 
d="M612 731q88 -7 160.5 -29t133 -63t94.5 -108.5t34 -157.5q0 -130 -70.5 -221.5t-186 -134t-263.5 -42.5q-208 0 -323 89t-115 223q0 80 40.5 126t110.5 46q64 0 102 -36.5t38 -92.5t-38 -92.5t-96 -36.5q-73 0 -108 57q17 -99 102.5 -158t206.5 -59q145 0 223 85t78 247
q0 329 -346 329h-65v54h65q150 0 231.5 94.5t81.5 251.5q0 143 -67.5 211.5t-185.5 68.5q-111 0 -188 -56.5t-95 -162.5q29 56 104 56q57 0 93 -35t36 -90q0 -57 -36 -94t-101 -37q-67 0 -107 42.5t-40 124.5q0 141 112 228.5t312 87.5q126 0 222.5 -33.5t158 -111
t61.5 -191.5q0 -149 -102 -250t-267 -129z" />
    <glyph glyph-name="four" unicode="4" horiz-adv-x="1112" 
d="M1057 489h-217v-446h194v-43h-657v43h203v446h-566v52l633 925h193v-929h217v-48zM76 537h504v731z" />
    <glyph glyph-name="five" unicode="5" horiz-adv-x="1099" 
d="M590 922q67 0 128 -14t118.5 -47.5t100 -83.5t68 -127.5t25.5 -174.5q0 -239 -142.5 -369.5t-377.5 -130.5q-205 0 -322.5 93.5t-117.5 230.5q0 85 43.5 132.5t113.5 47.5q62 0 102 -37t40 -100t-40.5 -102t-101.5 -39q-57 0 -96 39q24 -84 101.5 -138.5t189.5 -54.5
q146 0 227.5 106.5t81.5 305.5q0 188 -70 285.5t-192 97.5q-89 0 -159 -48.5t-113 -125.5l-43 2l55 764q154 -33 377 -33q235 0 379 39q-3 -134 -85.5 -194t-256.5 -60q-90 0 -200.5 12.5t-176.5 30.5l-37 -481q58 77 154 125.5t227 48.5z" />
    <glyph glyph-name="six" unicode="6" horiz-adv-x="1218" 
d="M729 862q79 0 151.5 -25t133 -73.5t97 -131t36.5 -188.5q0 -147 -71.5 -255.5t-185.5 -161t-253 -52.5q-58 0 -112.5 10t-109 33.5t-101 59.5t-87 90.5t-69 123.5t-44.5 163t-16 204q0 187 49 339t133.5 248.5t193.5 148t233 51.5q158 0 259 -72t101 -198
q0 -77 -43 -120.5t-115 -43.5q-65 0 -102 37t-37 94q0 60 38 95.5t95 35.5q67 0 103 -39q-25 79 -105.5 119.5t-181.5 40.5q-182 0 -257 -169.5t-83 -574.5q43 104 135.5 157.5t214.5 53.5zM637 25q231 0 231 389q0 370 -225 370q-108 0 -183 -86.5t-79 -251.5
q23 -421 256 -421z" />
    <glyph glyph-name="seven" unicode="7" horiz-adv-x="956" 
d="M956 1421v-37q-227 -317 -340 -640.5t-122 -743.5h-279q3 104 22 207t44.5 186t69.5 175t79.5 154.5t92.5 144.5t90.5 125.5t91.5 117t79 100.5h-647v-188h-55v399h874z" />
    <glyph glyph-name="eight" unicode="8" horiz-adv-x="1148" 
d="M700 823q52 -32 79 -49.5t73 -50.5t71.5 -56.5t58 -60t49 -70.5t28.5 -77t12 -90q0 -171 -129.5 -282.5t-368.5 -111.5q-136 0 -246 38.5t-178.5 119t-68.5 191.5q0 255 356 368q-64 42 -110 80.5t-89 88.5t-65 110.5t-22 130.5q0 156 118 250t307 94q184 0 302 -77
t118 -220q0 -116 -84 -201t-211 -125zM578 1397q-100 0 -151.5 -62.5t-51.5 -146.5q0 -55 21.5 -103t65 -90t86.5 -73t109 -72q129 122 129 293q0 124 -55.5 189t-152.5 65zM578 23q122 0 187.5 70.5t65.5 172.5q0 60 -22.5 110.5t-79 102t-92 77.5t-121.5 82q-26 17 -39 26
q-160 -122 -160 -336q0 -154 68 -229.5t193 -75.5z" />
    <glyph glyph-name="nine" unicode="9" horiz-adv-x="1218" 
d="M582 1438q68 0 131 -14.5t125 -45t112.5 -84.5t89.5 -127.5t60.5 -179t21.5 -233.5q0 -151 -32 -279t-88.5 -220.5t-133 -158t-167 -97.5t-189.5 -32q-158 0 -259 72.5t-101 198.5q0 77 42.5 120t114.5 43q66 0 103 -37t37 -94q0 -60 -38.5 -95.5t-95.5 -35.5
q-66 0 -102 39q18 -53 63.5 -90t102.5 -53.5t121 -16.5q182 0 257 169.5t83 574.5q-43 -104 -136 -157.5t-215 -53.5q-62 0 -121 15t-113 48t-94.5 81t-64.5 118.5t-24 155.5q0 147 71.5 255.5t185.5 161t253 52.5zM575 629q104 0 179 80t84 233q-14 449 -256 449
q-81 0 -133.5 -50.5t-75.5 -136t-23 -205.5q0 -370 225 -370z" />
    <glyph glyph-name="colon" unicode=":" horiz-adv-x="577" 
d="M289 709q-67 0 -109.5 40.5t-42.5 102.5q0 64 42.5 105.5t109.5 41.5t110 -42t43 -105q0 -62 -43 -102.5t-110 -40.5zM287 -27q-67 0 -109.5 41t-42.5 103q0 64 42.5 105.5t109.5 41.5t110 -42t43 -105q0 -62 -43 -103t-110 -41z" />
    <glyph glyph-name="semicolon" unicode=";" horiz-adv-x="591" 
d="M293 608q-67 0 -109.5 41t-42.5 103q0 64 42.5 105.5t109.5 41.5t110 -42t43 -105q0 -62 -43 -103t-110 -41zM293 268q71 0 116.5 -47t45.5 -129q0 -117 -78 -220t-203 -140l-18 39q165 62 221 223q-40 -21 -86 -21q-69 0 -110.5 41.5t-41.5 108.5q0 64 43 104.5
t111 40.5z" />
    <glyph glyph-name="less" unicode="&#x3c;" horiz-adv-x="1046" 
d="M942 864v-57l-754 -281l754 -284v-62l-838 320v51z" />
    <glyph glyph-name="equal" unicode="=" horiz-adv-x="1161" 
d="M1055 729h-951v55h951v-55zM1055 272h-951v56h951v-56z" />
    <glyph glyph-name="greater" unicode="&#x3e;" horiz-adv-x="1046" 
d="M104 864l838 -313v-51l-838 -320v62l754 284l-754 281v57z" />
    <glyph glyph-name="question" unicode="?" horiz-adv-x="954" 
d="M489 1446q121 0 218 -33.5t158 -105.5t61 -174q0 -67 -24 -123t-62.5 -96.5t-86 -78.5t-97 -77.5t-91.5 -82.5t-73.5 -105t-40.5 -136h-35q1 103 24 189t55 144.5t64.5 112t55 117t22.5 133.5q0 123 -63.5 186.5t-170.5 63.5q-117 0 -195.5 -62t-98.5 -169q37 63 116 63
q57 0 96 -38t39 -95q0 -59 -39.5 -98t-105.5 -39q-70 0 -114 45.5t-44 130.5q0 65 26.5 122.5t78 104t136 74t191.5 27.5zM451 264q67 0 110 -42t43 -105q0 -62 -43 -103t-110 -41t-109.5 41t-42.5 103q0 64 42.5 105.5t109.5 41.5z" />
    <glyph glyph-name="at" unicode="@" horiz-adv-x="2015" 
d="M1909 188q-18 -27 -36 -51.5t-60 -70t-87.5 -83t-116.5 -80.5t-148 -72.5t-181.5 -49t-218.5 -19.5q-198 0 -373 62.5t-304.5 175.5t-204.5 280.5t-75 366.5q0 158 48.5 300t135.5 251t203.5 189t258.5 121.5t294 41.5q380 0 604 -185t224 -497q0 -152 -47 -277
t-125.5 -204t-177.5 -121.5t-207 -42.5q-112 0 -170.5 47t-57.5 140q-101 -187 -264 -187q-127 2 -194.5 98.5t-48.5 282.5q20 211 132 351.5t261 140.5q181 0 211 -176l55 155h170l-129 -586q-26 -94 -2 -147t104 -53q76 0 152.5 40.5t140.5 113.5t104 187t40 247
q0 283 -210.5 454.5t-566.5 171.5q-180 0 -341 -64t-278.5 -176t-186 -273.5t-68.5 -348.5q0 -150 44.5 -281t126 -230.5t192.5 -171.5t247.5 -109t288.5 -37q102 0 197 17.5t167 44.5t138.5 66t111.5 74.5t87 78.5t63 69t41 55zM889 303q73 -2 128.5 74.5t100.5 259.5
q43 177 24 281.5t-98 105.5q-96 0 -160.5 -121t-88.5 -319q-41 -281 94 -281z" />
    <glyph glyph-name="A" unicode="A" horiz-adv-x="1363" 
d="M1202 43h150v-43h-611v43h164l-125 424h-450l-82 -285q-38 -139 90 -139h98v-43h-487v43h76q119 0 157 143l363 1254h225zM342 514h424l-215 727z" />
    <glyph glyph-name="B" unicode="B" horiz-adv-x="1374" 
d="M860 729q201 -18 310.5 -105.5t109.5 -250.5q0 -185 -133.5 -279t-380.5 -94h-674v43h172v1333h-172v45h660q462 0 462 -340q0 -149 -95.5 -237.5t-258.5 -114.5zM674 1376h-146v-626h134q145 0 219.5 76t74.5 241q0 169 -71 239t-211 70zM702 43q148 0 226 73.5
t78 254.5q0 184 -83.5 259t-244.5 75h-150v-662h174z" />
    <glyph glyph-name="C" unicode="C" horiz-adv-x="1310" 
d="M729 -25q-90 0 -177.5 28t-169 88t-143 145t-98.5 208.5t-37 268.5t36.5 267.5t97 207t141 144t167.5 87t177 27.5q62 0 117 -14t86.5 -31t65 -31t59.5 -14q65 0 84 82h39v-498h-41q-35 214 -138.5 332.5t-226.5 118.5q-171 0 -272 -171t-101 -507q0 -335 102.5 -508.5
t270.5 -173.5q60 0 118.5 31.5t109 88.5t89 145.5t54.5 195.5h41v-508h-37q-22 82 -88 82q-26 0 -59.5 -14t-64.5 -31.5t-85.5 -31.5t-116.5 -14z" />
    <glyph glyph-name="D" unicode="D" horiz-adv-x="1466" 
d="M657 1421q214 0 370.5 -77.5t245.5 -238.5t89 -394q0 -176 -50.5 -312t-143.5 -223t-222 -131.5t-289 -44.5h-565v43h172v1333h-172v45h565zM637 43q224 0 330 163t106 505q0 340 -106.5 502.5t-329.5 162.5h-107v-1333h107z" />
    <glyph glyph-name="E" unicode="E" horiz-adv-x="1300" 
d="M1143 444h43l-19 -444h-1075v43h172v1335h-172v43h1063l16 -430h-43q-30 204 -118.5 295.5t-243.5 91.5h-238v-612h150q110 0 160 61t61 177h37v-525h-37q-11 122 -61 183t-160 61h-150v-680h250q167 0 247.5 94t117.5 307z" />
    <glyph glyph-name="F" unicode="F" horiz-adv-x="1220" 
d="M1137 1421l16 -430h-41q-35 206 -112.5 296.5t-237.5 90.5h-234v-657h160q103 0 152.5 61t60.5 176h37v-532h-37q-11 125 -60 187.5t-153 62.5h-160v-633h213v-43h-649v43h172v1335h-172v43h1045z" />
    <glyph glyph-name="G" unicode="G" horiz-adv-x="1431" 
d="M1405 657v-43h-141v-630h-39q-25 96 -111 96q-31 0 -70.5 -16.5t-75.5 -36t-97 -36t-130 -16.5q-98 0 -190.5 29.5t-173.5 90t-142 147t-96 207.5t-35 264t37 264.5t100 206.5t145.5 145t173 88.5t183.5 28.5q68 0 130 -14.5t98.5 -31.5t75 -31.5t63.5 -14.5q74 0 92 84
h41l-6 -506h-39q-40 211 -147.5 334t-257.5 123q-176 0 -281.5 -175.5t-105.5 -500.5q0 -332 92 -508t266 -176q118 0 195 74t77 202v309h-188v43h557z" />
    <glyph glyph-name="H" unicode="H" horiz-adv-x="1611" 
d="M1522 1378h-174v-1335h174v-43h-588v43h149v684h-555v-684h150v-43h-586v43h172v1335h-172v43h586v-43h-150v-602h555v602h-149v43h588v-43z" />
    <glyph glyph-name="I" unicode="I" horiz-adv-x="792" 
d="M702 1376h-174v-1333h174v-43h-610v43h172v1333h-172v45h610v-45z" />
    <glyph glyph-name="J" unicode="J" horiz-adv-x="1019" 
d="M985 1421v-43h-174v-1022q0 -102 -32 -177.5t-90 -119t-131 -64t-163 -20.5q-167 0 -255.5 73.5t-88.5 199.5q0 90 42.5 134t109.5 44q60 0 96.5 -34t36.5 -91t-35 -94t-92 -37q-71 0 -111 57q11 -93 77.5 -141.5t154.5 -48.5q103 0 160 68.5t57 207.5v1065h-195v43h633z
" />
    <glyph glyph-name="K" unicode="K" horiz-adv-x="1431" 
d="M1321 43h133v-43h-590v43h150l-393 678l-93 -109v-569h170v-43h-606v43h172v1333h-172v45h617v-45h-181v-682l435 520q30 37 39.5 73.5t-10.5 62.5t-70 26h-41v45h491v-45h-43q-76 0 -149 -39t-131 -108l-254 -301z" />
    <glyph glyph-name="L" unicode="L" horiz-adv-x="1181" 
d="M1059 518h41l-13 -518h-995v43h172v1335h-172v43h639v-43h-203v-1335h166q153 0 240.5 108.5t124.5 366.5z" />
    <glyph glyph-name="M" unicode="M" horiz-adv-x="1908" 
d="M1722 1378q-36 0 -56.5 -21.5t-20.5 -58.5v-1255h174v-43h-615v43h176v1270l-483 -1333h-49l-522 1312v-1048q0 -103 45.5 -153t117.5 -50h58v-41h-498v41h57q68 0 116 51t48 152v1007q0 69 -27 98t-91 29h-86v43h493l410 -1059l391 1059h459v-43h-97z" />
    <glyph glyph-name="N" unicode="N" horiz-adv-x="1468" 
d="M958 1421h463v-43h-49q-63 0 -109 -47t-46 -135v-1219h-170l-734 1299v-1040q0 -96 45 -145.5t119 -49.5h47v-41h-475v41h47q69 0 114.5 50t45.5 145v1015q0 69 -26.5 98t-92.5 29h-71v43h471l624 -1071v846q0 89 -44 135.5t-109 46.5h-50v43z" />
    <glyph glyph-name="O" unicode="O" horiz-adv-x="1492" 
d="M750 -25q-87 0 -176.5 29.5t-174 91.5t-150 147.5t-105.5 207t-40 260.5t39 260t104.5 206.5t149.5 146.5t174 90.5t179 29.5q74 0 149 -21t146.5 -61t134 -103.5t109 -142.5t73.5 -183.5t27 -221.5q0 -140 -39 -261.5t-104 -207t-148 -147t-172 -91t-176 -29.5zM750 23
q161 0 254.5 174.5t93.5 513.5q0 342 -93.5 514t-254.5 172q-163 0 -259 -172.5t-96 -513.5q0 -337 97 -512.5t258 -175.5z" />
    <glyph glyph-name="P" unicode="P" horiz-adv-x="1316" 
d="M717 547h-189v-504h211v-43h-647v43h172v1333h-172v45h633q250 0 385 -109.5t135 -314.5q0 -208 -139.5 -329t-388.5 -121zM678 1376h-150v-784h136q162 0 233.5 91.5t71.5 305.5q0 210 -69.5 298.5t-221.5 88.5z" />
    <glyph glyph-name="Q" unicode="Q" horiz-adv-x="1486" 
d="M1196 -117q57 0 87.5 38t51.5 108l35 -9q-10 -59 -26 -104.5t-43.5 -86.5t-71.5 -63t-103 -22q-96 0 -161.5 64.5t-90.5 183.5q-70 -17 -124 -17q-87 0 -176.5 29.5t-174 91t-150 146.5t-105.5 206.5t-40 260.5q0 140 39 261.5t104.5 206.5t149.5 146.5t174 91t179 29.5
t179 -29t172.5 -90.5t146.5 -146.5t102.5 -207t38.5 -262q0 -224 -93.5 -388.5t-242.5 -254.5q9 -93 43.5 -138t99.5 -45zM750 1397q-163 0 -259 -172.5t-96 -515.5q0 -408 144 -582q16 260 231 260q104 0 164 -37t88 -114q76 172 76 473q0 343 -93.5 515.5t-254.5 172.5z
M750 23q65 0 116 26q0 5 -1 14.5t-1 14.5q-8 132 -39.5 194t-97.5 62q-67 0 -107.5 -63t-44.5 -183q77 -65 175 -65z" />
    <glyph glyph-name="R" unicode="R" horiz-adv-x="1447" 
d="M1425 236l33 -9q-13 -56 -30 -97t-46.5 -78.5t-75.5 -57t-108 -19.5q-141 0 -202.5 82t-69.5 246q-5 99 -16.5 162t-37.5 114t-72.5 74t-117.5 23h-154v-633h203v-43h-639v43h172v1335h-172v43h641q522 0 522 -356q0 -165 -108 -257.5t-313 -111.5q345 -30 360 -364
q6 -148 30 -206t81 -58q45 0 72.5 42.5t47.5 125.5zM696 1378h-168v-657h146q305 0 305 336q0 321 -283 321z" />
    <glyph glyph-name="S" unicode="S" horiz-adv-x="1183" 
d="M662 -25q-84 0 -159.5 26t-129 51.5t-84.5 25.5q-71 0 -101 -88h-32l-11 512h37q35 -126 87 -219.5t115 -149t131.5 -82t143.5 -26.5q117 0 180.5 68t63.5 171q0 50 -16.5 92.5t-44 76t-75.5 67t-98.5 60.5t-125.5 61t-129 64t-105.5 71t-83 85t-50.5 103.5t-19 130.5
q0 80 25 145t65.5 106.5t94.5 69t107.5 39t108.5 11.5q76 0 142.5 -23t114 -46t77.5 -23q37 0 56.5 22t31.5 62h35l-6 -439h-37q-43 185 -152.5 293.5t-257.5 108.5q-103 0 -167 -55.5t-64 -155.5q0 -47 16 -85.5t40.5 -67t72 -59t91.5 -52t118 -54.5q77 -34 131.5 -63.5
t110.5 -72.5t90 -89.5t55.5 -112t21.5 -143.5q0 -107 -36.5 -189.5t-97 -130.5t-132 -72t-149.5 -24z" />
    <glyph glyph-name="T" unicode="T" horiz-adv-x="1363" 
d="M1253 1421l21 -518h-43q-71 477 -363 477h-55v-1337h240v-43h-740v43h238v1337h-55q-289 0 -363 -477h-43l23 518h1140z" />
    <glyph glyph-name="U" unicode="U" horiz-adv-x="1415" 
d="M903 1421h496v-43h-58q-83 0 -119 -54t-36 -136v-717q0 -261 -108 -378.5t-341 -117.5q-506 0 -506 492v911h-172v43h605v-43h-168v-999q0 -188 74 -268t225 -80q161 0 240 106t79 330v721q0 80 -35.5 135t-111.5 55h-64v43z" />
    <glyph glyph-name="V" unicode="V" horiz-adv-x="1280" 
d="M852 1421h473v-43h-39q-82 0 -133 -51.5t-72 -130.5l-323 -1206h-201l-407 1388h-146v43h588v-43h-156l322 -1163l262 989q19 70 -12.5 122t-110.5 52h-45v43z" />
    <glyph glyph-name="W" unicode="W" horiz-adv-x="2070" 
d="M1647 1421h473v-43h-41q-81 0 -131.5 -52.5t-71.5 -131.5l-332 -1204h-194l-310 1069l-264 -1069h-196l-424 1388h-148v43h578v-43h-148l338 -1149l232 942l-60 207h-127v43h557v-43h-147l317 -1151l267 977q19 67 -13 120.5t-112 53.5h-43v43z" />
    <glyph glyph-name="X" unicode="X" horiz-adv-x="1323" 
d="M1198 43h154v-43h-604v43h161l-311 557l-240 -401q-13 -23 -18.5 -49t-2 -50.5t25 -40.5t59.5 -16h65v-43h-477v43h62q61 0 123.5 51.5t97.5 110.5l270 454l-401 717h-152v45h598v-45h-155l292 -524l218 371q18 31 21.5 65t-16.5 61t-67 27h-65v45h475v-45h-60
q-62 0 -126.5 -50.5t-98.5 -108.5l-246 -426z" />
    <glyph glyph-name="Y" unicode="Y" horiz-adv-x="1277" 
d="M840 1419h477v-43h-49q-74 1 -132.5 -53t-93.5 -129l-245 -532v-619h198v-43h-663v43h200v578l-376 755h-162v45h616v-45h-166l320 -651l221 477q13 30 15.5 60.5t-6.5 56.5t-35 42t-66 15h-53v43z" />
    <glyph glyph-name="Z" unicode="Z" horiz-adv-x="1253" 
d="M1135 496l-15 -496h-1011v37l720 1339h-243q-180 0 -270.5 -100t-118.5 -320h-43l10 465h964v-39l-720 -1339h274q190 0 282 103t126 350h45z" />
    <glyph glyph-name="bracketleft" unicode="[" horiz-adv-x="716" 
d="M610 1456h-258v-1798h258v-45h-518v1888h518v-45z" />
    <glyph glyph-name="backslash" unicode="\" horiz-adv-x="1050" 
d="M33 1466l958 -1691h60l-957 1691h-61z" />
    <glyph glyph-name="bracketright" unicode="]" horiz-adv-x="714" 
d="M623 1501v-1888h-519v45h258v1798h-258v45h519z" />
    <glyph glyph-name="asciicircum" unicode="^" horiz-adv-x="1179" 
d="M623 1174l407 -605l-29 -30l-407 319l-408 -319l-28 30l407 605h58z" />
    <glyph glyph-name="underscore" unicode="_" horiz-adv-x="911" 
d="M10 -139h957v-64h-957v64z" />
    <glyph glyph-name="grave" unicode="`" horiz-adv-x="1138" 
d="M690 1116l-190 262q-41 74 -108 73q-50 -1 -77 -42q-31 -48 9 -99q20 -24 53 -44l287 -176z" />
    <glyph glyph-name="a" unicode="a" horiz-adv-x="1077" 
d="M1049 258l36 -2q-2 -141 -49.5 -211t-163.5 -70q-182 0 -223 164q-28 -74 -102 -119t-193 -45q-129 0 -212 62t-83 186q0 152 135.5 229t444.5 103v184q0 211 -213 211q-82 0 -147.5 -31t-96.5 -90q32 21 72 21q54 0 87.5 -31t33.5 -82q0 -54 -34 -87.5t-93 -33.5
q-60 0 -95.5 34t-35.5 100q0 108 95.5 178.5t274.5 70.5q199 0 300.5 -84t101.5 -249v-510q0 -107 67 -107q87 0 93 209zM453 59q75 0 130.5 55t55.5 150v248q-174 -22 -250 -82t-76 -186q0 -185 140 -185z" />
    <glyph glyph-name="b" unicode="b" horiz-adv-x="1206" 
d="M723 999q74 0 144.5 -32t129 -93t94 -161.5t35.5 -225.5q0 -100 -23.5 -185.5t-63 -144.5t-92 -101t-110.5 -61.5t-118 -19.5q-215 0 -291 197v-172h-385v41h135v1384h-135v43h385v-667q79 198 295 198zM641 59q34 0 64 12.5t58.5 43t48.5 78t32 123t12 171.5
q0 120 -17.5 206.5t-48.5 133t-67 67.5t-80 21t-81.5 -21.5t-70 -68.5t-51 -133.5t-18.5 -204.5t18.5 -204.5t50.5 -133.5t69 -68.5t81 -21.5z" />
    <glyph glyph-name="c" unicode="c" horiz-adv-x="1015" 
d="M920 303l43 -14q-50 -152 -144.5 -233t-249.5 -81q-75 0 -145 19.5t-132.5 60.5t-109.5 100.5t-74.5 145.5t-27.5 188q0 123 41 222.5t110.5 161t157 94t184.5 32.5q158 0 254.5 -75t96.5 -197q0 -74 -39.5 -113t-102.5 -39q-60 0 -94.5 34t-34.5 89q0 54 33.5 86.5
t89.5 32.5q55 0 86 -31q-24 73 -85 112.5t-140 39.5q-129 0 -208 -105t-79 -333q0 -220 75.5 -336.5t205.5 -116.5q194 0 289 256z" />
    <glyph glyph-name="d" unicode="d" horiz-adv-x="1204" 
d="M1028 41h137v-41h-387v172q-76 -197 -291 -197q-60 0 -118 19.5t-110.5 61.5t-92 101t-63 144.5t-23.5 185.5q0 125 35.5 225.5t94 161.5t129 93t144.5 32q216 0 295 -198v624h-151v43h401v-1427zM565 59q44 0 81 21.5t69 68.5t50.5 133.5t18.5 204.5t-18.5 204.5
t-51 133.5t-70 68.5t-81.5 21.5t-80 -21t-67 -67.5t-48.5 -133t-17.5 -206.5q0 -96 12 -171.5t32 -123t48.5 -78t58.5 -43t64 -12.5z" />
    <glyph glyph-name="e" unicode="e" 
d="M950 299l41 -16q-47 -144 -154.5 -226t-267.5 -82q-99 0 -187 35.5t-155.5 100t-107 163.5t-39.5 218q0 121 39.5 219.5t106 160t150.5 94.5t177 33q117 0 211.5 -45t153.5 -140.5t59 -227.5v-49h-629v-31q0 -224 74.5 -342.5t212.5 -118.5q104 0 187.5 67t127.5 187z
M551 952q-185 0 -201 -366h383q-3 193 -48 279.5t-134 86.5z" />
    <glyph glyph-name="f" unicode="f" horiz-adv-x="708" 
d="M553 1505q134 0 200 -55.5t66 -149.5q0 -60 -34 -92t-89 -32q-53 0 -83.5 31t-30.5 79t32 77.5t80 29.5q40 0 70 -27q-20 44 -62.5 68t-99.5 24q-166 0 -166 -198v-285h226v-45h-226v-889h170v-41h-557v41h137v889h-163v45h163v168q0 97 29.5 169t82 113t116 60.5
t139.5 19.5z" />
    <glyph glyph-name="g" unicode="g" horiz-adv-x="1052" 
d="M848 1069q0 51 37 70q-62 -17 -99 -70.5t-43 -132.5q78 -46 123 -116t45 -158q0 -151 -121.5 -245.5t-289.5 -94.5q-63 0 -129 16q-103 -59 -103 -117q0 -25 15 -40.5t57.5 -23.5t74 -11t108.5 -7q45 -3 69 -4q211 -10 298 -70.5t87 -177.5q0 -65 -26.5 -116t-71 -84.5
t-108.5 -55t-134 -30.5t-152 -9q-198 0 -322 52t-124 153q0 63 56.5 107t150.5 69q-148 47 -148 168q0 81 57.5 130t159.5 85q-101 42 -163 121.5t-62 184.5q0 100 58.5 178.5t151 118.5t200.5 40q114 0 209 -45q9 99 70.5 162.5t152.5 63.5q60 0 92.5 -30t32.5 -77
q0 -48 -30 -75t-75 -27q-43 0 -73.5 26.5t-30.5 71.5zM500 362q80 0 127 75.5t47 224.5q0 147 -47 221.5t-127 74.5q-78 0 -124 -74.5t-46 -221.5q0 -149 46 -224.5t124 -75.5zM795 -195q0 71 -71.5 100.5t-240.5 35.5q-101 3 -164 14q-96 -54 -96 -143q0 -84 73.5 -128
t205.5 -44q137 0 215 43.5t78 121.5z" />
    <glyph glyph-name="h" unicode="h" horiz-adv-x="1210" 
d="M1032 41h137v-41h-485v41h98v686q0 168 -133 168q-68 0 -126 -44.5t-93 -133.5v-676h109v-41h-496v41h137v1386h-137v41h387v-667q44 94 131.5 146t196.5 52q126 0 200 -69.5t74 -208.5v-680z" />
    <glyph glyph-name="i" unicode="i" horiz-adv-x="608" 
d="M293 1176q-65 0 -108.5 38t-43.5 99t43.5 99t108.5 38q67 0 111.5 -38t44.5 -99t-44.5 -99t-111.5 -38zM428 41h137v-41h-522v41h137v893h-137v41h385v-934z" />
    <glyph glyph-name="j" unicode="j" horiz-adv-x="593" 
d="M297 1174q-67 0 -109.5 38t-42.5 99t42.5 99t109.5 38t111.5 -38t44.5 -99t-44.5 -99t-111.5 -38zM436 975v-1063q0 -80 -22 -142t-56.5 -99.5t-82 -62t-94.5 -33.5t-99 -9q-100 0 -153.5 45t-53.5 121q0 58 31 89.5t78 31.5q46 0 72 -26.5t26 -70.5q0 -42 -27.5 -68
t-68.5 -26q-35 0 -60 19q33 -70 121 -70q65 0 102 47t37 141v1135h-139v41h389z" />
    <glyph glyph-name="k" unicode="k" horiz-adv-x="1163" 
d="M1059 43h110v-43h-522v43h119l-264 473l-74 -72v-403h111v-41h-496v41h137v1382h-137v41h385v-954l309 305q44 43 29 81t-74 38h-41v41h426v-41h-22q-144 -15 -269 -135l-104 -103z" />
    <glyph glyph-name="l" unicode="l" horiz-adv-x="608" 
d="M430 41h137v-41h-524v41h137v1382h-137v41h387v-1423z" />
    <glyph glyph-name="m" unicode="m" horiz-adv-x="1794" 
d="M1614 41h137v-41h-491v41h106v707q0 71 -33 108t-94 37q-68 0 -128.5 -43.5t-92.5 -126.5v-682h112v-41h-464v41h104v694q0 160 -127 160q-67 0 -124.5 -47.5t-88.5 -128.5v-678h107v-41h-494v41h137v893h-137v41h387v-172q44 91 130.5 143.5t189.5 52.5q106 0 175 -50
t87 -150q47 94 136.5 147t197.5 53q124 0 196 -66.5t72 -203.5v-688z" />
    <glyph glyph-name="n" unicode="n" horiz-adv-x="1212" 
d="M1034 41h137v-41h-489v41h102v686q0 168 -131 168q-68 0 -128 -45.5t-95 -136.5v-672h105v-41h-492v41h137v893h-137v41h387v-178q44 95 132.5 148.5t197.5 53.5q126 0 200 -69.5t74 -208.5v-680z" />
    <glyph glyph-name="o" unicode="o" horiz-adv-x="1128" 
d="M567 -25q-68 0 -135.5 19t-131 60.5t-112.5 100.5t-78.5 145t-29.5 187t29.5 186.5t78.5 144.5t112.5 100.5t131 61t135.5 19.5q85 0 168.5 -32t155 -92.5t116 -161.5t44.5 -226q0 -101 -29 -187t-77.5 -145t-111.5 -100.5t-130.5 -60.5t-135.5 -19zM567 18
q99 0 156 113.5t57 355.5t-57 355.5t-156 113.5q-101 0 -159 -113.5t-58 -355.5t58 -355.5t159 -113.5z" />
    <glyph glyph-name="p" unicode="p" horiz-adv-x="1204" 
d="M721 999q74 0 144.5 -32t129 -93t94 -161.5t35.5 -225.5q0 -100 -23.5 -185.5t-63 -144.5t-92 -101t-110.5 -61.5t-118 -19.5q-210 0 -289 193v-506h172v-41h-559v41h137v1270h-137v41h387v-168q79 194 293 194zM639 59q34 0 64 12.5t58.5 43t48.5 78t32 123t12 171.5
q0 120 -17.5 206.5t-48.5 133t-67 67.5t-80 21t-81.5 -21.5t-70 -68.5t-51 -133.5t-18.5 -204.5t18.5 -204.5t50.5 -133.5t69 -68.5t81 -21.5z" />
    <glyph glyph-name="q" unicode="q" horiz-adv-x="1187" 
d="M1028 -340h141v-39h-563v39h172v512q-76 -197 -291 -197q-60 0 -118 19.5t-110.5 61.5t-92 101t-63 144.5t-23.5 185.5q0 125 35.5 225.5t94 161.5t129 93t144.5 32q242 0 312 -245l192 221h41v-1315zM565 59q44 0 81 21.5t69 68.5t50.5 133.5t18.5 204.5t-18.5 204.5
t-51 133.5t-70 68.5t-81.5 21.5t-80 -21t-67 -67.5t-48.5 -133t-17.5 -206.5q0 -96 12 -171.5t32 -123t48.5 -78t58.5 -43t64 -12.5z" />
    <glyph glyph-name="r" unicode="r" horiz-adv-x="942" 
d="M676 999q98 0 151.5 -57.5t53.5 -146.5q0 -78 -38.5 -120t-103.5 -42q-61 0 -97 34.5t-36 90.5q0 55 35.5 90t91.5 35q68 0 103 -54q-11 62 -52.5 97t-105.5 35q-109 0 -178.5 -89t-69.5 -245v-586h174v-41h-561v41h137v893h-137v41h387v-158q29 84 92.5 133t153.5 49z
" />
    <glyph glyph-name="s" unicode="s" horiz-adv-x="886" 
d="M485 -25q-62 0 -120 17t-100.5 34t-65.5 17q-62 0 -82 -55h-31l-4 346h31q21 -75 63.5 -136.5t94 -99.5t106.5 -58t106 -20q80 0 127 39t47 109q0 75 -62 120t-206 93q-152 53 -227.5 133.5t-75.5 204.5q0 70 25.5 125t69 88t98 50t116.5 17q58 0 109.5 -14.5t88.5 -29.5
t60 -15q57 0 68 55h29v-293h-27q-50 122 -137 189t-183 65q-74 0 -118.5 -35.5t-44.5 -95.5q0 -36 17 -64.5t54.5 -52.5t74.5 -40.5t101 -40.5q78 -28 131 -55.5t100 -67.5t70 -94.5t23 -126.5q0 -77 -27.5 -137.5t-74 -97t-104 -55t-120.5 -18.5z" />
    <glyph glyph-name="t" unicode="t" horiz-adv-x="739" 
d="M647 303l41 -4q-7 -83 -20 -136t-40 -99t-75 -67.5t-121 -21.5q-260 0 -260 289v668h-168v43h168v309h250v-309h240v-43h-240v-739q0 -84 22 -119t64 -35q59 0 92 64t47 200z" />
    <glyph glyph-name="u" unicode="u" horiz-adv-x="1181" 
d="M999 41h138v-41h-387v172q-42 -93 -129 -145t-197 -52q-127 0 -202 70t-75 209v680h-137v41h389v-731q0 -166 131 -166q72 0 130 44t90 134v678h-119v41h368v-934z" />
    <glyph glyph-name="v" unicode="v" horiz-adv-x="1030" 
d="M651 975h404v-41h-27q-69 0 -112.5 -40t-63.5 -101l-246 -799h-184l-328 940h-129v41h537v-41h-131l237 -754l185 621q15 54 -9 93.5t-86 39.5h-47v41z" />
    <glyph glyph-name="w" unicode="w" horiz-adv-x="1667" 
d="M1294 975h404v-41h-31q-63 0 -108.5 -39.5t-63.5 -101.5l-246 -799h-184l-236 690l-208 -690h-185l-338 940h-129v41h537v-41h-137l249 -750l179 598l-54 152h-108v41h510v-41h-133l239 -746l183 615q16 53 -8.5 92t-84.5 39h-47v41z" />
    <glyph glyph-name="x" unicode="x" horiz-adv-x="1079" 
d="M944 43h127v-43h-520v43h129l-236 371l-159 -246q-20 -31 -23 -59t15.5 -47t58.5 -19h41v-43h-402v43h43q117 0 197 129l197 295l-295 467h-127v41h510v-41h-115l211 -338l145 225q29 43 21.5 78t-57.5 35h-46v41h383v-41h-51q-104 0 -180 -119l-180 -272z" />
    <glyph glyph-name="y" unicode="y" horiz-adv-x="1017" 
d="M649 975h414v-41h-41q-65 0 -107 -35.5t-69 -110.5l-340 -976q-41 -116 -100.5 -175t-153.5 -59q-90 0 -147.5 50t-57.5 134q0 66 37.5 105t97.5 39q53 0 87 -30.5t34 -84.5q0 -53 -33.5 -84t-85.5 -31q-64 0 -94 45q15 -50 57.5 -77t100.5 -27q141 0 211 203l47 141
l-420 973h-131v41h545v-41h-133l249 -645l170 504q24 71 1 106t-89 35h-49v41z" />
    <glyph glyph-name="z" unicode="z" horiz-adv-x="950" 
d="M842 946l-512 -907h151q137 0 216.5 75t111.5 236h33l-13 -350h-766v29l512 907h-159q-124 0 -199 -71.5t-98 -227.5h-31l12 338h742v-29z" />
    <glyph glyph-name="braceleft" unicode="{" horiz-adv-x="835" 
d="M692 1473q-86 0 -130 -52.5t-44 -152.5q0 -75 33 -209.5t33 -200.5q0 -124 -70 -205t-217 -100q147 -21 217 -102t70 -205q0 -66 -33 -200.5t-33 -209.5q0 -100 44 -152.5t130 -52.5h37v-37h-162q-164 0 -239.5 73.5t-75.5 197.5q0 77 37 205t37 209q0 113 -54.5 183
t-167.5 70v39q113 0 167.5 70.5t54.5 183.5q0 81 -37 209.5t-37 204.5q0 124 75.5 197t239.5 73h162v-36h-37z" />
    <glyph glyph-name="bar" unicode="|" horiz-adv-x="204" 
d="M127 -410h-49v1885h49v-1885z" />
    <glyph glyph-name="braceright" unicode="}" horiz-adv-x="835" 
d="M510 279q0 113 54 183t167 70v39q-113 0 -167 70.5t-54 183.5q0 81 37 209.5t37 204.5q0 124 -76 197t-240 73h-162v-36h37q86 0 130 -52.5t44 -152.5q0 -75 -32.5 -209.5t-32.5 -200.5q0 -124 70 -205t217 -100q-147 -21 -217 -102t-70 -205q0 -66 32.5 -200.5
t32.5 -209.5q0 -100 -44 -152.5t-130 -52.5h-37v-37h162q164 0 240 73.5t76 197.5q0 77 -37 205t-37 209z" />
    <glyph glyph-name="asciitilde" unicode="~" horiz-adv-x="1179" 
d="M166 631q12 344 266 344q67 0 198.5 -49t184.5 -49q63 0 102.5 32.5t43.5 91.5l55 -6q-12 -344 -258 -344q-58 0 -189.5 48.5t-191.5 48.5q-69 0 -111.5 -31.5t-46.5 -91.5z" />
    <glyph glyph-name="arrowdown" unicode="&#xa1;" horiz-adv-x="1605" 
d="M1341 422q62 19 95.5 50t33.5 87q0 58 -35 89.5t-94 31.5q-60 0 -134 -48t-146 -130t-139 -201t-109 -250q12 196 43.5 399t62 334.5t54.5 250.5t24 173q0 97 -54 154t-146 57q-91 0 -145 -57t-54 -154q0 -55 24.5 -173t56 -248.5t63.5 -331.5t44 -396
q-83 260 -241.5 440.5t-282.5 180.5q-59 0 -93 -31.5t-34 -89.5q0 -56 32 -87t95 -50q99 -32 190 -82t165.5 -114.5t118.5 -146.5t44 -167h45q0 113 75 217.5t189.5 177t251.5 115.5z" />
    <glyph glyph-name="arrowdown" unicode="&#x2193;" horiz-adv-x="1605" 
d="M1341 422q62 19 95.5 50t33.5 87q0 58 -35 89.5t-94 31.5q-60 0 -134 -48t-146 -130t-139 -201t-109 -250q12 196 43.5 399t62 334.5t54.5 250.5t24 173q0 97 -54 154t-146 57q-91 0 -145 -57t-54 -154q0 -55 24.5 -173t56 -248.5t63.5 -331.5t44 -396
q-83 260 -241.5 440.5t-282.5 180.5q-59 0 -93 -31.5t-34 -89.5q0 -56 32 -87t95 -50q99 -32 190 -82t165.5 -114.5t118.5 -146.5t44 -167h45q0 113 75 217.5t189.5 177t251.5 115.5z" />
    <glyph glyph-name="cent" unicode="&#xa2;" horiz-adv-x="1120" 
d="M985 289q-47 -144 -133.5 -224t-226.5 -90v-190h-41v190q-69 1 -136 19.5t-130 59t-110.5 99t-76.5 145.5t-29 191q0 102 29 188t77.5 143.5t111.5 98t129.5 59t134.5 19.5v191h41v-191q148 -9 234.5 -82t86.5 -188q0 -74 -39 -113t-102 -39q-60 0 -94.5 34t-34.5 89
q0 54 33.5 86.5t89.5 32.5q55 0 86 -31q-25 80 -96.5 118t-163.5 30v-883q111 -10 190 57t127 195zM373 500q0 -192 57.5 -305.5t153.5 -137.5v871q-96 -23 -153.5 -129.5t-57.5 -298.5z" />
    <glyph glyph-name="sterling" unicode="&#xa3;" horiz-adv-x="1259" 
d="M1153 408h37q0 -51 -1.5 -89.5t-7 -86.5t-15.5 -83t-27.5 -71t-42.5 -58.5t-61.5 -36.5t-82.5 -14q-55 0 -100 21t-75 54.5t-53.5 68t-50 69.5t-50.5 51q-26 -132 -105 -198t-184 -68q-86 0 -137.5 46.5t-51.5 115.5q0 80 70 125t201 45q68 0 147 -14q6 27 6 71
q-16 139 -125 279h-331v39h299q-8 9 -41 47t-43.5 51.5t-36 47.5t-35.5 56t-24.5 55.5t-19.5 67.5t-5 72q0 92 40 165t108.5 118t155 68.5t183.5 23.5q197 0 307.5 -94t110.5 -230q0 -86 -42.5 -134t-113.5 -48q-62 0 -101.5 39t-39.5 98q0 61 40 98t101 37q66 0 103 -47
q-22 101 -100 156t-181 55q-59 0 -107 -15.5t-87 -49.5t-60.5 -94.5t-21.5 -143.5q0 -47 9 -102.5t18 -91.5t29 -106.5t28 -98.5h403v-39h-393q39 -146 39 -275q0 -46 -6 -90q9 -2 46.5 -11l50 -12t44.5 -9.5t51.5 -9t48 -5t54.5 -2.5q120 0 173.5 47t55.5 140z" />
    <glyph glyph-name="currency" unicode="&#xa4;" horiz-adv-x="1218" 
d="M1042 719q0 -187 -104 -309l188 -189l-39 -39l-186 189q-61 -55 -138.5 -84t-154.5 -29q-76 0 -154 29t-139 84l-184 -187l-39 39l187 185q-109 122 -109 311q0 170 90 291l-168 168l39 39l166 -166q64 63 146.5 96t164.5 33q83 0 165.5 -33.5t144.5 -97.5l169 170
l39 -39l-172 -172q88 -123 88 -289zM608 297q90 0 141.5 102.5t51.5 319.5t-51.5 319.5t-141.5 102.5q-91 0 -142.5 -102t-51.5 -320t51.5 -320t142.5 -102z" />
    <glyph glyph-name="yen" unicode="&#xa5;" horiz-adv-x="1286" 
d="M840 1419h477v-43h-49q-74 1 -132.5 -53t-93.5 -129l-229 -496h330v-43h-346v-241h346v-43h-346v-328h198v-43h-663v43h200v328h-325v43h325v207l-16 34h-309v43h287l-338 678h-162v45h616v-45h-166l320 -651l221 477q13 30 15.5 60.5t-6.5 56.5t-35 42t-66 15h-53v43z
" />
    <glyph glyph-name="section" unicode="&#xa7;" horiz-adv-x="1171" 
d="M795 35q46 -25 82 -49.5t71 -59t58 -72.5t37 -88.5t14 -109.5q0 -202 -138 -319t-356 -117q-185 0 -306.5 83t-121.5 214q0 82 41.5 126t108.5 44q62 0 98.5 -36.5t36.5 -94.5q0 -60 -37 -94.5t-94 -34.5q-64 0 -99 41q32 -87 131.5 -141t229.5 -54q148 0 231.5 78
t83.5 200q0 36 -10 69t-24 57.5t-42 50t-49.5 41.5t-62 38t-64.5 33t-71 33q-54 25 -82 38t-76.5 40t-75 48t-60.5 55t-51.5 68t-30.5 80.5t-13 98.5q0 80 28.5 144.5t77.5 106t106.5 67t122.5 36.5q-58 28 -98.5 51t-87 59.5t-74 75.5t-46.5 95.5t-19 122.5q0 98 41 174.5
t109 121.5t149.5 68t169.5 23q170 0 280.5 -80.5t110.5 -198.5q0 -70 -39.5 -109.5t-101.5 -39.5t-98.5 36t-36.5 91q0 56 36 89.5t90 33.5q45 0 76 -25q-34 68 -116.5 109t-186.5 41q-132 0 -211.5 -67t-79.5 -175q0 -47 20 -87.5t41.5 -66t75.5 -56.5t81.5 -43.5
t98.5 -43.5q21 -9 32 -14q46 -20 78 -35.5t73.5 -39.5t69.5 -47t57.5 -56t47 -68.5t29 -82t11.5 -99.5q0 -147 -75.5 -243.5t-200.5 -133.5zM338 395q0 -45 19 -84.5t41.5 -64.5t73.5 -55t81 -44t98 -44q17 -7 25 -11q10 -4 29.5 -13t29.5 -13q71 28 108.5 87t37.5 142
q0 50 -17 92.5t-42 73t-68 60t-80 48.5t-94 45l-33 15q-94 -19 -151.5 -82t-57.5 -152z" />
    <glyph glyph-name="dieresis" unicode="&#xa8;" horiz-adv-x="1138" 
d="M348 1126q-60 0 -95.5 34.5t-35.5 90.5q0 53 36 88t95 35q57 0 94 -35t37 -88q0 -55 -37 -90t-94 -35zM739 1126q-61 0 -97 34.5t-36 90.5q0 54 36.5 88.5t96.5 34.5q57 0 93 -35t36 -88q0 -55 -36 -90t-93 -35z" />
    <glyph glyph-name="copyright" unicode="&#xa9;" horiz-adv-x="1681" 
d="M840 -25q-204 0 -371.5 91.5t-266 260t-98.5 380.5q0 159 57.5 296.5t156.5 232.5t234.5 148.5t287.5 53.5q153 0 288.5 -53.5t234 -148.5t155.5 -232t57 -297t-57 -297t-155.5 -232t-234 -149t-288.5 -54zM840 25q183 0 335 83.5t244 240.5t92 358t-92 358t-244 240.5
t-335 83.5q-135 0 -257 -49.5t-213.5 -136.5t-145.5 -216t-54 -280t54 -280t145.5 -216t213.5 -136.5t257 -49.5zM860 317q-70 0 -133 23t-116 69t-84 124.5t-31 179.5q0 81 20.5 147.5t55.5 111t82 75t98 44t106 13.5q58 0 113.5 -20.5t72.5 -20.5q40 0 52 39h20v-260h-22
q-24 105 -79.5 164t-125.5 59q-93 0 -145 -87.5t-52 -264.5t52.5 -266t144.5 -89q69 0 127 65.5t80 166.5h24l2 -268h-20q-13 38 -53 38q-21 0 -77 -21.5t-112 -21.5z" />
    <glyph glyph-name="ordfeminine" unicode="&#xaa;" horiz-adv-x="636" 
d="M575 1087h19q0 -74 -26.5 -109.5t-94.5 -35.5q-101 0 -125 78q-31 -78 -151 -78q-69 0 -111.5 31t-42.5 94q0 74 68.5 110t230.5 48v96q0 98 -109 98q-81 0 -122 -53q20 10 41 10q31 0 50 -16t19 -45t-20 -47.5t-54 -18.5q-33 0 -53 18.5t-20 51.5q0 55 51.5 91t150.5 36
q226 0 226 -172v-244q0 -47 28 -47q40 0 45 104zM264 989q34 0 56 25t22 69v121q-74 -9 -106.5 -37t-32.5 -90q0 -88 61 -88z" />
    <glyph glyph-name="guillemotleft" unicode="&#xab;" horiz-adv-x="1220" 
d="M334 631q91 -45 194 -173.5t146 -248.5l-29 -21q-100 157 -250 276t-291 148v37q143 35 293 152.5t248 271.5l29 -20q-43 -120 -146 -248.5t-194 -173.5zM774 631q91 -45 194 -173.5t146 -248.5l-29 -21q-100 157 -249.5 276t-290.5 148v37q143 35 292.5 152t247.5 272
l29 -20q-43 -120 -146 -248.5t-194 -173.5z" />
    <glyph glyph-name="logicalnot" unicode="&#xac;" horiz-adv-x="1103" 
d="M104 641h895v-461h-59v406h-836v55z" />
    <glyph glyph-name="registered" unicode="&#xae;" horiz-adv-x="1685" 
d="M844 -25q-205 0 -373.5 91.5t-267.5 260t-99 380.5q0 159 58 296.5t157.5 232.5t235.5 148.5t289 53.5t288.5 -53.5t234 -148.5t155.5 -232t57 -297t-57 -297t-155.5 -232t-234 -149t-288.5 -54zM844 25q183 0 335.5 83.5t244.5 241t92 357.5t-92 357.5t-244.5 241
t-335.5 83.5t-336 -83.5t-245.5 -241t-92.5 -357.5t92.5 -357.5t245.5 -241t336 -83.5zM1163 918q0 -101 -73.5 -148.5t-237.5 -48.5h4q139 0 210.5 -44t74.5 -145q2 -74 15 -104.5t46 -30.5q28 0 42.5 20.5t25.5 59.5l20 -4q-13 -69 -49.5 -104t-112.5 -35q-86 0 -124 43
t-46 141q-6 103 -36.5 145t-102.5 42h-71v-322h112v-35h-395v35h102v690h-102v33h395q152 0 227.5 -44t75.5 -144zM823 1073h-75v-334h67q85 0 123.5 41t38.5 133q0 89 -37 124.5t-117 35.5z" />
    <glyph glyph-name="macron" unicode="&#xaf;" horiz-adv-x="1138" 
d="M829 1276v-113h-596v113h596z" />
    <glyph glyph-name="degree" unicode="&#xb0;" horiz-adv-x="866" 
d="M434 866q-51 0 -102.5 18.5t-96 53t-72.5 91.5t-28 126t28 126.5t72.5 92t96 53.5t102.5 19t102 -19t95.5 -53.5t72 -92t27.5 -126.5t-27.5 -126t-72 -91.5t-95.5 -53t-102 -18.5zM434 903q64 0 105 62t41 190q0 130 -41 191t-105 61t-105.5 -61.5t-41.5 -190.5
q0 -128 41.5 -190t105.5 -62z" />
    <glyph glyph-name="plusminus" unicode="&#xb1;" horiz-adv-x="1191" 
d="M623 709h448v-54h-448v-389h-54v389h-448v54h448v335h54v-335zM121 0v53h950v-53h-950z" />
    <glyph glyph-name="uni00B2" unicode="&#xb2;" horiz-adv-x="616" 
d="M549 942h26q0 -47 -7.5 -85.5t-25 -73.5t-51 -54.5t-79.5 -19.5q-41 0 -77 17t-57 37t-50 37t-58 17q-37 0 -63 -26t-37 -70h-31q0 73 18 131t46.5 96t62.5 69t68.5 56.5t63 51.5t46.5 62.5t18 80.5q0 66 -37.5 99.5t-99.5 33.5q-56 0 -95 -25.5t-54 -72.5q22 22 57 22
t57.5 -20.5t22.5 -55.5q0 -34 -24 -54.5t-62 -20.5q-40 0 -64 25.5t-24 70.5q0 76 66 126t184 50q69 0 122.5 -16t91.5 -59.5t38 -110.5q0 -55 -23 -95t-61 -63.5t-84 -43t-94.5 -40t-90.5 -47t-73.5 -72.5t-42.5 -108q49 108 174 108q42 0 106 -20.5t103 -20.5q94 0 94 84z
" />
    <glyph glyph-name="uni00B3" unicode="&#xb3;" horiz-adv-x="622" 
d="M340 1085q227 -18 227 -176q0 -99 -78.5 -149.5t-203.5 -50.5q-116 0 -178 44.5t-62 114.5q0 43 23 68t63 25q35 0 57.5 -20t22.5 -52q0 -31 -21.5 -50.5t-54.5 -19.5t-53 23q12 -44 51.5 -68t95.5 -24q76 0 116 40t40 119q0 158 -174 158h-33v33h33q76 0 118 46.5
t42 123.5q0 135 -133 135q-53 0 -89.5 -23t-48.5 -67q18 18 54 18q31 0 52 -19.5t21 -49.5t-21 -50t-56 -20q-39 0 -63 23t-24 67q0 72 62.5 117t175.5 45q104 0 173 -42.5t69 -127.5q0 -76 -55 -126.5t-148 -64.5z" />
    <glyph glyph-name="acute" unicode="&#xb4;" horiz-adv-x="1138" 
d="M295 1116l190 262q41 74 108 73q50 -1 77 -42q31 -48 -9 -99q-20 -24 -53 -44l-286 -176z" />
    <glyph glyph-name="paragraph" unicode="&#xb6;" horiz-adv-x="1206" 
d="M1100 1421v-45h-174v-1368h-64v1368h-153v-1372h-64v551h-24q-241 0 -379 116t-138 326q0 207 134 315.5t376 108.5h486z" />
    <glyph glyph-name="periodcentered" unicode="&#xb7;" horiz-adv-x="487" 
d="M242 768q-67 0 -109.5 40.5t-42.5 102.5q0 64 42.5 106t109.5 42t110 -42t43 -106q0 -62 -43 -102.5t-110 -40.5z" />
    <glyph glyph-name="cedilla" unicode="&#xb8;" horiz-adv-x="1138" 
d="M518 -135q-49 0 -108 -64l-39 19l168 180h53l-90 -96q31 10 86 10q91 0 144.5 -41t53.5 -100q0 -80 -70.5 -127t-191.5 -47q-131 0 -192 84l30 26q55 -65 134 -65q108 0 108 114q0 59 -22 83t-64 24z" />
    <glyph glyph-name="uni00B9" unicode="&#xb9;" horiz-adv-x="509" 
d="M336 748h90v-27h-338v27h90v610q-46 -37 -104 -47l-4 24q77 21 163 107h103v-694z" />
    <glyph glyph-name="ordmasculine" unicode="&#xba;" horiz-adv-x="610" 
d="M307 942q-47 0 -92 15t-84.5 44.5t-63.5 79.5t-24 113q0 82 42 141.5t100.5 85t121.5 25.5q61 0 118.5 -25.5t99.5 -85t42 -141.5q0 -63 -24 -113t-62.5 -79.5t-83 -44.5t-90.5 -15zM307 961q90 0 90 233q0 229 -90 229q-94 0 -94 -229q0 -233 94 -233z" />
    <glyph glyph-name="guillemotright" unicode="&#xbb;" horiz-adv-x="1220" 
d="M676 612q-141 -29 -291 -148t-250 -276l-29 21q43 120 146 248.5t194 173.5q-91 45 -194 173.5t-146 248.5l29 20q98 -154 248 -271.5t293 -152.5v-37zM575 1073q98 -154 248 -271.5t293 -152.5v-37q-141 -29 -291 -148t-250 -276l-28 21q43 120 146 248.5t194 173.5
q-91 45 -194 173.5t-146 248.5z" />
    <glyph glyph-name="onequarter" unicode="&#xbc;" horiz-adv-x="1347" 
d="M1161 1454h64l-1088 -1454h-63zM227 1358q-46 -37 -104 -47l-4 24q78 21 164 107h102v-694h90v-27h-338v27h90v610zM1276 231h-109v-217h101v-26h-365v26h107v217h-293v27l327 465h123v-461h109v-31zM760 262h250v352z" />
    <glyph glyph-name="onehalf" unicode="&#xbd;" horiz-adv-x="1357" 
d="M1161 1454h64l-1088 -1454h-63zM227 1358q-46 -37 -104 -47l-4 24q78 21 164 107h102v-694h90v-27h-338v27h90v610zM1292 211h25q0 -64 -13 -114t-51 -86t-98 -36q-41 0 -77.5 17t-57.5 37.5t-50 37.5t-57 17q-37 0 -64 -26t-38 -70h-31q0 73 18 131t46.5 96t63 69
t69 56.5t63 51.5t46.5 62.5t18 80.5q0 68 -37 100.5t-100 32.5q-56 0 -95.5 -26t-54.5 -73q23 23 57 23q36 0 58 -20.5t22 -53.5q0 -35 -23 -55.5t-61 -20.5q-40 0 -64 26t-24 71q0 75 66 124.5t184 49.5q50 0 93 -9.5t79 -30.5t57 -58.5t21 -88.5q0 -55 -23 -95t-61 -63.5
t-84 -42.5t-94.5 -40t-90.5 -47.5t-73.5 -73t-42.5 -109.5q47 113 174 113q43 0 107 -20.5t102 -20.5q96 0 96 84z" />
    <glyph glyph-name="threequarters" unicode="&#xbe;" horiz-adv-x="1409" 
d="M1223 1454h63l-1087 -1454h-64zM567 909q0 -99 -78.5 -149.5t-203.5 -50.5q-116 0 -178 44.5t-62 114.5q0 43 23 68t63 25q35 0 57.5 -20t22.5 -52q0 -31 -21.5 -50.5t-54.5 -19.5t-53 23q12 -44 51.5 -68t95.5 -24q76 0 116 40t40 119q0 158 -174 158h-33v33h33
q76 0 118 46.5t42 123.5q0 135 -133 135q-53 0 -89.5 -23t-48.5 -67q18 18 54 18q31 0 52 -19.5t21 -49.5t-21 -50t-56 -20q-39 0 -63 23t-24 67q0 72 62.5 117t175.5 45q104 0 173 -42.5t69 -127.5q0 -76 -55 -126.5t-148 -64.5q227 -18 227 -176zM1337 231h-108v-217h102
v-26h-366v26h106v217h-293v27l328 465h123v-461h108v-31zM821 262h250v352z" />
    <glyph glyph-name="questiondown" unicode="&#xbf;" horiz-adv-x="983" 
d="M532 748q-67 0 -110 42t-43 105q0 62 43 102.5t110 40.5t109.5 -40.5t42.5 -102.5q0 -64 -42.5 -105.5t-109.5 -41.5zM768 70q70 0 114 -45.5t44 -130.5q0 -65 -26.5 -122.5t-78 -104t-136 -74t-191.5 -27.5q-121 0 -218 33.5t-158 105.5t-61 174q0 67 24 123t62.5 96.5
t86 78.5t97 77.5t91.5 82.5t73.5 105t40.5 136h35q-1 -103 -24 -189t-55 -144.5t-64.5 -112t-55 -117.5t-22.5 -134q0 -123 63.5 -186.5t170.5 -63.5q117 0 195.5 62t98.5 170q-38 -64 -116 -64q-57 0 -96 38t-39 95q0 59 39.5 98.5t105.5 39.5z" />
    <glyph glyph-name="Agrave" unicode="&#xc0;" horiz-adv-x="1363" 
d="M408 1634q-83 29 -96 85q-10 46 27 75q45 34 108 4q29 -15 57 -43l272 -201l-20 -28zM1202 43h150v-43h-611v43h164l-125 424h-450l-82 -285q-38 -139 90 -139h98v-43h-487v43h76q119 0 157 143l363 1254h225zM342 514h424l-215 727z" />
    <glyph glyph-name="Aacute" unicode="&#xc1;" horiz-adv-x="1363" 
d="M913 1634l-348 -108l-20 28l272 203q68 69 134 53q44 -11 57 -51q16 -50 -34 -92q-24 -20 -61 -33zM1202 43h150v-43h-611v43h164l-125 424h-450l-82 -285q-38 -139 90 -139h98v-43h-487v43h76q119 0 157 143l363 1254h225zM342 514h424l-215 727z" />
    <glyph glyph-name="Acircumflex" unicode="&#xc2;" horiz-adv-x="1363" 
d="M662 1642l-300 -129l-22 31l301 262h43l301 -262l-22 -31zM1202 43h150v-43h-611v43h164l-125 424h-450l-82 -285q-38 -139 90 -139h98v-43h-487v43h76q119 0 157 143l363 1254h225zM342 514h424l-215 727z" />
    <glyph glyph-name="Atilde" unicode="&#xc3;" horiz-adv-x="1363" 
d="M502 1626q-47 0 -77.5 -23.5t-33.5 -66.5l-39 6q9 242 197 242q48 0 147 -35t140 -35q46 0 75.5 25.5t32.5 66.5l41 -6q-6 -123 -57 -182t-140 -59q-44 0 -143 33.5t-143 33.5zM1202 43h150v-43h-611v43h164l-125 424h-450l-82 -285q-38 -139 90 -139h98v-43h-487v43h76
q119 0 157 143l363 1254h225zM342 514h424l-215 727z" />
    <glyph glyph-name="Adieresis" unicode="&#xc4;" horiz-adv-x="1363" 
d="M463 1518q-58 0 -93.5 33.5t-35.5 86.5t35.5 87t93.5 34q55 0 91 -34t36 -87q0 -52 -35.5 -86t-91.5 -34zM860 1518q-58 0 -92.5 33.5t-34.5 86.5t34.5 87t92.5 34q55 0 91 -34t36 -87q0 -52 -35.5 -86t-91.5 -34zM1202 43h150v-43h-611v43h164l-125 424h-450l-82 -285
q-38 -139 90 -139h98v-43h-487v43h76q119 0 157 143l363 1254h225zM342 514h424l-215 727z" />
    <glyph glyph-name="Aring" unicode="&#xc5;" horiz-adv-x="1363" 
d="M662 1493q-119 0 -193 54.5t-74 146.5q0 91 74 145.5t193 56.5t192.5 -53.5t73.5 -148.5q0 -90 -73.5 -144.5t-192.5 -56.5zM662 1862q-59 0 -93 -45t-34 -123q0 -76 34 -120t93 -44q60 0 94.5 44t34.5 120q0 78 -34.5 123t-94.5 45zM1202 43h150v-43h-611v43h164
l-125 424h-450l-82 -285q-38 -139 90 -139h98v-43h-487v43h76q119 0 157 143l363 1254h225zM342 514h424l-215 727z" />
    <glyph glyph-name="AE" unicode="&#xc6;" horiz-adv-x="1841" 
d="M1681 444h43l-18 -444h-903v467h-496l-168 -287q-35 -66 -16.5 -101.5t82.5 -35.5h98v-43h-485v43h57q117 0 199 143l729 1235h891l16 -430h-43q-29 204 -117 295.5t-243 91.5h-240v-612h152q109 0 158.5 60.5t62.5 177.5h37v-525h-37q-13 122 -62 183t-159 61h-152v-680
h252q166 0 246.5 94.5t115.5 306.5zM336 514h467v795z" />
    <glyph glyph-name="Ccedilla" unicode="&#xc7;" horiz-adv-x="1310" 
d="M1139 492h41v-508h-37q-22 82 -88 82q-26 0 -59.5 -14t-64.5 -31.5t-85.5 -31.5t-116.5 -14q-23 0 -35 2l-71 -79q31 10 86 10q93 0 148.5 -43.5t55.5 -106.5q0 -82 -72.5 -131t-199.5 -49q-140 0 -199 94l33 27q53 -74 141 -74q59 0 86 29t27 92t-22.5 87t-65.5 24
q-54 0 -111 -60l-41 21l154 164q-82 13 -159 48.5t-146.5 97.5t-121 144t-82 195.5t-30.5 245.5q0 145 36.5 267.5t97 207t141 144t167.5 87t177 27.5q62 0 117 -14t86.5 -31t65 -31t59.5 -14q65 0 84 82h39v-498h-41q-35 214 -138.5 332.5t-226.5 118.5q-171 0 -272 -171
t-101 -507q0 -335 102.5 -508.5t270.5 -173.5q60 0 118.5 31.5t109 88.5t89 145.5t54.5 195.5z" />
    <glyph glyph-name="Egrave" unicode="&#xc8;" horiz-adv-x="1300" 
d="M440 1634q-83 29 -96 85q-10 45 27 74q45 35 108 5q30 -14 58 -43l272 -201l-21 -28zM1143 444h43l-19 -444h-1075v43h172v1335h-172v43h1063l16 -430h-43q-30 204 -118.5 295.5t-243.5 91.5h-238v-612h150q110 0 160 61t61 177h37v-525h-37q-11 122 -61 183t-160 61
h-150v-680h250q167 0 247.5 94t117.5 307z" />
    <glyph glyph-name="Eacute" unicode="&#xc9;" horiz-adv-x="1300" 
d="M948 1634l-348 -108l-20 28l272 203q68 69 134 53q44 -11 57 -51q16 -50 -34 -92q-24 -20 -61 -33zM1143 444h43l-19 -444h-1075v43h172v1335h-172v43h1063l16 -430h-43q-30 204 -118.5 295.5t-243.5 91.5h-238v-612h150q110 0 160 61t61 177h37v-525h-37
q-11 122 -61 183t-160 61h-150v-680h250q167 0 247.5 94t117.5 307z" />
    <glyph glyph-name="Ecircumflex" unicode="&#xca;" horiz-adv-x="1300" 
d="M696 1642l-299 -129l-22 31l301 262h43l301 -262l-23 -31zM1143 444h43l-19 -444h-1075v43h172v1335h-172v43h1063l16 -430h-43q-30 204 -118.5 295.5t-243.5 91.5h-238v-612h150q110 0 160 61t61 177h37v-525h-37q-11 122 -61 183t-160 61h-150v-680h250q167 0 247.5 94
t117.5 307z" />
    <glyph glyph-name="Edieresis" unicode="&#xcb;" horiz-adv-x="1300" 
d="M498 1518q-58 0 -93.5 33.5t-35.5 86.5t35.5 87t93.5 34q55 0 91 -34t36 -87q0 -52 -35.5 -86t-91.5 -34zM895 1518q-58 0 -92.5 33.5t-34.5 86.5t34.5 87t92.5 34q55 0 91 -34t36 -87q0 -52 -35.5 -86t-91.5 -34zM1143 444h43l-19 -444h-1075v43h172v1335h-172v43h1063
l16 -430h-43q-30 204 -118.5 295.5t-243.5 91.5h-238v-612h150q110 0 160 61t61 177h37v-525h-37q-11 122 -61 183t-160 61h-150v-680h250q167 0 247.5 94t117.5 307z" />
    <glyph glyph-name="Igrave" unicode="&#xcc;" horiz-adv-x="792" 
d="M489 1526l-348 108q-83 29 -96 85q-10 45 27 74q45 35 108 5q30 -14 58 -43l272 -201zM702 1376h-174v-1333h174v-43h-610v43h172v1333h-172v45h610v-45z" />
    <glyph glyph-name="Iacute" unicode="&#xcd;" horiz-adv-x="792" 
d="M553 1757q68 69 134 53q44 -11 57 -51q16 -50 -34 -92q-24 -20 -61 -33l-348 -108l-20 28zM702 1421v-45h-174v-1333h174v-43h-610v43h172v1333h-172v45h610z" />
    <glyph glyph-name="Icircumflex" unicode="&#xce;" horiz-adv-x="792" 
d="M395 1642l-299 -129l-22 31l301 262h43l301 -262l-23 -31zM702 1421v-45h-174v-1333h174v-43h-610v43h172v1333h-172v45h610z" />
    <glyph glyph-name="Idieresis" unicode="&#xcf;" horiz-adv-x="792" 
d="M199 1518q-58 0 -93.5 33.5t-35.5 86.5t35.5 87t93.5 34q55 0 91 -34t36 -87q0 -52 -35.5 -86t-91.5 -34zM596 1518q-58 0 -92.5 33.5t-34.5 86.5t34.5 87t92.5 34q55 0 91 -34t36 -87q0 -52 -35.5 -86t-91.5 -34zM702 1421v-45h-174v-1333h174v-43h-610v43h172v1333
h-172v45h610z" />
    <glyph glyph-name="Eth" unicode="&#xd0;" horiz-adv-x="1466" 
d="M657 1421q214 0 370.5 -77.5t245.5 -238.5t89 -394q0 -176 -50.5 -312t-143.5 -223t-222 -131.5t-289 -44.5h-565v43h172v666h-172v43h172v624h-172v45h565zM637 43q224 0 330 163t106 505q0 340 -106.5 502.5t-329.5 162.5h-107v-624h275v-43h-275v-666h107z" />
    <glyph glyph-name="Ntilde" unicode="&#xd1;" horiz-adv-x="1468" 
d="M575 1626q-47 0 -77 -23.5t-33 -66.5l-39 6q9 242 197 242q48 0 146.5 -35t139.5 -35q46 0 76 25.5t33 66.5l41 -6q-6 -123 -57 -182t-140 -59q-44 0 -143.5 33.5t-143.5 33.5zM958 1421h463v-43h-49q-63 0 -109 -47t-46 -135v-1219h-170l-734 1299v-1040
q0 -96 45 -145.5t119 -49.5h47v-41h-475v41h47q69 0 114.5 50t45.5 145v1015q0 69 -26.5 98t-92.5 29h-71v43h471l624 -1071v846q0 89 -44 135.5t-109 46.5h-50v43z" />
    <glyph glyph-name="Ograve" unicode="&#xd2;" horiz-adv-x="1492" 
d="M862 1567l-272 200q-69 71 -136 53q-44 -12 -55 -52q-15 -51 37 -91q23 -18 58 -30l348 -109zM750 -25q-87 0 -176.5 29.5t-174 91.5t-150 147.5t-105.5 207t-40 260.5t39 260t104.5 206.5t149.5 146.5t174 90.5t179 29.5q74 0 149 -21t146.5 -61t134 -103.5t109 -142.5
t73.5 -183.5t27 -221.5q0 -140 -39 -261.5t-104 -207t-148 -147t-172 -91t-176 -29.5zM750 23q161 0 254.5 174.5t93.5 513.5q0 342 -93.5 514t-254.5 172q-163 0 -259 -172.5t-96 -513.5q0 -337 97 -512.5t258 -175.5z" />
    <glyph glyph-name="Oacute" unicode="&#xd3;" horiz-adv-x="1492" 
d="M633 1567l272 202q68 70 134 53q44 -11 57 -51q15 -51 -35 -92q-24 -19 -60 -32l-348 -109zM750 -25q-87 0 -176.5 29.5t-174 91.5t-150 147.5t-105.5 207t-40 260.5t39 260t104.5 206.5t149.5 146.5t174 90.5t179 29.5q74 0 149 -21t146.5 -61t134 -103.5t109 -142.5
t73.5 -183.5t27 -221.5q0 -140 -39 -261.5t-104 -207t-148 -147t-172 -91t-176 -29.5zM750 23q161 0 254.5 174.5t93.5 513.5q0 342 -93.5 514t-254.5 172q-163 0 -259 -172.5t-96 -513.5q0 -337 97 -512.5t258 -175.5z" />
    <glyph glyph-name="Ocircumflex" unicode="&#xd4;" horiz-adv-x="1492" 
d="M750 1655l-299 -129l-23 30l301 263h43l301 -263l-22 -30zM750 1444q74 0 149 -21t146.5 -61t134 -103.5t109 -142.5t73.5 -183.5t27 -221.5q0 -140 -39 -261.5t-104 -207t-148 -147t-172 -91t-176 -29.5t-176.5 29.5t-174 91.5t-150 147.5t-105.5 207t-40 260.5t39 260
t104.5 206.5t149.5 146.5t174 90.5t179 29.5zM750 23q161 0 254.5 174.5t93.5 513.5q0 342 -93.5 514t-254.5 172q-163 0 -259 -172.5t-96 -513.5q0 -337 97 -512.5t258 -175.5z" />
    <glyph glyph-name="Otilde" unicode="&#xd5;" horiz-adv-x="1492" 
d="M1071 1812q-6 -123 -57 -182t-140 -59q-44 0 -143 33.5t-143 33.5q-47 0 -77.5 -23.5t-33.5 -66.5l-39 6q9 242 197 242q48 0 147 -35t140 -35q46 0 75.5 26t32.5 67zM750 -25q-87 0 -176.5 29.5t-174 91.5t-150 147.5t-105.5 207t-40 260.5t39 260t104.5 206.5
t149.5 146.5t174 90.5t179 29.5q74 0 149 -21t146.5 -61t134 -103.5t109 -142.5t73.5 -183.5t27 -221.5q0 -140 -39 -261.5t-104 -207t-148 -147t-172 -91t-176 -29.5zM750 23q161 0 254.5 174.5t93.5 513.5q0 342 -93.5 514t-254.5 172q-163 0 -259 -172.5t-96 -513.5
q0 -337 97 -512.5t258 -175.5z" />
    <glyph glyph-name="Odieresis" unicode="&#xd6;" horiz-adv-x="1492" 
d="M551 1530q-58 0 -93.5 34t-35.5 87t35.5 87t93.5 34q55 0 91 -34t36 -87t-36 -87t-91 -34zM948 1530q-58 0 -92.5 34t-34.5 87t34.5 87t92.5 34q55 0 91 -34t36 -87t-36 -87t-91 -34zM750 -25q-87 0 -176.5 29.5t-174 91.5t-150 147.5t-105.5 207t-40 260.5t39 260
t104.5 206.5t149.5 146.5t174 90.5t179 29.5q74 0 149 -21t146.5 -61t134 -103.5t109 -142.5t73.5 -183.5t27 -221.5q0 -140 -39 -261.5t-104 -207t-148 -147t-172 -91t-176 -29.5zM750 23q161 0 254.5 174.5t93.5 513.5q0 342 -93.5 514t-254.5 172q-163 0 -259 -172.5
t-96 -513.5q0 -337 97 -512.5t258 -175.5z" />
    <glyph glyph-name="multiply" unicode="&#xd7;" horiz-adv-x="1124" 
d="M981 834l-379 -408l379 -408l-43 -41l-377 404l-379 -406l-43 43l379 408l-379 408l43 45l379 -408l377 408z" />
    <glyph glyph-name="Oslash" unicode="&#xd8;" horiz-adv-x="1492" 
d="M1217 1217q172 -204 172 -506q0 -140 -39 -261.5t-104 -207t-148 -147t-172 -91t-176 -29.5q-112 0 -229 51t-210 146l-170 -197l-37 31l175 201q-175 211 -175 504q0 139 39 260t104.5 206.5t149.5 146.5t174 90.5t179 29.5q115 0 229.5 -49.5t206.5 -143.5l166 193
l34 -31zM395 711q0 -180 33 -332l625 721q-42 149 -120 223t-183 74q-163 0 -259 -172.5t-96 -513.5zM750 23q161 0 254.5 174.5t93.5 513.5q0 190 -31 333l-625 -720q43 -149 123 -225t185 -76z" />
    <glyph glyph-name="Ugrave" unicode="&#xd9;" horiz-adv-x="1415" 
d="M481 1634q-83 29 -96 85q-10 45 27 74q45 35 108 5q30 -14 58 -43l272 -201l-21 -28zM903 1421h496v-43h-58q-83 0 -119 -54t-36 -136v-717q0 -261 -108 -378.5t-341 -117.5q-506 0 -506 492v911h-172v43h605v-43h-168v-999q0 -188 74 -268t225 -80q161 0 240 106t79 330
v721q0 80 -35.5 135t-111.5 55h-64v43z" />
    <glyph glyph-name="Uacute" unicode="&#xda;" horiz-adv-x="1415" 
d="M989 1634l-348 -108l-20 28l272 203q68 69 134 53q44 -11 57 -51q16 -50 -34 -92q-24 -20 -61 -33zM903 1421h496v-43h-58q-83 0 -119 -54t-36 -136v-717q0 -261 -108 -378.5t-341 -117.5q-506 0 -506 492v911h-172v43h605v-43h-168v-999q0 -188 74 -268t225 -80
q161 0 240 106t79 330v721q0 80 -35.5 135t-111.5 55h-64v43z" />
    <glyph glyph-name="Ucircumflex" unicode="&#xdb;" horiz-adv-x="1415" 
d="M737 1642l-299 -129l-22 31l301 262h43l301 -262l-23 -31zM903 1421h496v-43h-58q-83 0 -119 -54t-36 -136v-717q0 -261 -108 -378.5t-341 -117.5q-506 0 -506 492v911h-172v43h605v-43h-168v-999q0 -188 74 -268t225 -80q161 0 240 106t79 330v721q0 80 -35.5 135
t-111.5 55h-64v43z" />
    <glyph glyph-name="Udieresis" unicode="&#xdc;" horiz-adv-x="1415" 
d="M539 1518q-58 0 -93.5 33.5t-35.5 86.5t35.5 87t93.5 34q55 0 91 -34t36 -87q0 -52 -35.5 -86t-91.5 -34zM936 1518q-58 0 -92.5 33.5t-34.5 86.5t34.5 87t92.5 34q55 0 91 -34t36 -87q0 -52 -35.5 -86t-91.5 -34zM903 1421h496v-43h-58q-83 0 -119 -54t-36 -136v-717
q0 -261 -108 -378.5t-341 -117.5q-506 0 -506 492v911h-172v43h605v-43h-168v-999q0 -188 74 -268t225 -80q161 0 240 106t79 330v721q0 80 -35.5 135t-111.5 55h-64v43z" />
    <glyph glyph-name="Yacute" unicode="&#xdd;" horiz-adv-x="1277" 
d="M915 1634l-348 -108l-20 28l272 203q68 69 134 53q44 -11 57 -51q16 -50 -34 -92q-24 -20 -61 -33zM840 1419h477v-43h-49q-74 1 -132.5 -53t-93.5 -129l-245 -532v-619h198v-43h-663v43h200v578l-376 755h-162v45h616v-45h-166l320 -651l221 477q13 30 15.5 60.5
t-6.5 56.5t-35 42t-66 15h-53v43z" />
    <glyph glyph-name="Thorn" unicode="&#xde;" horiz-adv-x="1316" 
d="M717 279h-189v-236h211v-43h-647v43h172v1333h-172v45h647v-45h-211v-223h197q250 0 385 -109.5t135 -314.5q0 -208 -139.5 -329t-388.5 -121zM678 1108h-150v-784h136q162 0 233.5 91.5t71.5 305.5q0 210 -69.5 298.5t-221.5 88.5z" />
    <glyph glyph-name="agrave" unicode="&#xe0;" horiz-adv-x="1077" 
d="M307 1266q-83 49 -74 111q6 45 51 65q55 25 106 -15q23 -18 40 -49l191 -262l-27 -26zM1049 258l36 -2q-2 -141 -49.5 -211t-163.5 -70q-182 0 -223 164q-28 -74 -102 -119t-193 -45q-129 0 -212 62t-83 186q0 152 135.5 229t444.5 103v184q0 211 -213 211
q-82 0 -147.5 -31t-96.5 -90q32 21 72 21q54 0 87.5 -31t33.5 -82q0 -54 -34 -87.5t-93 -33.5q-60 0 -95.5 34t-35.5 100q0 108 95.5 178.5t274.5 70.5q199 0 300.5 -84t101.5 -249v-510q0 -107 67 -107q87 0 93 209zM453 59q75 0 130.5 55t55.5 150v248q-174 -22 -250 -82
t-76 -186q0 -185 140 -185z" />
    <glyph glyph-name="aacute" unicode="&#xe1;" horiz-adv-x="1077" 
d="M723 1266l-287 -176l-26 26l190 262q41 74 108 73q50 -1 77 -42q31 -48 -9 -99q-20 -24 -53 -44zM1049 258l36 -2q-2 -141 -49.5 -211t-163.5 -70q-182 0 -223 164q-28 -74 -102 -119t-193 -45q-129 0 -212 62t-83 186q0 152 135.5 229t444.5 103v184q0 211 -213 211
q-82 0 -147.5 -31t-96.5 -90q32 21 72 21q54 0 87.5 -31t33.5 -82q0 -54 -34 -87.5t-93 -33.5q-60 0 -95.5 34t-35.5 100q0 108 95.5 178.5t274.5 70.5q199 0 300.5 -84t101.5 -249v-510q0 -107 67 -107q87 0 93 209zM453 59q75 0 130.5 55t55.5 150v248q-174 -22 -250 -82
t-76 -186q0 -185 140 -185z" />
    <glyph glyph-name="acircumflex" unicode="&#xe2;" horiz-adv-x="1077" 
d="M516 1249l-285 -157l-22 30l285 320h45l282 -320l-20 -30zM1049 258l36 -2q-2 -141 -49.5 -211t-163.5 -70q-182 0 -223 164q-28 -74 -102 -119t-193 -45q-129 0 -212 62t-83 186q0 152 135.5 229t444.5 103v184q0 211 -213 211q-82 0 -147.5 -31t-96.5 -90q32 21 72 21
q54 0 87.5 -31t33.5 -82q0 -54 -34 -87.5t-93 -33.5q-60 0 -95.5 34t-35.5 100q0 108 95.5 178.5t274.5 70.5q199 0 300.5 -84t101.5 -249v-510q0 -107 67 -107q87 0 93 209zM453 59q75 0 130.5 55t55.5 150v248q-174 -22 -250 -82t-76 -186q0 -185 140 -185z" />
    <glyph glyph-name="atilde" unicode="&#xe3;" horiz-adv-x="1077" 
d="M354 1223q-46 0 -75.5 -24t-32.5 -66l-41 6q12 237 194 237q49 0 147 -33.5t138 -33.5q45 0 75.5 24.5t31.5 65.5l40 -6q-11 -238 -192 -238q-45 0 -143 34t-142 34zM1049 258l36 -2q-2 -141 -49.5 -211t-163.5 -70q-182 0 -223 164q-28 -74 -102 -119t-193 -45
q-129 0 -212 62t-83 186q0 152 135.5 229t444.5 103v184q0 211 -213 211q-82 0 -147.5 -31t-96.5 -90q32 21 72 21q54 0 87.5 -31t33.5 -82q0 -54 -34 -87.5t-93 -33.5q-60 0 -95.5 34t-35.5 100q0 108 95.5 178.5t274.5 70.5q199 0 300.5 -84t101.5 -249v-510
q0 -107 67 -107q87 0 93 209zM453 59q75 0 130.5 55t55.5 150v248q-174 -22 -250 -82t-76 -186q0 -185 140 -185z" />
    <glyph glyph-name="adieresis" unicode="&#xe4;" horiz-adv-x="1077" 
d="M319 1126q-60 0 -95.5 34.5t-35.5 90.5q0 53 36 88t95 35q57 0 94.5 -35t37.5 -88q0 -55 -37.5 -90t-94.5 -35zM711 1126q-61 0 -97 34.5t-36 90.5q0 54 36.5 88.5t96.5 34.5q57 0 93 -35t36 -88q0 -55 -36 -90t-93 -35zM1049 258l36 -2q-2 -141 -49.5 -211t-163.5 -70
q-182 0 -223 164q-28 -74 -102 -119t-193 -45q-129 0 -212 62t-83 186q0 152 135.5 229t444.5 103v184q0 211 -213 211q-82 0 -147.5 -31t-96.5 -90q32 21 72 21q54 0 87.5 -31t33.5 -82q0 -54 -34 -87.5t-93 -33.5q-60 0 -95.5 34t-35.5 100q0 108 95.5 178.5t274.5 70.5
q199 0 300.5 -84t101.5 -249v-510q0 -107 67 -107q87 0 93 209zM453 59q75 0 130.5 55t55.5 150v248q-174 -22 -250 -82t-76 -186q0 -185 140 -185z" />
    <glyph glyph-name="aring" unicode="&#xe5;" horiz-adv-x="1077" 
d="M514 1092q-117 0 -189.5 55t-72.5 145q0 92 72 147.5t190 57.5q117 2 189.5 -54.5t72.5 -150.5q0 -90 -72 -144t-190 -56zM514 1458q-60 0 -95.5 -44t-35.5 -122q0 -76 36 -119t95 -43q61 0 97 43t36 119q0 78 -36 122t-97 44zM1049 258l36 -2q-2 -141 -49.5 -211
t-163.5 -70q-182 0 -223 164q-28 -74 -102 -119t-193 -45q-129 0 -212 62t-83 186q0 152 135.5 229t444.5 103v184q0 211 -213 211q-82 0 -147.5 -31t-96.5 -90q32 21 72 21q54 0 87.5 -31t33.5 -82q0 -54 -34 -87.5t-93 -33.5q-60 0 -95.5 34t-35.5 100q0 108 95.5 178.5
t274.5 70.5q199 0 300.5 -84t101.5 -249v-510q0 -107 67 -107q87 0 93 209zM453 59q75 0 130.5 55t55.5 150v248q-174 -22 -250 -82t-76 -186q0 -185 140 -185z" />
    <glyph glyph-name="ae" unicode="&#xe6;" horiz-adv-x="1603" 
d="M1497 299l41 -16q-47 -144 -154.5 -226t-267.5 -82q-155 0 -277 87t-171 241q-3 -328 -314 -328q-129 0 -212 62t-83 186q0 153 135.5 229.5t444.5 102.5v184q0 211 -213 211q-144 0 -219 -108q19 8 47 8q55 0 88 -31.5t33 -81.5q0 -54 -34 -87.5t-93 -33.5
q-60 0 -95.5 34t-35.5 100q0 108 95.5 178.5t274.5 70.5q226 0 314 -125q122 125 299 125q117 0 211.5 -45t153.5 -140.5t59 -227.5v-49h-627l-2 -56q0 -210 76 -323t211 -113q104 0 187.5 67t127.5 187zM1098 952q-178 0 -199 -366h381q-3 193 -48.5 279.5t-133.5 86.5z
M639 317v195q-174 -22 -250 -82t-76 -186q0 -185 140 -185q76 0 131 68.5t55 189.5z" />
    <glyph glyph-name="ccedilla" unicode="&#xe7;" horiz-adv-x="1015" 
d="M569 -25h-16l-78 -81q31 10 86 10q91 0 145 -41.5t54 -100.5q0 -80 -70.5 -127t-191.5 -47q-132 0 -193 84l31 27q56 -66 133 -66q109 0 109 115q0 59 -22 83t-64 24q-50 0 -109 -64l-39 19l158 170q-67 8 -128 32t-115 67t-93.5 100.5t-62.5 137t-23 172.5
q0 123 41 222.5t110.5 161t157 94t184.5 32.5q158 0 254.5 -75t96.5 -197q0 -74 -39.5 -113t-102.5 -39q-60 0 -94.5 34t-34.5 89q0 54 33.5 86.5t89.5 32.5q55 0 86 -31q-24 73 -85 112.5t-140 39.5q-129 0 -208 -105t-79 -333q0 -220 75.5 -336.5t205.5 -116.5
q194 0 289 256l43 -14q-50 -152 -144.5 -233t-249.5 -81z" />
    <glyph glyph-name="egrave" unicode="&#xe8;" 
d="M332 1266q-83 49 -74 111q6 45 51 65q55 25 106 -15q23 -18 40 -49l190 -262l-27 -26zM950 299l41 -16q-47 -144 -154.5 -226t-267.5 -82q-99 0 -187 35.5t-155.5 100t-107 163.5t-39.5 218q0 121 39.5 219.5t106 160t150.5 94.5t177 33q117 0 211.5 -45t153.5 -140.5
t59 -227.5v-49h-629v-31q0 -224 74.5 -342.5t212.5 -118.5q104 0 187.5 67t127.5 187zM551 952q-185 0 -201 -366h383q-3 193 -48 279.5t-134 86.5z" />
    <glyph glyph-name="eacute" unicode="&#xe9;" 
d="M750 1266l-287 -176l-27 26l191 262q41 74 108 73q50 -1 77 -42q31 -48 -9 -99q-20 -24 -53 -44zM950 299l41 -16q-47 -144 -154.5 -226t-267.5 -82q-99 0 -187 35.5t-155.5 100t-107 163.5t-39.5 218q0 121 39.5 219.5t106 160t150.5 94.5t177 33q117 0 211.5 -45
t153.5 -140.5t59 -227.5v-49h-629v-31q0 -224 74.5 -342.5t212.5 -118.5q104 0 187.5 67t127.5 187zM551 952q-185 0 -201 -366h383q-3 193 -48 279.5t-134 86.5z" />
    <glyph glyph-name="ecircumflex" unicode="&#xea;" 
d="M541 1249l-285 -157l-23 30l285 320h45l283 -320l-21 -30zM950 299l41 -16q-47 -144 -154.5 -226t-267.5 -82q-99 0 -187 35.5t-155.5 100t-107 163.5t-39.5 218q0 121 39.5 219.5t106 160t150.5 94.5t177 33q117 0 211.5 -45t153.5 -140.5t59 -227.5v-49h-629v-31
q0 -224 74.5 -342.5t212.5 -118.5q104 0 187.5 67t127.5 187zM551 952q-185 0 -201 -366h383q-3 193 -48 279.5t-134 86.5z" />
    <glyph glyph-name="edieresis" unicode="&#xeb;" 
d="M346 1126q-60 0 -95.5 34.5t-35.5 90.5q0 53 36 88t95 35q57 0 94 -35t37 -88q0 -55 -37 -90t-94 -35zM737 1126q-61 0 -97 34.5t-36 90.5q0 54 36.5 88.5t96.5 34.5q57 0 93 -35t36 -88q0 -55 -36 -90t-93 -35zM950 299l41 -16q-47 -144 -154.5 -226t-267.5 -82
q-99 0 -187 35.5t-155.5 100t-107 163.5t-39.5 218q0 121 39.5 219.5t106 160t150.5 94.5t177 33q117 0 211.5 -45t153.5 -140.5t59 -227.5v-49h-629v-31q0 -224 74.5 -342.5t212.5 -118.5q104 0 187.5 67t127.5 187zM551 952q-185 0 -201 -366h383q-3 193 -48 279.5
t-134 86.5z" />
    <glyph glyph-name="igrave" unicode="&#xec;" horiz-adv-x="608" 
d="M111 1298q-73 63 -53 125q14 42 59 55q56 16 100 -31q22 -25 35 -63l123 -299l-31 -18zM428 41h137v-41h-522v41h137v893h-137v41h385v-934z" />
    <glyph glyph-name="iacute" unicode="&#xed;" horiz-adv-x="608" 
d="M487 1305l-229 -236l-33 18l119 299q25 83 87 99q50 12 86 -23q40 -41 13 -100q-14 -29 -43 -57zM428 41h137v-41h-522v41h137v893h-137v41h385v-934z" />
    <glyph glyph-name="icircumflex" unicode="&#xee;" horiz-adv-x="608" 
d="M303 1262l-260 -172l-20 32l256 336h47l256 -336l-21 -32zM428 41h137v-41h-522v41h137v893h-137v41h385v-934z" />
    <glyph glyph-name="idieresis" unicode="&#xef;" horiz-adv-x="608" 
d="M262 1262q0 -54 -37 -89.5t-94 -35.5q-59 0 -95 35t-36 90t36 89.5t95 34.5q57 0 94 -35t37 -89zM475 1386q57 0 93 -35t36 -89t-36 -89.5t-93 -35.5q-59 0 -95 35t-36 90t36 89.5t95 34.5zM428 41h137v-41h-522v41h137v893h-137v41h385v-934z" />
    <glyph glyph-name="eth" unicode="&#xf0;" horiz-adv-x="1128" 
d="M670 1354q177 -117 278 -300.5t101 -420.5q0 -143 -29 -258t-76.5 -188.5t-111.5 -122.5t-129.5 -69t-135.5 -20q-68 0 -135.5 19t-131 60.5t-112.5 100.5t-78.5 145t-29.5 187t29.5 186.5t78.5 144.5t112.5 100.5t131 61t135.5 19.5q109 0 176 -86q-58 244 -196 385
l-273 -127l-16 39l256 119q-115 104 -270 137l4 43q211 -28 379 -129l207 97l18 -39zM567 18q100 0 157.5 127t57.5 400q0 183 -57.5 298t-155.5 115q-102 0 -160.5 -114t-58.5 -357q0 -242 58 -355.5t159 -113.5z" />
    <glyph glyph-name="ntilde" unicode="&#xf1;" horiz-adv-x="1212" 
d="M446 1223q-46 0 -75.5 -24t-32.5 -66l-41 6q12 237 195 237q48 0 146 -33.5t138 -33.5q45 0 75.5 24.5t31.5 65.5l41 -6q-11 -238 -193 -238q-45 0 -143 34t-142 34zM1034 41h137v-41h-489v41h102v686q0 168 -131 168q-68 0 -128 -45.5t-95 -136.5v-672h105v-41h-492v41
h137v893h-137v41h387v-178q44 95 132.5 148.5t197.5 53.5q126 0 200 -69.5t74 -208.5v-680z" />
    <glyph glyph-name="ograve" unicode="&#xf2;" horiz-adv-x="1128" 
d="M670 1116l-191 262q-41 74 -108 73q-50 -1 -77 -42q-31 -48 9 -99q20 -24 53 -44l287 -176zM567 -25q-68 0 -135.5 19t-131 60.5t-112.5 100.5t-78.5 145t-29.5 187t29.5 186.5t78.5 144.5t112.5 100.5t131 61t135.5 19.5q85 0 168.5 -32t155 -92.5t116 -161.5t44.5 -226
q0 -101 -29 -187t-77.5 -145t-111.5 -100.5t-130.5 -60.5t-135.5 -19zM567 18q99 0 156 113.5t57 355.5t-57 355.5t-156 113.5q-101 0 -159 -113.5t-58 -355.5t58 -355.5t159 -113.5z" />
    <glyph glyph-name="oacute" unicode="&#xf3;" horiz-adv-x="1128" 
d="M461 1116l190 262q41 74 108 73q50 -1 77 -42q31 -48 -9 -99q-20 -24 -53 -44l-287 -176zM567 -25q-68 0 -135.5 19t-131 60.5t-112.5 100.5t-78.5 145t-29.5 187t29.5 186.5t78.5 144.5t112.5 100.5t131 61t135.5 19.5q85 0 168.5 -32t155 -92.5t116 -161.5t44.5 -226
q0 -101 -29 -187t-77.5 -145t-111.5 -100.5t-130.5 -60.5t-135.5 -19zM567 18q99 0 156 113.5t57 355.5t-57 355.5t-156 113.5q-101 0 -159 -113.5t-58 -355.5t58 -355.5t159 -113.5z" />
    <glyph glyph-name="ocircumflex" unicode="&#xf4;" horiz-adv-x="1128" 
d="M565 1249l-284 -157l-23 30l285 320h45l282 -320l-20 -30zM567 999q85 0 168.5 -32t155 -92.5t116 -161.5t44.5 -226q0 -101 -29 -187t-77.5 -145t-111.5 -100.5t-130.5 -60.5t-135.5 -19t-135.5 19t-131 60.5t-112.5 100.5t-78.5 145t-29.5 187t29.5 186.5t78.5 144.5
t112.5 100.5t131 61t135.5 19.5zM567 18q99 0 156 113.5t57 355.5t-57 355.5t-156 113.5q-101 0 -159 -113.5t-58 -355.5t58 -355.5t159 -113.5z" />
    <glyph glyph-name="otilde" unicode="&#xf5;" horiz-adv-x="1128" 
d="M881 1393q-11 -238 -193 -238q-45 0 -143 34t-142 34q-46 0 -75.5 -24t-32.5 -66l-41 6q12 237 195 237q48 0 146.5 -33.5t137.5 -33.5q45 0 75.5 24.5t31.5 65.5zM567 -25q-68 0 -135.5 19t-131 60.5t-112.5 100.5t-78.5 145t-29.5 187t29.5 186.5t78.5 144.5
t112.5 100.5t131 61t135.5 19.5q85 0 168.5 -32t155 -92.5t116 -161.5t44.5 -226q0 -101 -29 -187t-77.5 -145t-111.5 -100.5t-130.5 -60.5t-135.5 -19zM567 18q99 0 156 113.5t57 355.5t-57 355.5t-156 113.5q-101 0 -159 -113.5t-58 -355.5t58 -355.5t159 -113.5z" />
    <glyph glyph-name="odieresis" unicode="&#xf6;" horiz-adv-x="1128" 
d="M371 1126q-60 0 -95.5 34.5t-35.5 90.5q0 53 36 88t95 35q57 0 94 -35t37 -88q0 -55 -37 -90t-94 -35zM762 1126q-61 0 -97 34.5t-36 90.5q0 54 36.5 88.5t96.5 34.5q57 0 93 -35t36 -88q0 -55 -36 -90t-93 -35zM567 -25q-68 0 -135.5 19t-131 60.5t-112.5 100.5
t-78.5 145t-29.5 187t29.5 186.5t78.5 144.5t112.5 100.5t131 61t135.5 19.5q85 0 168.5 -32t155 -92.5t116 -161.5t44.5 -226q0 -101 -29 -187t-77.5 -145t-111.5 -100.5t-130.5 -60.5t-135.5 -19zM567 18q99 0 156 113.5t57 355.5t-57 355.5t-156 113.5
q-101 0 -159 -113.5t-58 -355.5t58 -355.5t159 -113.5z" />
    <glyph glyph-name="divide" unicode="&#xf7;" horiz-adv-x="1255" 
d="M627 854q-30 0 -49 18t-19 50q0 31 19 49t49 18t48.5 -17.5t18.5 -49.5t-18.5 -50t-48.5 -18zM1133 588h-1012v53h1012v-53zM627 209q-31 0 -51.5 20t-20.5 52q0 33 20 52t52 19q30 0 50.5 -19t20.5 -52q0 -32 -20.5 -52t-50.5 -20z" />
    <glyph glyph-name="oslash" unicode="&#xf8;" horiz-adv-x="1128" 
d="M928 838q123 -140 123 -351q0 -101 -29 -187t-77.5 -145t-111.5 -100.5t-130.5 -60.5t-135.5 -19q-88 0 -174.5 32t-154.5 95l-121 -127l-35 35l121 129q-123 136 -123 348q0 101 29.5 186.5t78.5 144.5t112.5 100.5t131 61t135.5 19.5q87 0 173 -32.5t153 -94.5l121 127
l35 -32zM350 487q0 -95 10 -180l400 422q-46 227 -193 227q-101 0 -159 -113.5t-58 -355.5zM567 18q99 0 156 113.5t57 355.5q0 95 -10 183l-399 -424q50 -228 196 -228z" />
    <glyph glyph-name="ugrave" unicode="&#xf9;" horiz-adv-x="1181" 
d="M373 1266q-83 49 -74 111q6 45 51 65q55 25 106 -15q23 -18 40 -49l190 -262l-27 -26zM999 41h138v-41h-387v172q-42 -93 -129 -145t-197 -52q-127 0 -202 70t-75 209v680h-137v41h389v-731q0 -166 131 -166q72 0 130 44t90 134v678h-119v41h368v-934z" />
    <glyph glyph-name="uacute" unicode="&#xfa;" horiz-adv-x="1181" 
d="M791 1266l-287 -176l-27 26l191 262q41 74 108 73q50 -1 77 -42q31 -48 -9 -99q-20 -24 -53 -44zM999 41h138v-41h-387v172q-42 -93 -129 -145t-197 -52q-127 0 -202 70t-75 209v680h-137v41h389v-731q0 -166 131 -166q72 0 130 44t90 134v678h-119v41h368v-934z" />
    <glyph glyph-name="ucircumflex" unicode="&#xfb;" horiz-adv-x="1181" 
d="M582 1249l-285 -157l-23 30l285 320h45l283 -320l-21 -30zM999 41h138v-41h-387v172q-42 -93 -129 -145t-197 -52q-127 0 -202 70t-75 209v680h-137v41h389v-731q0 -166 131 -166q72 0 130 44t90 134v678h-119v41h368v-934z" />
    <glyph glyph-name="udieresis" unicode="&#xfc;" horiz-adv-x="1181" 
d="M387 1126q-60 0 -95.5 34.5t-35.5 90.5q0 53 36 88t95 35q57 0 94 -35t37 -88q0 -55 -37 -90t-94 -35zM778 1126q-61 0 -97 34.5t-36 90.5q0 54 36.5 88.5t96.5 34.5q57 0 93 -35t36 -88q0 -55 -36 -90t-93 -35zM999 41h138v-41h-387v172q-42 -93 -129 -145t-197 -52
q-127 0 -202 70t-75 209v680h-137v41h389v-731q0 -166 131 -166q72 0 130 44t90 134v678h-119v41h368v-934z" />
    <glyph glyph-name="yacute" unicode="&#xfd;" horiz-adv-x="1017" 
d="M723 1266l-287 -176l-26 26l190 262q41 74 108 73q50 -1 77 -42q31 -48 -9 -99q-20 -24 -53 -44zM649 975h414v-41h-41q-65 0 -107 -35.5t-69 -110.5l-340 -976q-41 -116 -100.5 -175t-153.5 -59q-90 0 -147.5 50t-57.5 134q0 66 37.5 105t97.5 39q53 0 87 -30.5
t34 -84.5q0 -53 -33.5 -84t-85.5 -31q-64 0 -94 45q15 -50 57.5 -77t100.5 -27q141 0 211 203l47 141l-420 973h-131v41h545v-41h-133l249 -645l170 504q24 71 1 106t-89 35h-49v41z" />
    <glyph glyph-name="thorn" unicode="&#xfe;" horiz-adv-x="1204" 
d="M723 999q58 0 114.5 -19.5t108.5 -61.5t91.5 -101t63 -144.5t23.5 -185.5t-23.5 -185.5t-63 -144.5t-92 -101t-110.5 -61.5t-118 -19.5q-210 0 -289 191v-504h172v-41h-559v41h137v1757h-137v41h559v-41h-172v-614q79 194 295 194zM641 59q44 0 80 21t67 67.5t48.5 133
t17.5 206.5t-17.5 206.5t-48.5 133t-67 67.5t-80 21q-45 0 -82.5 -21.5t-70 -68.5t-50.5 -133.5t-18 -204.5q0 -96 12.5 -171t33 -122.5t49.5 -78.5t59.5 -43.5t66.5 -12.5z" />
    <glyph glyph-name="ydieresis" unicode="&#xff;" horiz-adv-x="1017" 
d="M317 1126q-60 0 -95.5 34.5t-35.5 90.5q0 53 36 88t95 35q57 0 94.5 -35t37.5 -88q0 -55 -37.5 -90t-94.5 -35zM709 1126q-61 0 -97.5 34.5t-36.5 90.5q0 53 37 88t97 35q57 0 93 -35t36 -88q0 -55 -36 -90t-93 -35zM649 975h414v-41h-41q-65 0 -107 -35.5t-69 -110.5
l-340 -976q-41 -116 -100.5 -175t-153.5 -59q-90 0 -147.5 50t-57.5 134q0 66 37.5 105t97.5 39q53 0 87 -30.5t34 -84.5q0 -53 -33.5 -84t-85.5 -31q-64 0 -94 45q15 -50 57.5 -77t100.5 -27q141 0 211 203l47 141l-420 973h-131v41h545v-41h-133l249 -645l170 504
q24 71 1 106t-89 35h-49v41z" />
    <glyph glyph-name="Amacron" unicode="&#x100;" horiz-adv-x="1363" 
d="M967 1677v-104h-607v104h607zM1202 43h150v-43h-611v43h164l-125 424h-450l-82 -285q-38 -139 90 -139h98v-43h-487v43h76q119 0 157 143l363 1254h225zM342 514h424l-215 727z" />
    <glyph glyph-name="amacron" unicode="&#x101;" horiz-adv-x="1077" 
d="M813 1276v-113h-596v113h596zM1049 258l36 -2q-2 -141 -49.5 -211t-163.5 -70q-182 0 -223 164q-28 -74 -102 -119t-193 -45q-129 0 -212 62t-83 186q0 152 135.5 229t444.5 103v184q0 211 -213 211q-82 0 -147.5 -31t-96.5 -90q32 21 72 21q54 0 87.5 -31t33.5 -82
q0 -54 -34 -87.5t-93 -33.5q-60 0 -95.5 34t-35.5 100q0 108 95.5 178.5t274.5 70.5q199 0 300.5 -84t101.5 -249v-510q0 -107 67 -107q87 0 93 209zM453 59q75 0 130.5 55t55.5 150v248q-174 -22 -250 -82t-76 -186q0 -185 140 -185z" />
    <glyph glyph-name="Abreve" unicode="&#x102;" horiz-adv-x="1363" 
d="M662 1530q-76 0 -133.5 24t-90.5 65.5t-49 90.5t-16 105h41q0 -58 67.5 -92.5t180.5 -34.5q114 0 180.5 34t68.5 93h41q0 -120 -71 -202.5t-219 -82.5zM1202 43h150v-43h-611v43h164l-125 424h-450l-82 -285q-38 -139 90 -139h98v-43h-487v43h76q119 0 157 143l363 1254
h225zM342 514h424l-215 727z" />
    <glyph glyph-name="abreve" unicode="&#x103;" horiz-adv-x="1077" 
d="M514 1108q-79 0 -137 26.5t-91 75t-48 108t-15 132.5h39q1 -87 66.5 -132.5t185.5 -45.5q118 0 183.5 45.5t66.5 132.5h39q0 -58 -9 -107.5t-30.5 -93.5t-54 -74.5t-82.5 -48.5t-113 -18zM1049 258l36 -2q-2 -141 -49.5 -211t-163.5 -70q-182 0 -223 164
q-28 -74 -102 -119t-193 -45q-129 0 -212 62t-83 186q0 152 135.5 229t444.5 103v184q0 211 -213 211q-82 0 -147.5 -31t-96.5 -90q32 21 72 21q54 0 87.5 -31t33.5 -82q0 -54 -34 -87.5t-93 -33.5q-60 0 -95.5 34t-35.5 100q0 108 95.5 178.5t274.5 70.5q199 0 300.5 -84
t101.5 -249v-510q0 -107 67 -107q87 0 93 209zM453 59q75 0 130.5 55t55.5 150v248q-174 -22 -250 -82t-76 -186q0 -185 140 -185z" />
    <glyph glyph-name="Aogonek" unicode="&#x104;" horiz-adv-x="1363" 
d="M1217 0q-82 -6 -131.5 -65.5t-49.5 -151.5q0 -107 74 -107q38 0 96 35l19 -33q-108 -77 -248 -77q-93 0 -144 44t-51 109q0 51 29.5 86t103.5 72q66 46 170 88h-344v43h164l-125 424h-450l-82 -285q-38 -139 90 -139h98v-43h-487v43h76q119 0 157 143l363 1254h225
l432 -1397h150v-43h-135zM342 514h424l-215 727z" />
    <glyph glyph-name="aogonek" unicode="&#x105;" horiz-adv-x="1077" 
d="M956 -330q34 5 88 45l15 -32q-84 -75 -217 -84q-96 -10 -151.5 26t-61.5 99q-4 53 23.5 87.5t113.5 84.5q15 13 108 79h-2q-182 0 -223 164q-28 -74 -102 -119t-193 -45q-129 0 -212 62t-83 186q0 152 135.5 229t444.5 103v184q0 211 -213 211q-82 0 -147.5 -31
t-96.5 -90q32 21 72 21q54 0 87.5 -31t33.5 -82q0 -54 -34 -87.5t-93 -33.5q-60 0 -95.5 34t-35.5 100q0 108 95.5 178.5t274.5 70.5q199 0 300.5 -84t101.5 -249v-510q0 -107 67 -107q87 0 93 209l36 -2q-2 -107 -28 -172t-86 -90q-55 -48 -82 -100t-19 -125
q6 -53 27.5 -78t58.5 -21zM453 59q75 0 130.5 55t55.5 150v248q-174 -22 -250 -82t-76 -186q0 -185 140 -185z" />
    <glyph glyph-name="Cacute" unicode="&#x106;" horiz-adv-x="1310" 
d="M586 1571l272 203q68 69 134 53q44 -11 57 -51q16 -50 -34 -92q-24 -20 -61 -33l-348 -109zM729 -25q-90 0 -177.5 28t-169 88t-143 145t-98.5 208.5t-37 268.5t36.5 267.5t97 207t141 144t167.5 87t177 27.5q62 0 117 -14t86.5 -31t65 -31t59.5 -14q65 0 84 82h39v-498
h-41q-35 214 -138.5 332.5t-226.5 118.5q-171 0 -272 -171t-101 -507q0 -335 102.5 -508.5t270.5 -173.5q60 0 118.5 31.5t109 88.5t89 145.5t54.5 195.5h41v-508h-37q-22 82 -88 82q-26 0 -59.5 -14t-64.5 -31.5t-85.5 -31.5t-116.5 -14z" />
    <glyph glyph-name="cacute" unicode="&#x107;" horiz-adv-x="1015" 
d="M737 1270l-286 -176l-27 26l190 262q41 74 108 73q50 -1 77 -42q31 -48 -9 -99q-20 -24 -53 -44zM920 303l43 -14q-50 -152 -144.5 -233t-249.5 -81q-75 0 -145 19.5t-132.5 60.5t-109.5 100.5t-74.5 145.5t-27.5 188q0 123 41 222.5t110.5 161t157 94t184.5 32.5
q158 0 254.5 -75t96.5 -197q0 -74 -39.5 -113t-102.5 -39q-60 0 -94.5 34t-34.5 89q0 54 33.5 86.5t89.5 32.5q55 0 86 -31q-24 73 -85 112.5t-140 39.5q-129 0 -208 -105t-79 -333q0 -220 75.5 -336.5t205.5 -116.5q194 0 289 256z" />
    <glyph glyph-name="Ccircumflex" unicode="&#x108;" horiz-adv-x="1310" 
d="M700 1659l-299 -129l-22 31l301 262h43l301 -262l-23 -31zM1139 492h41v-508h-37q-22 82 -88 82q-26 0 -59.5 -14t-64.5 -31.5t-85.5 -31.5t-116.5 -14q-90 0 -177.5 28t-169 88t-143 145t-98.5 208.5t-37 268.5t36.5 267.5t97 207t141 144t167.5 87t177 27.5
q62 0 117 -14t86.5 -31t65 -31t59.5 -14q65 0 84 82h39v-498h-41q-35 214 -138.5 332.5t-226.5 118.5q-171 0 -272 -171t-101 -507q0 -335 102.5 -508.5t270.5 -173.5q60 0 118.5 31.5t109 88.5t89 145.5t54.5 195.5z" />
    <glyph glyph-name="ccircumflex" unicode="&#x109;" horiz-adv-x="1015" 
d="M530 1253l-284 -157l-23 30l285 320h45l283 -320l-21 -30zM920 303l43 -14q-50 -152 -144.5 -233t-249.5 -81q-75 0 -145 19.5t-132.5 60.5t-109.5 100.5t-74.5 145.5t-27.5 188q0 123 41 222.5t110.5 161t157 94t184.5 32.5q158 0 254.5 -75t96.5 -197q0 -74 -39.5 -113
t-102.5 -39q-60 0 -94.5 34t-34.5 89q0 54 33.5 86.5t89.5 32.5q55 0 86 -31q-24 73 -85 112.5t-140 39.5q-129 0 -208 -105t-79 -333q0 -220 75.5 -336.5t205.5 -116.5q194 0 289 256z" />
    <glyph glyph-name="Cdotaccent" unicode="&#x10a;" horiz-adv-x="1310" 
d="M702 1536q-63 0 -101 35t-38 92q0 53 38.5 88t100.5 35q60 0 99 -35t39 -88q0 -57 -39 -92t-99 -35zM729 -25q-90 0 -177.5 28t-169 88t-143 145t-98.5 208.5t-37 268.5t36.5 267.5t97 207t141 144t167.5 87t177 27.5q62 0 117 -14t86.5 -31t65 -31t59.5 -14q65 0 84 82
h39v-498h-41q-35 214 -138.5 332.5t-226.5 118.5q-171 0 -272 -171t-101 -507q0 -335 102.5 -508.5t270.5 -173.5q60 0 118.5 31.5t109 88.5t89 145.5t54.5 195.5h41v-508h-37q-22 82 -88 82q-26 0 -59.5 -14t-64.5 -31.5t-85.5 -31.5t-116.5 -14z" />
    <glyph glyph-name="cdotaccent" unicode="&#x10b;" horiz-adv-x="1015" 
d="M528 1135q-68 0 -109.5 38.5t-41.5 100.5q0 59 41.5 97t109.5 38q66 0 109 -38t43 -97q0 -61 -43 -100t-109 -39zM920 303l43 -14q-50 -152 -144.5 -233t-249.5 -81q-75 0 -145 19.5t-132.5 60.5t-109.5 100.5t-74.5 145.5t-27.5 188q0 123 41 222.5t110.5 161t157 94
t184.5 32.5q158 0 254.5 -75t96.5 -197q0 -74 -39.5 -113t-102.5 -39q-60 0 -94.5 34t-34.5 89q0 54 33.5 86.5t89.5 32.5q55 0 86 -31q-24 73 -85 112.5t-140 39.5q-129 0 -208 -105t-79 -333q0 -220 75.5 -336.5t205.5 -116.5q194 0 289 256z" />
    <glyph glyph-name="Ccaron" unicode="&#x10c;" horiz-adv-x="1310" 
d="M680 1550l-299 262l20 33l301 -131l302 131l22 -33l-301 -262h-45zM1139 492h41v-508h-37q-22 82 -88 82q-26 0 -59.5 -14t-64.5 -31.5t-85.5 -31.5t-116.5 -14q-90 0 -177.5 28t-169 88t-143 145t-98.5 208.5t-37 268.5t36.5 267.5t97 207t141 144t167.5 87t177 27.5
q62 0 117 -14t86.5 -31t65 -31t59.5 -14q65 0 84 82h39v-498h-41q-35 214 -138.5 332.5t-226.5 118.5q-171 0 -272 -171t-101 -507q0 -335 102.5 -508.5t270.5 -173.5q60 0 118.5 31.5t109 88.5t89 145.5t54.5 195.5z" />
    <glyph glyph-name="ccaron" unicode="&#x10d;" horiz-adv-x="1015" 
d="M508 1100l-285 319l23 31l284 -158l285 158l21 -31l-283 -319h-45zM920 303l43 -14q-50 -152 -144.5 -233t-249.5 -81q-75 0 -145 19.5t-132.5 60.5t-109.5 100.5t-74.5 145.5t-27.5 188q0 123 41 222.5t110.5 161t157 94t184.5 32.5q158 0 254.5 -75t96.5 -197
q0 -74 -39.5 -113t-102.5 -39q-60 0 -94.5 34t-34.5 89q0 54 33.5 86.5t89.5 32.5q55 0 86 -31q-24 73 -85 112.5t-140 39.5q-129 0 -208 -105t-79 -333q0 -220 75.5 -336.5t205.5 -116.5q194 0 289 256z" />
    <glyph glyph-name="Dcaron" unicode="&#x10e;" horiz-adv-x="1466" 
d="M711 1534l-299 262l20 33l301 -131l301 131l23 -33l-301 -262h-45zM657 1421q214 0 370.5 -77.5t245.5 -238.5t89 -394q0 -176 -50.5 -312t-143.5 -223t-222 -131.5t-289 -44.5h-565v43h172v1333h-172v45h565zM637 43q224 0 330 163t106 505q0 340 -106.5 502.5
t-329.5 162.5h-107v-1333h107z" />
    <glyph glyph-name="dcaron" unicode="&#x10f;" horiz-adv-x="1210" 
d="M1233 1518q41 0 66 -29.5t24 -79.5q-1 -51 -18.5 -109t-55.5 -161h-35q-64 164 -67 270q-1 50 22.5 79.5t63.5 29.5zM1028 41h137v-41h-387v172q-76 -197 -291 -197q-60 0 -118 19.5t-110.5 61.5t-92 101t-63 144.5t-23.5 185.5q0 125 35.5 225.5t94 161.5t129 93
t144.5 32q216 0 295 -198v624h-151v43h401v-1427zM565 59q44 0 81 21.5t69 68.5t50.5 133.5t18.5 204.5t-18.5 204.5t-51 133.5t-70 68.5t-81.5 21.5t-80 -21t-67 -67.5t-48.5 -133t-17.5 -206.5q0 -96 12 -171.5t32 -123t48.5 -78t58.5 -43t64 -12.5z" />
    <glyph glyph-name="Dcroat" unicode="&#x110;" horiz-adv-x="1466" 
d="M657 1421q214 0 370.5 -77.5t245.5 -238.5t89 -394q0 -176 -50.5 -312t-143.5 -223t-222 -131.5t-289 -44.5h-565v43h172v666h-172v43h172v624h-172v45h565zM637 43q224 0 330 163t106 505q0 340 -106.5 502.5t-329.5 162.5h-107v-624h275v-43h-275v-666h107z" />
    <glyph glyph-name="dcroat" unicode="&#x111;" horiz-adv-x="1204" 
d="M1165 1198h-137v-1157h137v-41h-387v172q-76 -197 -291 -197q-60 0 -118 19.5t-110.5 61.5t-92 101t-63 144.5t-23.5 185.5q0 125 35.5 225.5t94 161.5t129 93t144.5 32q216 0 295 -198v397h-368v45h368v182h-151v43h401v-225h137v-45zM565 59q44 0 81 21.5t69 68.5
t50.5 133.5t18.5 204.5t-18.5 204.5t-51 133.5t-70 68.5t-81.5 21.5t-80 -21t-67 -67.5t-48.5 -133t-17.5 -206.5q0 -96 12 -171.5t32 -123t48.5 -78t58.5 -43t64 -12.5z" />
    <glyph glyph-name="Emacron" unicode="&#x112;" horiz-adv-x="1300" 
d="M999 1677v-104h-606v104h606zM1143 444h43l-19 -444h-1075v43h172v1335h-172v43h1063l16 -430h-43q-30 204 -118.5 295.5t-243.5 91.5h-238v-612h150q110 0 160 61t61 177h37v-525h-37q-11 122 -61 183t-160 61h-150v-680h250q167 0 247.5 94t117.5 307z" />
    <glyph glyph-name="emacron" unicode="&#x113;" 
d="M838 1276v-113h-596v113h596zM950 299l41 -16q-47 -144 -154.5 -226t-267.5 -82q-99 0 -187 35.5t-155.5 100t-107 163.5t-39.5 218q0 121 39.5 219.5t106 160t150.5 94.5t177 33q117 0 211.5 -45t153.5 -140.5t59 -227.5v-49h-629v-31q0 -224 74.5 -342.5t212.5 -118.5
q104 0 187.5 67t127.5 187zM551 952q-185 0 -201 -366h383q-3 193 -48 279.5t-134 86.5z" />
    <glyph glyph-name="Ebreve" unicode="&#x114;" horiz-adv-x="1300" 
d="M696 1530q-76 0 -133.5 24t-90 65.5t-48.5 90.5t-16 105h41q0 -58 67 -92.5t180 -34.5q114 0 181 34t69 93h41q0 -56 -16 -105t-49 -90.5t-91 -65.5t-135 -24zM1143 444h43l-19 -444h-1075v43h172v1335h-172v43h1063l16 -430h-43q-30 204 -118.5 295.5t-243.5 91.5h-238
v-612h150q110 0 160 61t61 177h37v-525h-37q-11 122 -61 183t-160 61h-150v-680h250q167 0 247.5 94t117.5 307z" />
    <glyph glyph-name="ebreve" unicode="&#x115;" 
d="M541 1108q-79 0 -137 26.5t-91 75t-48 108t-15 132.5h39q1 -87 66.5 -132.5t185.5 -45.5q118 0 183.5 45.5t66.5 132.5h38q0 -58 -9 -107t-30 -93.5t-53.5 -75t-82.5 -48.5t-113 -18zM950 299l41 -16q-47 -144 -154.5 -226t-267.5 -82q-99 0 -187 35.5t-155.5 100
t-107 163.5t-39.5 218q0 121 39.5 219.5t106 160t150.5 94.5t177 33q117 0 211.5 -45t153.5 -140.5t59 -227.5v-49h-629v-31q0 -224 74.5 -342.5t212.5 -118.5q104 0 187.5 67t127.5 187zM551 952q-185 0 -201 -366h383q-3 193 -48 279.5t-134 86.5z" />
    <glyph glyph-name="Edotaccent" unicode="&#x116;" horiz-adv-x="1300" 
d="M698 1520q-63 0 -101 35t-38 92q0 53 38.5 87.5t100.5 34.5q60 0 99 -34.5t39 -87.5q0 -57 -39 -92t-99 -35zM1143 444h43l-19 -444h-1075v43h172v1335h-172v43h1063l16 -430h-43q-30 204 -118.5 295.5t-243.5 91.5h-238v-612h150q110 0 160 61t61 177h37v-525h-37
q-11 122 -61 183t-160 61h-150v-680h250q167 0 247.5 94t117.5 307z" />
    <glyph glyph-name="edotaccent" unicode="&#x117;" 
d="M541 1130q-68 0 -110 39t-42 101q0 59 42 97t110 38q66 0 108.5 -38t42.5 -97q0 -61 -42.5 -100.5t-108.5 -39.5zM950 299l41 -16q-47 -144 -154.5 -226t-267.5 -82q-99 0 -187 35.5t-155.5 100t-107 163.5t-39.5 218q0 121 39.5 219.5t106 160t150.5 94.5t177 33
q117 0 211.5 -45t153.5 -140.5t59 -227.5v-49h-629v-31q0 -224 74.5 -342.5t212.5 -118.5q104 0 187.5 67t127.5 187zM551 952q-185 0 -201 -366h383q-3 193 -48 279.5t-134 86.5z" />
    <glyph glyph-name="Eogonek" unicode="&#x118;" horiz-adv-x="1300" 
d="M1157 0q-82 -6 -131 -65.5t-49 -151.5q0 -107 74 -107q38 0 96 35l18 -33q-108 -77 -247 -77q-93 0 -144 44t-51 109q0 51 29.5 86t103.5 72q66 46 170 88h-934v43h172v1335h-172v43h1063l16 -430h-43q-30 204 -118.5 295.5t-243.5 91.5h-238v-612h150q110 0 160 61
t61 177h37v-525h-37q-11 122 -61 183t-160 61h-150v-680h250q167 0 247.5 94t117.5 307h43l-19 -444h-10z" />
    <glyph glyph-name="eogonek" unicode="&#x119;" 
d="M760 12q-119 -78 -105 -239q12 -109 84 -103q35 4 95 43l14 -35q-83 -70 -225 -77q-97 -9 -152.5 30.5t-60.5 104.5q-5 54 26 93.5t117 86.5q11 8 40 31t44 33q-57 -5 -68 -5q-99 0 -187 35.5t-155.5 100t-107 163.5t-39.5 218q0 121 39.5 219.5t106 160t150.5 94.5
t177 33q117 0 211.5 -45t153.5 -140.5t59 -227.5v-49h-629v-31q0 -224 74.5 -342.5t212.5 -118.5q104 0 187.5 67t127.5 187l41 -16q-65 -199 -231 -271zM551 952q-185 0 -201 -366h383q-3 193 -48 279.5t-134 86.5z" />
    <glyph glyph-name="Ecaron" unicode="&#x11a;" horiz-adv-x="1300" 
d="M674 1534l-299 262l20 33l301 -131l301 131l23 -33l-301 -262h-45zM1143 444h43l-19 -444h-1075v43h172v1335h-172v43h1063l16 -430h-43q-30 204 -118.5 295.5t-243.5 91.5h-238v-612h150q110 0 160 61t61 177h37v-525h-37q-11 122 -61 183t-160 61h-150v-680h250
q167 0 247.5 94t117.5 307z" />
    <glyph glyph-name="ecaron" unicode="&#x11b;" 
d="M518 1096l-285 319l23 31l285 -158l284 158l21 -31l-283 -319h-45zM950 299l41 -16q-47 -144 -154.5 -226t-267.5 -82q-99 0 -187 35.5t-155.5 100t-107 163.5t-39.5 218q0 121 39.5 219.5t106 160t150.5 94.5t177 33q117 0 211.5 -45t153.5 -140.5t59 -227.5v-49h-629
v-31q0 -224 74.5 -342.5t212.5 -118.5q104 0 187.5 67t127.5 187zM551 952q-185 0 -201 -366h383q-3 193 -48 279.5t-134 86.5z" />
    <glyph glyph-name="Gcircumflex" unicode="&#x11c;" horiz-adv-x="1431" 
d="M731 1657l-299 -129l-22 31l301 262h43l301 -262l-23 -31zM1405 657v-43h-141v-630h-39q-25 96 -111 96q-31 0 -70.5 -16.5t-75.5 -36t-97 -36t-130 -16.5q-98 0 -190.5 29.5t-173.5 90t-142 147t-96 207.5t-35 264t37 264.5t100 206.5t145.5 145t173 88.5t183.5 28.5
q68 0 130 -14.5t98.5 -31.5t75 -31.5t63.5 -14.5q74 0 92 84h41l-6 -506h-39q-40 211 -147.5 334t-257.5 123q-176 0 -281.5 -175.5t-105.5 -500.5q0 -332 92 -508t266 -176q118 0 195 74t77 202v309h-188v43h557z" />
    <glyph glyph-name="gcircumflex" unicode="&#x11d;" horiz-adv-x="1052" 
d="M848 1069q0 51 37 70q-62 -17 -99 -70.5t-43 -132.5q78 -46 123 -116t45 -158q0 -151 -121.5 -245.5t-289.5 -94.5q-63 0 -129 16q-103 -59 -103 -117q0 -25 15 -40.5t57.5 -23.5t74 -11t108.5 -7q45 -3 69 -4q211 -10 298 -70.5t87 -177.5q0 -65 -26.5 -116t-71 -84.5
t-108.5 -55t-134 -30.5t-152 -9q-198 0 -322 52t-124 153q0 63 56.5 107t150.5 69q-148 47 -148 168q0 81 57.5 130t159.5 85q-101 42 -163 121.5t-62 184.5q0 100 58.5 178.5t151 118.5t200.5 40q114 0 209 -45q9 91 59 150l-268 149l-285 -157l-22 30l284 320h45l277 -311
q57 45 133 45q60 0 92.5 -30t32.5 -77q0 -48 -30 -75t-75 -27q-43 0 -73.5 26.5t-30.5 71.5zM500 362q80 0 127 75.5t47 224.5q0 147 -47 221.5t-127 74.5q-78 0 -124 -74.5t-46 -221.5q0 -149 46 -224.5t124 -75.5zM795 -195q0 71 -71.5 100.5t-240.5 35.5q-101 3 -164 14
q-96 -54 -96 -143q0 -84 73.5 -128t205.5 -44q137 0 215 43.5t78 121.5z" />
    <glyph glyph-name="Gbreve" unicode="&#x11e;" horiz-adv-x="1431" 
d="M731 1544q-76 0 -133.5 24t-90.5 65.5t-49 90.5t-16 105h41q0 -58 67.5 -92.5t180.5 -34.5q114 0 181 34t69 93h41q0 -56 -16 -105t-49 -90.5t-91 -65.5t-135 -24zM1405 657v-43h-141v-630h-39q-25 96 -111 96q-31 0 -70.5 -16.5t-75.5 -36t-97 -36t-130 -16.5
q-98 0 -190.5 29.5t-173.5 90t-142 147t-96 207.5t-35 264t37 264.5t100 206.5t145.5 145t173 88.5t183.5 28.5q68 0 130 -14.5t98.5 -31.5t75 -31.5t63.5 -14.5q74 0 92 84h41l-6 -506h-39q-40 211 -147.5 334t-257.5 123q-176 0 -281.5 -175.5t-105.5 -500.5
q0 -332 92 -508t266 -176q118 0 195 74t77 202v309h-188v43h557z" />
    <glyph glyph-name="gbreve" unicode="&#x11f;" horiz-adv-x="1052" 
d="M500 1112q-79 0 -137 26.5t-91 75t-48 108t-15 132.5h39q1 -87 66.5 -132.5t185.5 -45.5q118 0 183.5 45.5t66.5 132.5h38q0 -58 -9 -107t-30 -93.5t-53.5 -75t-82.5 -48.5t-113 -18zM848 1069q0 51 37 70q-62 -17 -99 -70.5t-43 -132.5q78 -46 123 -116t45 -158
q0 -151 -121.5 -245.5t-289.5 -94.5q-63 0 -129 16q-103 -59 -103 -117q0 -25 15 -40.5t57.5 -23.5t74 -11t108.5 -7q45 -3 69 -4q211 -10 298 -70.5t87 -177.5q0 -65 -26.5 -116t-71 -84.5t-108.5 -55t-134 -30.5t-152 -9q-198 0 -322 52t-124 153q0 63 56.5 107t150.5 69
q-148 47 -148 168q0 81 57.5 130t159.5 85q-101 42 -163 121.5t-62 184.5q0 100 58.5 178.5t151 118.5t200.5 40q114 0 209 -45q9 99 70.5 162.5t152.5 63.5q60 0 92.5 -30t32.5 -77q0 -48 -30 -75t-75 -27q-43 0 -73.5 26.5t-30.5 71.5zM500 362q80 0 127 75.5t47 224.5
q0 147 -47 221.5t-127 74.5q-78 0 -124 -74.5t-46 -221.5q0 -149 46 -224.5t124 -75.5zM795 -195q0 71 -71.5 100.5t-240.5 35.5q-101 3 -164 14q-96 -54 -96 -143q0 -84 73.5 -128t205.5 -44q137 0 215 43.5t78 121.5z" />
    <glyph glyph-name="Gdotaccent" unicode="&#x120;" horiz-adv-x="1431" 
d="M731 1534q-63 0 -101 35t-38 92q0 53 38.5 88t100.5 35q60 0 98.5 -35t38.5 -88q0 -57 -38.5 -92t-98.5 -35zM1405 657v-43h-141v-630h-39q-25 96 -111 96q-31 0 -70.5 -16.5t-75.5 -36t-97 -36t-130 -16.5q-98 0 -190.5 29.5t-173.5 90t-142 147t-96 207.5t-35 264
t37 264.5t100 206.5t145.5 145t173 88.5t183.5 28.5q68 0 130 -14.5t98.5 -31.5t75 -31.5t63.5 -14.5q74 0 92 84h41l-6 -506h-39q-40 211 -147.5 334t-257.5 123q-176 0 -281.5 -175.5t-105.5 -500.5q0 -332 92 -508t266 -176q118 0 195 74t77 202v309h-188v43h557z" />
    <glyph glyph-name="gdotaccent" unicode="&#x121;" horiz-adv-x="1052" 
d="M500 1135q-69 0 -110.5 38.5t-41.5 100.5q0 59 42 97t110 38q66 0 108.5 -38t42.5 -97q0 -61 -42.5 -100t-108.5 -39zM848 1069q0 51 37 70q-62 -17 -99 -70.5t-43 -132.5q78 -46 123 -116t45 -158q0 -151 -121.5 -245.5t-289.5 -94.5q-63 0 -129 16q-103 -59 -103 -117
q0 -25 15 -40.5t57.5 -23.5t74 -11t108.5 -7q45 -3 69 -4q211 -10 298 -70.5t87 -177.5q0 -65 -26.5 -116t-71 -84.5t-108.5 -55t-134 -30.5t-152 -9q-198 0 -322 52t-124 153q0 63 56.5 107t150.5 69q-148 47 -148 168q0 81 57.5 130t159.5 85q-101 42 -163 121.5
t-62 184.5q0 100 58.5 178.5t151 118.5t200.5 40q114 0 209 -45q9 99 70.5 162.5t152.5 63.5q60 0 92.5 -30t32.5 -77q0 -48 -30 -75t-75 -27q-43 0 -73.5 26.5t-30.5 71.5zM500 362q80 0 127 75.5t47 224.5q0 147 -47 221.5t-127 74.5q-78 0 -124 -74.5t-46 -221.5
q0 -149 46 -224.5t124 -75.5zM795 -195q0 71 -71.5 100.5t-240.5 35.5q-101 3 -164 14q-96 -54 -96 -143q0 -84 73.5 -128t205.5 -44q137 0 215 43.5t78 121.5z" />
    <glyph glyph-name="uni0122" unicode="&#x122;" horiz-adv-x="1431" 
d="M1405 657v-43h-141v-630h-39q-25 96 -111 96q-31 0 -70.5 -16.5t-75.5 -36t-97 -36t-130 -16.5q-98 0 -190.5 29.5t-173.5 90t-142 147t-96 207.5t-35 264t37 264.5t100 206.5t145.5 145t173 88.5t183.5 28.5q68 0 130 -14.5t98.5 -31.5t75 -31.5t63.5 -14.5q74 0 92 84
h41l-6 -506h-39q-40 211 -147.5 334t-257.5 123q-176 0 -281.5 -175.5t-105.5 -500.5q0 -332 92 -508t266 -176q118 0 195 74t77 202v309h-188v43h557zM719 -100q54 0 88.5 -35t34.5 -96q0 -88 -59 -166t-152 -105l-15 29q125 48 166 168q-28 -14 -63 -14q-52 0 -83.5 30
t-31.5 80q0 49 32 79t83 30z" />
    <glyph glyph-name="uni0123" unicode="&#x123;" horiz-adv-x="1052" 
d="M506 1073q-54 0 -87.5 34.5t-33.5 96.5q0 89 58 166.5t151 104.5l14 -29q-120 -44 -166 -168q26 16 66 16q51 0 82 -31t31 -81q0 -48 -32 -78.5t-83 -30.5zM848 1069q0 51 37 70q-62 -17 -99 -70.5t-43 -132.5q78 -46 123 -116t45 -158q0 -151 -121.5 -245.5
t-289.5 -94.5q-63 0 -129 16q-103 -59 -103 -117q0 -25 15 -40.5t57.5 -23.5t74 -11t108.5 -7q45 -3 69 -4q211 -10 298 -70.5t87 -177.5q0 -65 -26.5 -116t-71 -84.5t-108.5 -55t-134 -30.5t-152 -9q-198 0 -322 52t-124 153q0 63 56.5 107t150.5 69q-148 47 -148 168
q0 81 57.5 130t159.5 85q-101 42 -163 121.5t-62 184.5q0 100 58.5 178.5t151 118.5t200.5 40q114 0 209 -45q9 99 70.5 162.5t152.5 63.5q60 0 92.5 -30t32.5 -77q0 -48 -30 -75t-75 -27q-43 0 -73.5 26.5t-30.5 71.5zM500 362q80 0 127 75.5t47 224.5q0 147 -47 221.5
t-127 74.5q-78 0 -124 -74.5t-46 -221.5q0 -149 46 -224.5t124 -75.5zM795 -195q0 71 -71.5 100.5t-240.5 35.5q-101 3 -164 14q-96 -54 -96 -143q0 -84 73.5 -128t205.5 -44q137 0 215 43.5t78 121.5z" />
    <glyph glyph-name="Hcircumflex" unicode="&#x124;" horiz-adv-x="1611" 
d="M805 1642l-299 -129l-23 31l301 262h43l301 -262l-22 -31zM1522 1378h-174v-1335h174v-43h-588v43h149v684h-555v-684h150v-43h-586v43h172v1335h-172v43h586v-43h-150v-602h555v602h-149v43h588v-43z" />
    <glyph glyph-name="hcircumflex" unicode="&#x125;" horiz-adv-x="1210" 
d="M604 1720l-299 -129l-22 31l301 262h43l301 -262l-23 -31zM1032 41h137v-41h-485v41h98v686q0 168 -133 168q-68 0 -126 -44.5t-93 -133.5v-676h109v-41h-496v41h137v1386h-137v41h387v-667q44 94 131.5 146t196.5 52q126 0 200 -69.5t74 -208.5v-680z" />
    <glyph glyph-name="Hbar" unicode="&#x126;" horiz-adv-x="1611" 
d="M1522 1378h-174v-313h174v-45h-174v-977h174v-43h-588v43h149v684h-555v-684h150v-43h-586v43h172v977h-172v45h172v313h-172v43h586v-43h-150v-313h555v313h-149v43h588v-43zM1083 776v244h-555v-244h555z" />
    <glyph glyph-name="hbar" unicode="&#x127;" horiz-adv-x="1210" 
d="M1032 41h137v-41h-485v41h98v686q0 168 -133 168q-68 0 -126 -44.5t-93 -133.5v-676h109v-41h-496v41h137v1157h-137v45h137v184h-137v41h387v-225h326v-45h-326v-397q44 94 131.5 146t196.5 52q126 0 200 -69.5t74 -208.5v-680z" />
    <glyph glyph-name="Itilde" unicode="&#x128;" horiz-adv-x="792" 
d="M236 1626q-47 0 -77.5 -23.5t-33.5 -66.5l-39 6q9 242 197 242q48 0 146.5 -35t139.5 -35q46 0 76 25.5t33 66.5l41 -6q-6 -123 -57 -182t-140 -59q-44 0 -143 33.5t-143 33.5zM702 1421v-45h-174v-1333h174v-43h-610v43h172v1333h-172v45h610z" />
    <glyph glyph-name="itilde" unicode="&#x129;" horiz-adv-x="608" 
d="M172 1219q-42 0 -67.5 -23t-28.5 -66l-37 5q9 243 166 243q43 0 124 -34.5t113 -34.5q39 0 63 23t27 65l37 -4q-9 -244 -157 -244q-37 0 -119.5 35t-120.5 35zM428 41h137v-41h-522v41h137v893h-137v41h385v-934z" />
    <glyph glyph-name="Imacron" unicode="&#x12a;" horiz-adv-x="792" 
d="M700 1677v-104h-606v104h606zM702 1376h-174v-1333h174v-43h-610v43h172v1333h-172v45h610v-45z" />
    <glyph glyph-name="imacron" unicode="&#x12b;" horiz-adv-x="608" 
d="M561 1290v-112h-516v112h516zM428 41h137v-41h-522v41h137v893h-137v41h385v-934z" />
    <glyph glyph-name="Ibreve" unicode="&#x12c;" horiz-adv-x="792" 
d="M395 1530q-76 0 -133.5 24t-90.5 65.5t-49 90.5t-16 105h41q0 -58 67.5 -92.5t180.5 -34.5q114 0 181 34t69 93h41q0 -56 -16 -105t-49 -90.5t-91 -65.5t-135 -24zM702 1376h-174v-1333h174v-43h-610v43h172v1333h-172v45h610v-45z" />
    <glyph glyph-name="ibreve" unicode="&#x12d;" horiz-adv-x="608" 
d="M303 1110q-258 0 -262 330h39q3 -83 60.5 -125.5t162.5 -42.5q104 0 161 42.5t60 125.5h39q-4 -330 -260 -330zM428 41h137v-41h-522v41h137v893h-137v41h385v-934z" />
    <glyph glyph-name="Iogonek" unicode="&#x12e;" horiz-adv-x="792" 
d="M702 1376h-174v-1333h174v-43h-51q-82 -6 -131 -65.5t-49 -151.5q0 -107 74 -107q38 0 96 35l18 -33q-108 -77 -247 -77q-93 0 -144 44t-51 109q0 51 29.5 86t103.5 72q66 46 170 88h-428v43h172v1333h-172v45h610v-45z" />
    <glyph glyph-name="iogonek" unicode="&#x12f;" horiz-adv-x="608" 
d="M303 1130q-68 0 -109.5 39t-41.5 101q0 59 41.5 97t109.5 38q66 0 109 -38t43 -97q0 -61 -43 -100.5t-109 -39.5zM547 0q-81 -11 -130.5 -67t-49.5 -154q0 -111 73 -111q39 0 99 31l10 -35q-89 -63 -232 -63q-97 0 -147.5 43t-50.5 108q0 56 33 91.5t124 78.5
q73 51 140 78h-373v41h137v893h-137v41h385v-934h137v-41h-18z" />
    <glyph glyph-name="Idotaccent" unicode="&#x130;" horiz-adv-x="792" 
d="M397 1520q-63 0 -101 35t-38 92q0 53 38.5 87.5t100.5 34.5q60 0 99 -34.5t39 -87.5q0 -57 -39 -92t-99 -35zM702 1376h-174v-1333h174v-43h-610v43h172v1333h-172v45h610v-45z" />
    <glyph glyph-name="dotlessi" unicode="&#x131;" horiz-adv-x="608" 
d="M428 41h137v-41h-522v41h137v893h-137v41h385v-934z" />
    <glyph glyph-name="IJ" unicode="&#x132;" horiz-adv-x="1814" 
d="M702 1421v-45h-174v-1333h174v-43h-610v43h172v1333h-172v45h610zM1778 1421v-43h-174v-1022q0 -102 -32 -177.5t-90 -119t-131 -64t-163 -20.5q-167 0 -255.5 73.5t-88.5 199.5q0 90 42 134t109 44q60 0 96.5 -34t36.5 -91t-35 -94t-92 -37q-70 0 -110 57
q11 -93 77 -141.5t154 -48.5q103 0 160 68.5t57 207.5v1065h-194v43h633z" />
    <glyph glyph-name="ij" unicode="&#x133;" horiz-adv-x="1202" 
d="M293 1176q-65 0 -108.5 38t-43.5 99t43.5 99t108.5 38q67 0 111.5 -38t44.5 -99t-44.5 -99t-111.5 -38zM905 1174q-66 0 -108.5 38t-42.5 99t42.5 99t108.5 38q67 0 111.5 -38t44.5 -99t-44.5 -99t-111.5 -38zM565 41v-41h-522v41h137v893h-137v41h385v-934h137z
M1044 975v-1063q0 -80 -22 -142t-56.5 -99.5t-82 -62t-94.5 -33.5t-99 -9q-100 0 -153.5 45t-53.5 121q0 58 31 89.5t78 31.5q46 0 72 -26.5t26 -70.5q0 -42 -27.5 -68t-68.5 -26q-34 0 -59 19q33 -70 120 -70q65 0 102.5 47t37.5 141v1135h-140v41h389z" />
    <glyph glyph-name="Jcircumflex" unicode="&#x134;" horiz-adv-x="1019" 
d="M641 1642l-299 -129l-23 31l302 262h43l301 -262l-23 -31zM985 1421v-43h-174v-1022q0 -102 -32 -177.5t-90 -119t-131 -64t-163 -20.5q-167 0 -255.5 73.5t-88.5 199.5q0 90 42.5 134t109.5 44q60 0 96.5 -34t36.5 -91t-35 -94t-92 -37q-71 0 -111 57
q11 -93 77.5 -141.5t154.5 -48.5q103 0 160 68.5t57 207.5v1065h-195v43h633z" />
    <glyph glyph-name="jcircumflex" unicode="&#x135;" horiz-adv-x="593" 
d="M319 1458l256 -336l-20 -32l-258 172l-260 -172l-21 32l256 336h47zM436 975v-1063q0 -80 -22 -142t-56.5 -99.5t-82 -62t-94.5 -33.5t-99 -9q-100 0 -153.5 45t-53.5 121q0 58 31 89.5t78 31.5q46 0 72 -26.5t26 -70.5q0 -42 -27.5 -68t-68.5 -26q-35 0 -60 19
q33 -70 121 -70q65 0 102 47t37 141v1135h-139v41h389z" />
    <glyph glyph-name="uni0136" unicode="&#x136;" horiz-adv-x="1431" 
d="M1321 43h133v-43h-590v43h150l-393 678l-93 -109v-569h170v-43h-606v43h172v1333h-172v45h617v-45h-181v-682l435 520q30 37 39.5 73.5t-10.5 62.5t-70 26h-41v45h491v-45h-43q-76 0 -149 -39t-131 -108l-254 -301zM711 -94q54 0 88.5 -35t34.5 -96q0 -88 -59 -166
t-152 -105l-15 29q125 48 166 168q-28 -14 -63 -14q-52 0 -83.5 30t-31.5 80q0 49 32 79t83 30z" />
    <glyph glyph-name="uni0137" unicode="&#x137;" horiz-adv-x="1163" 
d="M1059 43h110v-43h-522v43h119l-264 473l-74 -72v-403h111v-41h-496v41h137v1382h-137v41h385v-954l309 305q44 43 29 81t-74 38h-41v41h426v-41h-22q-144 -15 -269 -135l-104 -103zM578 -94q54 0 88 -35t34 -96q0 -88 -59 -166t-152 -105l-14 29q64 23 105.5 68t60.5 100
q-26 -16 -63 -16q-52 0 -83.5 31t-31.5 81q0 48 32 78.5t83 30.5z" />
    <glyph glyph-name="kgreenlandic" unicode="&#x138;" horiz-adv-x="1163" 
d="M1059 43h110v-43h-522v43h119l-264 473l-74 -72v-403h111v-41h-496v41h137v893h-137v41h385v-465l309 305q44 41 29 80t-74 39h-41v41h426v-41h-22q-144 -15 -269 -135l-104 -103z" />
    <glyph glyph-name="Lacute" unicode="&#x139;" horiz-adv-x="1181" 
d="M698 1634l-348 -108l-20 28l272 203q68 69 134 53q44 -11 57 -51q16 -50 -34 -92q-24 -20 -61 -33zM1059 518h41l-13 -518h-995v43h172v1335h-172v43h639v-43h-203v-1335h166q153 0 240.5 108.5t124.5 366.5z" />
    <glyph glyph-name="lacute" unicode="&#x13a;" horiz-adv-x="608" 
d="M461 1833q68 69 134 53q44 -11 57 -51q16 -50 -34 -92q-24 -20 -61 -33l-348 -108l-21 28zM430 1464v-1423h137v-41h-524v41h137v1382h-137v41h387z" />
    <glyph glyph-name="uni013B" unicode="&#x13b;" horiz-adv-x="1181" 
d="M1059 518h41l-13 -518h-995v43h172v1335h-172v43h639v-43h-203v-1335h166q153 0 240.5 108.5t124.5 366.5zM586 -94q54 0 88.5 -35t34.5 -96q0 -88 -59 -166t-152 -105l-15 29q125 48 166 168q-28 -14 -63 -14q-52 0 -83.5 30t-31.5 80q0 49 32 79t83 30z" />
    <glyph glyph-name="uni013C" unicode="&#x13c;" horiz-adv-x="608" 
d="M430 41h137v-41h-524v41h137v1382h-137v41h387v-1423zM299 -94q54 0 88.5 -35t34.5 -96q0 -88 -59 -166t-152 -105l-14 29q123 45 165 168q-26 -16 -63 -16q-52 0 -83.5 31t-31.5 81q0 48 32 78.5t83 30.5z" />
    <glyph glyph-name="Lcaron" unicode="&#x13d;" horiz-adv-x="1181" 
d="M1081 1593q41 0 66 -29t24 -79q-2 -82 -73 -271h-35q-65 167 -68 271q-1 50 22.5 79t63.5 29zM694 43q153 0 240.5 108.5t124.5 366.5h41l-13 -518h-995v43h172v1335h-172v43h639v-43h-203v-1335h166z" />
    <glyph glyph-name="lcaron" unicode="&#x13e;" horiz-adv-x="608" 
d="M612 1634q41 0 66 -29t24 -79q-2 -82 -73 -271h-35q-65 167 -68 271q-1 50 22.5 79t63.5 29zM430 1464v-1423h137v-41h-524v41h137v1382h-137v41h387z" />
    <glyph glyph-name="Ldot" unicode="&#x13f;" horiz-adv-x="1173" 
d="M1059 518h41l-13 -518h-995v43h172v1335h-172v43h639v-43h-203v-1335h166q153 0 240.5 108.5t124.5 366.5zM944 743q-67 0 -109 41t-42 103q0 64 42 105.5t109 41.5t110.5 -42t43.5 -105q0 -62 -43.5 -103t-110.5 -41z" />
    <glyph glyph-name="ldot" unicode="&#x140;" horiz-adv-x="776" 
d="M430 1464v-1423h137v-41h-524v41h137v1382h-137v41h387zM690 985q67 0 110.5 -42t43.5 -105q0 -62 -43.5 -103t-110.5 -41t-109 41t-42 103q0 64 42 105.5t109 41.5z" />
    <glyph glyph-name="Lslash" unicode="&#x141;" horiz-adv-x="1181" 
d="M1059 518h41l-13 -518h-995v43h172v514l-153 -96l-19 39l172 108v770h-172v43h639v-43h-203v-602l375 238l21 -39l-396 -250v-682h166q153 0 240.5 108.5t124.5 366.5z" />
    <glyph glyph-name="lslash" unicode="&#x142;" horiz-adv-x="608" 
d="M430 879v-838h137v-41h-524v41h137v680l-114 -72l-23 37l137 86v651h-137v41h387v-534l115 71l22 -36z" />
    <glyph glyph-name="Nacute" unicode="&#x143;" horiz-adv-x="1468" 
d="M987 1634l-348 -108l-21 28l273 203q68 69 134 53q44 -11 57 -51q16 -50 -34 -92q-24 -20 -61 -33zM958 1421h463v-43h-49q-63 0 -109 -47t-46 -135v-1219h-170l-734 1299v-1040q0 -96 45 -145.5t119 -49.5h47v-41h-475v41h47q69 0 114.5 50t45.5 145v1015q0 69 -26.5 98
t-92.5 29h-71v43h471l624 -1071v846q0 89 -44 135.5t-109 46.5h-50v43z" />
    <glyph glyph-name="nacute" unicode="&#x144;" horiz-adv-x="1212" 
d="M817 1266l-287 -176l-26 26l190 262q41 74 108 73q50 -1 77 -42q31 -48 -9 -99q-20 -24 -53 -44zM1034 41h137v-41h-489v41h102v686q0 168 -131 168q-68 0 -128 -45.5t-95 -136.5v-672h105v-41h-492v41h137v893h-137v41h387v-178q44 95 132.5 148.5t197.5 53.5
q126 0 200 -69.5t74 -208.5v-680z" />
    <glyph glyph-name="uni0145" unicode="&#x145;" horiz-adv-x="1468" 
d="M958 1421h463v-43h-49q-63 0 -109 -47t-46 -135v-1219h-170l-734 1299v-1040q0 -96 45 -145.5t119 -49.5h47v-41h-475v41h47q69 0 114.5 50t45.5 145v1015q0 69 -26.5 98t-92.5 29h-71v43h471l624 -1071v846q0 89 -44 135.5t-109 46.5h-50v43zM729 -94q54 0 88.5 -35
t34.5 -96q0 -88 -59 -166t-152 -105l-14 29q125 48 166 168q-28 -14 -64 -14q-52 0 -83.5 30t-31.5 80q0 49 32 79t83 30z" />
    <glyph glyph-name="uni0146" unicode="&#x146;" horiz-adv-x="1212" 
d="M1034 41h137v-41h-489v41h102v686q0 168 -131 168q-68 0 -128 -45.5t-95 -136.5v-672h105v-41h-492v41h137v893h-137v41h387v-178q44 95 132.5 148.5t197.5 53.5q126 0 200 -69.5t74 -208.5v-680zM602 -94q54 0 88.5 -35t34.5 -96q0 -88 -59 -166t-152 -105l-14 29
q64 23 105.5 68t60.5 100q-26 -16 -64 -16q-52 0 -83.5 31t-31.5 81q0 48 32 78.5t83 30.5z" />
    <glyph glyph-name="Ncaron" unicode="&#x147;" horiz-adv-x="1468" 
d="M713 1534l-299 262l20 33l301 -131l301 131l23 -33l-301 -262h-45zM958 1421h463v-43h-49q-63 0 -109 -47t-46 -135v-1219h-170l-734 1299v-1040q0 -96 45 -145.5t119 -49.5h47v-41h-475v41h47q69 0 114.5 50t45.5 145v1015q0 69 -26.5 98t-92.5 29h-71v43h471l624 -1071
v846q0 89 -44 135.5t-109 46.5h-50v43z" />
    <glyph glyph-name="ncaron" unicode="&#x148;" horiz-adv-x="1212" 
d="M586 1096l-285 319l23 31l284 -158l285 158l20 -31l-282 -319h-45zM1034 41h137v-41h-489v41h102v686q0 168 -131 168q-68 0 -128 -45.5t-95 -136.5v-672h105v-41h-492v41h137v893h-137v41h387v-178q44 95 132.5 148.5t197.5 53.5q126 0 200 -69.5t74 -208.5v-680z" />
    <glyph glyph-name="Eng" unicode="&#x14a;" horiz-adv-x="1470" 
d="M1372 1378q-63 0 -109 -47t-46 -135v-1190q0 -204 -92.5 -320t-266.5 -116q-122 0 -200 69.5t-78 188.5q0 92 42 135t105 43q61 0 98 -34.5t37 -90.5q0 -55 -36 -93t-89 -38q-80 0 -112 66q10 -92 74.5 -142.5t152.5 -50.5q74 0 129.5 32t81.5 81.5t25 111t-33 117.5
l-742 1315v-1044q0 -96 45 -145.5t119 -49.5h47v-41h-475v41h47q69 0 114.5 50t45.5 145v1015q0 69 -26.5 98t-92.5 29h-71v43h471l624 -1073v848q0 89 -44 135.5t-109 46.5h-50v43h463v-43h-49z" />
    <glyph glyph-name="eng" unicode="&#x14b;" horiz-adv-x="1200" 
d="M760 999q126 0 200 -69.5t74 -208.5v-809q0 -80 -22 -142t-56.5 -99.5t-82 -62t-94.5 -33.5t-99 -9q-100 0 -153.5 45t-53.5 121q0 58 31.5 89.5t79.5 31.5q45 0 70.5 -26.5t25.5 -70.5q0 -42 -27.5 -68t-68.5 -26q-35 0 -60 19q33 -70 121 -70q65 0 102 47t37 141v928
q0 168 -131 168q-68 0 -128 -45.5t-95 -136.5v-672h105v-41h-492v41h137v893h-137v41h387v-178q44 95 132.5 148.5t197.5 53.5z" />
    <glyph glyph-name="Omacron" unicode="&#x14c;" horiz-adv-x="1492" 
d="M1053 1690v-105h-607v105h607zM750 -25q-87 0 -176.5 29.5t-174 91.5t-150 147.5t-105.5 207t-40 260.5t39 260t104.5 206.5t149.5 146.5t174 90.5t179 29.5q74 0 149 -21t146.5 -61t134 -103.5t109 -142.5t73.5 -183.5t27 -221.5q0 -140 -39 -261.5t-104 -207t-148 -147
t-172 -91t-176 -29.5zM750 23q161 0 254.5 174.5t93.5 513.5q0 342 -93.5 514t-254.5 172q-163 0 -259 -172.5t-96 -513.5q0 -337 97 -512.5t258 -175.5z" />
    <glyph glyph-name="omacron" unicode="&#x14d;" horiz-adv-x="1128" 
d="M864 1276v-113h-596v113h596zM567 -25q-68 0 -135.5 19t-131 60.5t-112.5 100.5t-78.5 145t-29.5 187t29.5 186.5t78.5 144.5t112.5 100.5t131 61t135.5 19.5q85 0 168.5 -32t155 -92.5t116 -161.5t44.5 -226q0 -101 -29 -187t-77.5 -145t-111.5 -100.5t-130.5 -60.5
t-135.5 -19zM567 18q99 0 156 113.5t57 355.5t-57 355.5t-156 113.5q-101 0 -159 -113.5t-58 -355.5t58 -355.5t159 -113.5z" />
    <glyph glyph-name="Obreve" unicode="&#x14e;" horiz-adv-x="1492" 
d="M750 1542q-76 0 -133.5 24t-90.5 65.5t-49 90.5t-16 105h41q0 -58 67.5 -92.5t180.5 -34.5q114 0 180.5 34t68.5 93h41q0 -120 -71 -202.5t-219 -82.5zM750 1444q74 0 149 -21t146.5 -61t134 -103.5t109 -142.5t73.5 -183.5t27 -221.5q0 -140 -39 -261.5t-104 -207
t-148 -147t-172 -91t-176 -29.5t-176.5 29.5t-174 91.5t-150 147.5t-105.5 207t-40 260.5t39 260t104.5 206.5t149.5 146.5t174 90.5t179 29.5zM750 23q161 0 254.5 174.5t93.5 513.5q0 342 -93.5 514t-254.5 172q-163 0 -259 -172.5t-96 -513.5q0 -337 97 -512.5
t258 -175.5z" />
    <glyph glyph-name="obreve" unicode="&#x14f;" horiz-adv-x="1128" 
d="M565 1108q-79 0 -137 26.5t-91 75t-48 108t-15 132.5h39q1 -87 66.5 -132.5t185.5 -45.5q118 0 183.5 45.5t66.5 132.5h39q0 -58 -9 -107.5t-30.5 -93.5t-54 -74.5t-82.5 -48.5t-113 -18zM567 999q85 0 168.5 -32t155 -92.5t116 -161.5t44.5 -226q0 -101 -29 -187
t-77.5 -145t-111.5 -100.5t-130.5 -60.5t-135.5 -19t-135.5 19t-131 60.5t-112.5 100.5t-78.5 145t-29.5 187t29.5 186.5t78.5 144.5t112.5 100.5t131 61t135.5 19.5zM567 18q99 0 156 113.5t57 355.5t-57 355.5t-156 113.5q-101 0 -159 -113.5t-58 -355.5t58 -355.5
t159 -113.5z" />
    <glyph glyph-name="Ohungarumlaut" unicode="&#x150;" horiz-adv-x="1492" 
d="M553 1559l217 243q40 70 101 68q46 -2 66 -39q26 -48 -20 -99q-15 -17 -38 -32l-301 -168zM883 1559l215 243q40 69 100 68q46 -1 67 -39q27 -47 -20 -99q-15 -17 -37 -32l-301 -168zM750 -25q-87 0 -176.5 29.5t-174 91.5t-150 147.5t-105.5 207t-40 260.5t39 260
t104.5 206.5t149.5 146.5t174 90.5t179 29.5q74 0 149 -21t146.5 -61t134 -103.5t109 -142.5t73.5 -183.5t27 -221.5q0 -140 -39 -261.5t-104 -207t-148 -147t-172 -91t-176 -29.5zM750 23q161 0 254.5 174.5t93.5 513.5q0 342 -93.5 514t-254.5 172q-163 0 -259 -172.5
t-96 -513.5q0 -337 97 -512.5t258 -175.5z" />
    <glyph glyph-name="ohungarumlaut" unicode="&#x151;" horiz-adv-x="1128" 
d="M344 1110l158 270q29 78 92 87q51 7 84 -31q37 -43 6 -98q-15 -24 -41 -46l-270 -202zM705 1110l155 270q29 78 93 87q51 7 85 -31q38 -43 7 -98q-14 -24 -41 -46l-271 -202zM567 -25q-68 0 -135.5 19t-131 60.5t-112.5 100.5t-78.5 145t-29.5 187t29.5 186.5t78.5 144.5
t112.5 100.5t131 61t135.5 19.5q85 0 168.5 -32t155 -92.5t116 -161.5t44.5 -226q0 -101 -29 -187t-77.5 -145t-111.5 -100.5t-130.5 -60.5t-135.5 -19zM567 18q99 0 156 113.5t57 355.5t-57 355.5t-156 113.5q-101 0 -159 -113.5t-58 -355.5t58 -355.5t159 -113.5z" />
    <glyph glyph-name="OE" unicode="&#x152;" horiz-adv-x="2134" 
d="M1976 444h43l-18 -444h-903v80q-138 -105 -348 -105q-87 0 -176.5 29.5t-174 91.5t-150 147.5t-105.5 207t-40 260.5t39 260t104.5 206.5t149.5 146.5t174 90.5t179 29.5q211 0 348 -98v75h891l16 -430h-43q-30 203 -119 295t-244 92h-237v-612h149q110 0 160.5 61
t61.5 177h36v-525h-36q-11 121 -61.5 182.5t-160.5 61.5h-149v-680h250q167 0 247 94t117 307zM750 23q161 0 254.5 174.5t93.5 513.5q0 342 -93.5 514t-254.5 172q-163 0 -259 -172.5t-96 -513.5q0 -337 97 -512.5t258 -175.5z" />
    <glyph glyph-name="oe" unicode="&#x153;" horiz-adv-x="1755" 
d="M1649 299l41 -16q-47 -144 -154.5 -226t-267.5 -82q-103 0 -195 39t-158 111q-70 -73 -162 -111.5t-186 -38.5q-68 0 -135.5 19t-131 60.5t-112.5 100.5t-78.5 145t-29.5 187t29.5 186.5t78.5 144.5t112.5 100.5t131 61t135.5 19.5q93 0 183.5 -37t158.5 -108
q65 71 154.5 108t189.5 37q116 0 210 -45t153 -140.5t59 -227.5v-49h-628v-31q0 -224 75 -342.5t211 -118.5q104 0 188 67t128 187zM567 18q99 0 156 113.5t57 355.5t-57 355.5t-156 113.5q-101 0 -159 -113.5t-58 -355.5t58 -355.5t159 -113.5zM1249 952q-184 0 -200 -366
h383q-3 193 -48.5 279.5t-134.5 86.5z" />
    <glyph glyph-name="Racute" unicode="&#x154;" horiz-adv-x="1447" 
d="M973 1634l-348 -108l-21 28l273 203q68 69 134 53q44 -11 57 -51q16 -50 -34 -92q-24 -20 -61 -33zM1425 236l33 -9q-13 -56 -30 -97t-46.5 -78.5t-75.5 -57t-108 -19.5q-141 0 -202.5 82t-69.5 246q-5 99 -16.5 162t-37.5 114t-72.5 74t-117.5 23h-154v-633h203v-43
h-639v43h172v1335h-172v43h641q522 0 522 -356q0 -165 -108 -257.5t-313 -111.5q345 -30 360 -364q6 -148 30 -206t81 -58q45 0 72.5 42.5t47.5 125.5zM696 1378h-168v-657h146q305 0 305 336q0 321 -283 321z" />
    <glyph glyph-name="racute" unicode="&#x155;" horiz-adv-x="942" 
d="M702 1266l-286 -176l-27 26l191 262q42 75 108 73q51 -2 76 -42q31 -48 -10 -100q-20 -24 -52 -43zM676 999q98 0 151.5 -57.5t53.5 -146.5q0 -78 -38.5 -120t-103.5 -42q-61 0 -97 34.5t-36 90.5q0 55 35.5 90t91.5 35q68 0 103 -54q-11 62 -52.5 97t-105.5 35
q-109 0 -178.5 -89t-69.5 -245v-586h174v-41h-561v41h137v893h-137v41h387v-158q29 84 92.5 133t153.5 49z" />
    <glyph glyph-name="uni0156" unicode="&#x156;" horiz-adv-x="1447" 
d="M1425 236l33 -9q-13 -56 -30 -97t-46.5 -78.5t-75.5 -57t-108 -19.5q-141 0 -202.5 82t-69.5 246q-5 99 -16.5 162t-37.5 114t-72.5 74t-117.5 23h-154v-633h203v-43h-639v43h172v1335h-172v43h641q522 0 522 -356q0 -165 -108 -257.5t-313 -111.5q345 -30 360 -364
q6 -148 30 -206t81 -58q45 0 72.5 42.5t47.5 125.5zM696 1378h-168v-657h146q305 0 305 336q0 321 -283 321zM733 -94q54 0 88.5 -35t34.5 -96q0 -88 -59 -166t-152 -105l-14 29q125 48 166 168q-28 -14 -64 -14q-52 0 -83.5 30t-31.5 80q0 49 32 79t83 30z" />
    <glyph glyph-name="uni0157" unicode="&#x157;" horiz-adv-x="942" 
d="M676 999q98 0 151.5 -57.5t53.5 -146.5q0 -78 -38.5 -120t-103.5 -42q-61 0 -97 34.5t-36 90.5q0 55 35.5 90t91.5 35q68 0 103 -54q-11 62 -52.5 97t-105.5 35q-109 0 -178.5 -89t-69.5 -245v-586h174v-41h-561v41h137v893h-137v41h387v-158q29 84 92.5 133t153.5 49z
M387 -94q54 0 88.5 -35t34.5 -96q0 -88 -59 -166t-152 -105l-14 29q64 23 105.5 68t60.5 100q-26 -16 -64 -16q-52 0 -83.5 31t-31.5 81q0 48 32 78.5t83 30.5z" />
    <glyph glyph-name="Rcaron" unicode="&#x158;" horiz-adv-x="1447" 
d="M698 1534l-299 262l21 33l301 -131l301 131l22 -33l-301 -262h-45zM1425 236l33 -9q-13 -56 -30 -97t-46.5 -78.5t-75.5 -57t-108 -19.5q-141 0 -202.5 82t-69.5 246q-5 99 -16.5 162t-37.5 114t-72.5 74t-117.5 23h-154v-633h203v-43h-639v43h172v1335h-172v43h641
q522 0 522 -356q0 -165 -108 -257.5t-313 -111.5q345 -30 360 -364q6 -148 30 -206t81 -58q45 0 72.5 42.5t47.5 125.5zM696 1378h-168v-657h146q305 0 305 336q0 321 -283 321z" />
    <glyph glyph-name="rcaron" unicode="&#x159;" horiz-adv-x="942" 
d="M471 1096l-285 319l23 31l285 -158l284 158l21 -31l-283 -319h-45zM676 999q98 0 151.5 -57.5t53.5 -146.5q0 -78 -38.5 -120t-103.5 -42q-61 0 -97 34.5t-36 90.5q0 55 35.5 90t91.5 35q68 0 103 -54q-11 62 -52.5 97t-105.5 35q-109 0 -178.5 -89t-69.5 -245v-586h174
v-41h-561v41h137v893h-137v41h387v-158q29 84 92.5 133t153.5 49z" />
    <glyph glyph-name="Sacute" unicode="&#x15a;" horiz-adv-x="1183" 
d="M457 1571l272 203q68 69 134 53q44 -11 57 -51q16 -50 -34 -92q-24 -20 -61 -33l-348 -109zM662 -25q-84 0 -159.5 26t-129 51.5t-84.5 25.5q-71 0 -101 -88h-32l-11 512h37q35 -126 87 -219.5t115 -149t131.5 -82t143.5 -26.5q117 0 180.5 68t63.5 171q0 50 -16.5 92.5
t-44 76t-75.5 67t-98.5 60.5t-125.5 61t-129 64t-105.5 71t-83 85t-50.5 103.5t-19 130.5q0 80 25 145t65.5 106.5t94.5 69t107.5 39t108.5 11.5q76 0 142.5 -23t114 -46t77.5 -23q37 0 56.5 22t31.5 62h35l-6 -439h-37q-43 185 -152.5 293.5t-257.5 108.5
q-103 0 -167 -55.5t-64 -155.5q0 -47 16 -85.5t40.5 -67t72 -59t91.5 -52t118 -54.5q77 -34 131.5 -63.5t110.5 -72.5t90 -89.5t55.5 -112t21.5 -143.5q0 -107 -36.5 -189.5t-97 -130.5t-132 -72t-149.5 -24z" />
    <glyph glyph-name="sacute" unicode="&#x15b;" horiz-adv-x="886" 
d="M340 1116l190 262q41 74 108 73q50 -1 77 -42q31 -48 -9 -99q-20 -24 -53 -44l-286 -176zM485 -25q-62 0 -120 17t-100.5 34t-65.5 17q-62 0 -82 -55h-31l-4 346h31q21 -75 63.5 -136.5t94 -99.5t106.5 -58t106 -20q80 0 127 39t47 109q0 75 -62 120t-206 93
q-152 53 -227.5 133.5t-75.5 204.5q0 70 25.5 125t69 88t98 50t116.5 17q58 0 109.5 -14.5t88.5 -29.5t60 -15q57 0 68 55h29v-293h-27q-50 122 -137 189t-183 65q-74 0 -118.5 -35.5t-44.5 -95.5q0 -36 17 -64.5t54.5 -52.5t74.5 -40.5t101 -40.5q78 -28 131 -55.5
t100 -67.5t70 -94.5t23 -126.5q0 -77 -27.5 -137.5t-74 -97t-104 -55t-120.5 -18.5z" />
    <glyph glyph-name="Scircumflex" unicode="&#x15c;" horiz-adv-x="1183" 
d="M573 1659l-299 -129l-22 31l301 262h43l301 -262l-23 -31zM668 872q77 -34 131.5 -63.5t110.5 -72.5t90 -89.5t55.5 -112t21.5 -143.5q0 -107 -36.5 -189.5t-97 -130.5t-132 -72t-149.5 -24q-84 0 -159.5 26t-129 51.5t-84.5 25.5q-71 0 -101 -88h-32l-11 512h37
q35 -126 87 -219.5t115 -149t131.5 -82t143.5 -26.5q117 0 180.5 68t63.5 171q0 50 -16.5 92.5t-44 76t-75.5 67t-98.5 60.5t-125.5 61t-129 64t-105.5 71t-83 85t-50.5 103.5t-19 130.5q0 80 25 145t65.5 106.5t94.5 69t107.5 39t108.5 11.5q76 0 142.5 -23t114 -46
t77.5 -23q37 0 56.5 22t31.5 62h35l-6 -439h-37q-43 185 -152.5 293.5t-257.5 108.5q-103 0 -167 -55.5t-64 -155.5q0 -47 16 -85.5t40.5 -67t72 -59t91.5 -52t118 -54.5z" />
    <glyph glyph-name="scircumflex" unicode="&#x15d;" horiz-adv-x="886" 
d="M444 1249l-284 -157l-23 30l285 320h45l283 -320l-21 -30zM487 627q78 -28 131 -55.5t100 -67.5t70 -94.5t23 -126.5q0 -77 -27.5 -137.5t-74 -97t-104 -55t-120.5 -18.5q-62 0 -120 17t-100.5 34t-65.5 17q-62 0 -82 -55h-31l-4 346h31q21 -75 63.5 -136.5t94 -99.5
t106.5 -58t106 -20q80 0 127 39t47 109q0 75 -62 120t-206 93q-152 53 -227.5 133.5t-75.5 204.5q0 70 25.5 125t69 88t98 50t116.5 17q58 0 109.5 -14.5t88.5 -29.5t60 -15q57 0 68 55h29v-293h-27q-50 122 -137 189t-183 65q-74 0 -118.5 -35.5t-44.5 -95.5
q0 -36 17 -64.5t54.5 -52.5t74.5 -40.5t101 -40.5z" />
    <glyph glyph-name="Scedilla" unicode="&#x15e;" horiz-adv-x="1183" 
d="M662 -25h-23l-78 -84q34 11 86 11q93 0 149 -43.5t56 -106.5q0 -82 -72.5 -131t-199.5 -49q-140 0 -199 94l33 27q53 -74 141 -74q59 0 86 29t27 92t-22.5 86.5t-65.5 23.5q-55 0 -111 -59l-41 21l158 170q-61 8 -121.5 32.5t-104 44t-71.5 19.5q-71 0 -101 -88h-32
l-11 512h37q35 -126 87 -219.5t115 -149t131.5 -82t143.5 -26.5q117 0 180.5 68t63.5 171q0 50 -16.5 92.5t-44 76t-75.5 67t-98.5 60.5t-125.5 61t-129 64t-105.5 71t-83 85t-50.5 103.5t-19 130.5q0 80 25 145t65.5 106.5t94.5 69t107.5 39t108.5 11.5q76 0 142.5 -23
t114 -46t77.5 -23q37 0 56.5 22t31.5 62h35l-6 -439h-37q-43 185 -152.5 293.5t-257.5 108.5q-103 0 -167 -55.5t-64 -155.5q0 -47 16 -85.5t40.5 -67t72 -59t91.5 -52t118 -54.5q77 -34 131.5 -63.5t110.5 -72.5t90 -89.5t55.5 -112t21.5 -143.5q0 -107 -36.5 -189.5
t-97 -130.5t-132 -72t-149.5 -24z" />
    <glyph glyph-name="scedilla" unicode="&#x15f;" horiz-adv-x="886" 
d="M485 -25h-16l-76 -79q31 10 86 10q91 0 145 -41.5t54 -100.5q0 -80 -70.5 -127t-191.5 -47q-132 0 -193 84l31 27q56 -66 133 -66q109 0 109 115q0 59 -22 83t-64 24q-50 0 -109 -64l-39 19l158 168q-54 8 -125.5 35.5t-95.5 27.5q-62 0 -82 -55h-31l-4 346h31
q21 -75 63.5 -136.5t94 -99.5t106.5 -58t106 -20q80 0 127 39t47 109q0 75 -62 120t-206 93q-152 53 -227.5 133.5t-75.5 204.5q0 70 25.5 125t69 88t98 50t116.5 17q58 0 109.5 -14.5t88.5 -29.5t60 -15q57 0 68 55h29v-293h-27q-50 122 -137 189t-183 65
q-74 0 -118.5 -35.5t-44.5 -95.5q0 -36 17 -64.5t54.5 -52.5t74.5 -40.5t101 -40.5q78 -28 131 -55.5t100 -67.5t70 -94.5t23 -126.5q0 -77 -27.5 -137.5t-74 -97t-104 -55t-120.5 -18.5z" />
    <glyph glyph-name="Scaron" unicode="&#x160;" horiz-adv-x="1183" 
d="M551 1550l-299 262l20 33l301 -131l301 131l23 -33l-301 -262h-45zM668 872q77 -34 131.5 -63.5t110.5 -72.5t90 -89.5t55.5 -112t21.5 -143.5q0 -107 -36.5 -189.5t-97 -130.5t-132 -72t-149.5 -24q-84 0 -159.5 26t-129 51.5t-84.5 25.5q-71 0 -101 -88h-32l-11 512h37
q35 -126 87 -219.5t115 -149t131.5 -82t143.5 -26.5q117 0 180.5 68t63.5 171q0 50 -16.5 92.5t-44 76t-75.5 67t-98.5 60.5t-125.5 61t-129 64t-105.5 71t-83 85t-50.5 103.5t-19 130.5q0 80 25 145t65.5 106.5t94.5 69t107.5 39t108.5 11.5q76 0 142.5 -23t114 -46
t77.5 -23q37 0 56.5 22t31.5 62h35l-6 -439h-37q-43 185 -152.5 293.5t-257.5 108.5q-103 0 -167 -55.5t-64 -155.5q0 -47 16 -85.5t40.5 -67t72 -59t91.5 -52t118 -54.5z" />
    <glyph glyph-name="scaron" unicode="&#x161;" horiz-adv-x="886" 
d="M422 1096l-285 319l23 31l284 -158l285 158l21 -31l-283 -319h-45zM487 627q78 -28 131 -55.5t100 -67.5t70 -94.5t23 -126.5q0 -77 -27.5 -137.5t-74 -97t-104 -55t-120.5 -18.5q-62 0 -120 17t-100.5 34t-65.5 17q-62 0 -82 -55h-31l-4 346h31q21 -75 63.5 -136.5
t94 -99.5t106.5 -58t106 -20q80 0 127 39t47 109q0 75 -62 120t-206 93q-152 53 -227.5 133.5t-75.5 204.5q0 70 25.5 125t69 88t98 50t116.5 17q58 0 109.5 -14.5t88.5 -29.5t60 -15q57 0 68 55h29v-293h-27q-50 122 -137 189t-183 65q-74 0 -118.5 -35.5t-44.5 -95.5
q0 -36 17 -64.5t54.5 -52.5t74.5 -40.5t101 -40.5z" />
    <glyph glyph-name="uni0162" unicode="&#x162;" horiz-adv-x="1363" 
d="M1253 1421l21 -518h-43q-71 477 -363 477h-55v-1337h240v-43h-328l-94 -102q31 10 86 10q93 0 149 -43.5t56 -106.5q0 -82 -73 -131t-200 -49q-139 0 -198 94l32 27q53 -74 142 -74q58 0 85 29t27 92t-22.5 87t-65.5 24q-53 0 -110 -60l-41 21l170 182h-355v43h238v1337
h-55q-289 0 -363 -477h-43l23 518h1140z" />
    <glyph glyph-name="uni0163" unicode="&#x163;" horiz-adv-x="739" 
d="M418 -88q91 0 144.5 -41t53.5 -100q0 -80 -70.5 -127t-191.5 -47q-131 0 -192 84l31 26q55 -65 133 -65q108 0 108 114q0 59 -22 83t-64 24q-49 0 -108 -64l-39 19l153 166q-182 35 -182 280v668h-168v43h168v309h250v-309h240v-43h-240v-739q0 -84 22 -119t64 -35
q59 0 92 64t47 200l41 -4q-7 -83 -20 -136t-40 -99t-75 -67.5t-121 -21.5h-31l-69 -73q31 10 86 10z" />
    <glyph glyph-name="Tcaron" unicode="&#x164;" horiz-adv-x="1363" 
d="M659 1534l-299 262l21 33l301 -131l301 131l23 -33l-301 -262h-46zM1253 1421l21 -518h-43q-71 477 -363 477h-55v-1337h240v-43h-740v43h238v1337h-55q-289 0 -363 -477h-43l23 518h1140z" />
    <glyph glyph-name="tcaron" unicode="&#x165;" horiz-adv-x="739" 
d="M686 1518q41 0 66 -29.5t24 -79.5q-1 -51 -18.5 -109t-55.5 -161h-34q-65 167 -68 270q-1 50 22.5 79.5t63.5 29.5zM508 39q59 0 92 64t47 200l41 -4q-7 -83 -20 -136t-40 -99t-75 -67.5t-121 -21.5q-260 0 -260 289v668h-168v43h168v309h250v-309h240v-43h-240v-739
q0 -84 22 -119t64 -35z" />
    <glyph glyph-name="Tbar" unicode="&#x166;" horiz-adv-x="1363" 
d="M868 1380h-55v-766h358v-43h-358v-528h240v-43h-740v43h238v528h-358v43h358v766h-55q-289 0 -363 -477h-43l23 518h1140l21 -518h-43q-71 477 -363 477z" />
    <glyph glyph-name="tbar" unicode="&#x167;" horiz-adv-x="739" 
d="M647 303l41 -4q-7 -83 -20 -136t-40 -99t-75 -67.5t-121 -21.5q-260 0 -260 289v330h-168v43h168v295h-168v43h168v309h250v-309h240v-43h-240v-295h240v-43h-240v-401q0 -84 22 -119t64 -35q59 0 92 64t47 200z" />
    <glyph glyph-name="Utilde" unicode="&#x168;" horiz-adv-x="1415" 
d="M578 1626q-47 0 -77.5 -23.5t-33.5 -66.5l-39 6q9 242 197 242q48 0 146.5 -35t139.5 -35q46 0 76 25.5t33 66.5l41 -6q-6 -123 -57 -182t-140 -59q-44 0 -143 33.5t-143 33.5zM903 1421h496v-43h-58q-83 0 -119 -54t-36 -136v-717q0 -261 -108 -378.5t-341 -117.5
q-506 0 -506 492v911h-172v43h605v-43h-168v-999q0 -188 74 -268t225 -80q161 0 240 106t79 330v721q0 80 -35.5 135t-111.5 55h-64v43z" />
    <glyph glyph-name="utilde" unicode="&#x169;" horiz-adv-x="1181" 
d="M420 1223q-46 0 -76 -24t-33 -66l-41 6q12 237 195 237q49 0 147 -33.5t138 -33.5q45 0 75 24.5t31 65.5l41 -6q-11 -238 -192 -238q-45 0 -143 34t-142 34zM999 41h138v-41h-387v172q-42 -93 -129 -145t-197 -52q-127 0 -202 70t-75 209v680h-137v41h389v-731
q0 -166 131 -166q72 0 130 44t90 134v678h-119v41h368v-934z" />
    <glyph glyph-name="Umacron" unicode="&#x16a;" horiz-adv-x="1415" 
d="M1040 1677v-104h-606v104h606zM903 1421h496v-43h-58q-83 0 -119 -54t-36 -136v-717q0 -261 -108 -378.5t-341 -117.5q-506 0 -506 492v911h-172v43h605v-43h-168v-999q0 -188 74 -268t225 -80q161 0 240 106t79 330v721q0 80 -35.5 135t-111.5 55h-64v43z" />
    <glyph glyph-name="umacron" unicode="&#x16b;" horiz-adv-x="1181" 
d="M879 1276v-113h-596v113h596zM999 41h138v-41h-387v172q-42 -93 -129 -145t-197 -52q-127 0 -202 70t-75 209v680h-137v41h389v-731q0 -166 131 -166q72 0 130 44t90 134v678h-119v41h368v-934z" />
    <glyph glyph-name="Ubreve" unicode="&#x16c;" horiz-adv-x="1415" 
d="M737 1530q-76 0 -133.5 24t-90 65.5t-48.5 90.5t-16 105h40q0 -58 67.5 -92.5t180.5 -34.5q114 0 181 34t69 93h41q0 -56 -16 -105t-49 -90.5t-91 -65.5t-135 -24zM903 1421h496v-43h-58q-83 0 -119 -54t-36 -136v-717q0 -261 -108 -378.5t-341 -117.5q-506 0 -506 492
v911h-172v43h605v-43h-168v-999q0 -188 74 -268t225 -80q161 0 240 106t79 330v721q0 80 -35.5 135t-111.5 55h-64v43z" />
    <glyph glyph-name="ubreve" unicode="&#x16d;" horiz-adv-x="1181" 
d="M582 1108q-79 0 -137 26.5t-91 75t-48 108t-15 132.5h39q1 -87 66.5 -132.5t185.5 -45.5q118 0 183 45.5t66 132.5h39q0 -58 -9 -107t-30 -93.5t-53.5 -75t-82.5 -48.5t-113 -18zM999 41h138v-41h-387v172q-42 -93 -129 -145t-197 -52q-127 0 -202 70t-75 209v680h-137
v41h389v-731q0 -166 131 -166q72 0 130 44t90 134v678h-119v41h368v-934z" />
    <glyph glyph-name="Uring" unicode="&#x16e;" horiz-adv-x="1415" 
d="M737 1493q-119 0 -192.5 54.5t-73.5 146.5q0 91 73.5 145.5t192.5 56.5t193 -53.5t74 -148.5q0 -90 -74 -144.5t-193 -56.5zM737 1862q-59 0 -93 -45t-34 -123q0 -76 34 -120t93 -44q60 0 94.5 44t34.5 120q0 78 -34.5 123t-94.5 45zM903 1421h496v-43h-58
q-83 0 -119 -54t-36 -136v-717q0 -261 -108 -378.5t-341 -117.5q-506 0 -506 492v911h-172v43h605v-43h-168v-999q0 -188 74 -268t225 -80q161 0 240 106t79 330v721q0 80 -35.5 135t-111.5 55h-64v43z" />
    <glyph glyph-name="uring" unicode="&#x16f;" horiz-adv-x="1181" 
d="M580 1092q-118 0 -190.5 55t-72.5 145q0 92 72.5 147.5t190.5 57.5q117 2 189.5 -54.5t72.5 -150.5q0 -90 -72 -144t-190 -56zM580 1458q-60 0 -95.5 -44t-35.5 -122q0 -76 36 -119t95 -43q61 0 97 43t36 119q0 78 -36 122t-97 44zM999 41h138v-41h-387v172
q-42 -93 -129 -145t-197 -52q-127 0 -202 70t-75 209v680h-137v41h389v-731q0 -166 131 -166q72 0 130 44t90 134v678h-119v41h368v-934z" />
    <glyph glyph-name="Uhungarumlaut" unicode="&#x170;" horiz-adv-x="1415" 
d="M866 1688l-301 -168l-24 26l217 244q41 71 102 68q46 -2 65 -41q25 -48 -23 -99q-16 -16 -36 -30zM895 1520l-25 26l215 244q41 71 102 68q46 -2 66 -41q26 -48 -22 -99q-14 -16 -35 -30zM903 1421h496v-43h-58q-83 0 -119 -54t-36 -136v-717q0 -261 -108 -378.5
t-341 -117.5q-506 0 -506 492v911h-172v43h605v-43h-168v-999q0 -188 74 -268t225 -80q161 0 240 106t79 330v721q0 80 -35.5 135t-111.5 55h-64v43z" />
    <glyph glyph-name="uhungarumlaut" unicode="&#x171;" horiz-adv-x="1181" 
d="M659 1292l-270 -202l-29 20l158 270q29 78 92 87q51 7 84 -31q37 -43 6 -98q-15 -24 -41 -46zM1020 1292l-270 -202l-29 20l156 270q29 79 93 87q51 6 84 -31q38 -44 6 -99q-14 -24 -40 -45zM999 41h138v-41h-387v172q-42 -93 -129 -145t-197 -52q-127 0 -202 70t-75 209
v680h-137v41h389v-731q0 -166 131 -166q72 0 130 44t90 134v678h-119v41h368v-934z" />
    <glyph glyph-name="Uogonek" unicode="&#x172;" horiz-adv-x="1415" 
d="M903 1421h496v-43h-58q-83 0 -119 -54t-36 -136v-717q0 -222 -77.5 -339t-242.5 -146q-53 -25 -81 -79t-25 -124q3 -108 76 -105q39 3 96 37l18 -30q-105 -81 -245 -86q-91 -3 -143.5 39.5t-55.5 107.5q-2 51 27 87.5t102 74.5q52 40 110 67h-8q-506 0 -506 492v911h-172
v43h605v-43h-168v-999q0 -188 74 -268t225 -80q161 0 240 106t79 330v721q0 80 -35.5 135t-111.5 55h-64v43z" />
    <glyph glyph-name="uogonek" unicode="&#x173;" horiz-adv-x="1181" 
d="M1090 0q-81 -11 -131 -67t-50 -154q0 -111 74 -111q38 0 98 31l11 -35q-89 -63 -232 -63q-97 0 -147.5 43t-50.5 108q0 56 33 91.5t124 78.5q74 52 139 78h-208v172q-42 -93 -129 -145t-197 -52q-127 0 -202 70t-75 209v680h-137v41h389v-731q0 -166 131 -166
q72 0 130 44t90 134v678h-119v41h368v-934h138v-41h-47z" />
    <glyph glyph-name="Wcircumflex" unicode="&#x174;" horiz-adv-x="2070" 
d="M1075 1642l-299 -129l-22 31l301 262h43l301 -262l-23 -31zM1647 1421h473v-43h-41q-81 0 -131.5 -52.5t-71.5 -131.5l-332 -1204h-194l-310 1069l-264 -1069h-196l-424 1388h-148v43h578v-43h-148l338 -1149l232 942l-60 207h-127v43h557v-43h-147l317 -1151l267 977
q19 67 -13 120.5t-112 53.5h-43v43z" />
    <glyph glyph-name="wcircumflex" unicode="&#x175;" horiz-adv-x="1667" 
d="M836 1249l-285 -157l-23 30l285 320h45l283 -320l-21 -30zM1294 975h404v-41h-31q-63 0 -108.5 -39.5t-63.5 -101.5l-246 -799h-184l-236 690l-208 -690h-185l-338 940h-129v41h537v-41h-137l249 -750l179 598l-54 152h-108v41h510v-41h-133l239 -746l183 615
q16 53 -8.5 92t-84.5 39h-47v41z" />
    <glyph glyph-name="Ycircumflex" unicode="&#x176;" horiz-adv-x="1277" 
d="M664 1642l-299 -129l-23 31l301 262h43l301 -262l-22 -31zM840 1419h477v-43h-49q-74 1 -132.5 -53t-93.5 -129l-245 -532v-619h198v-43h-663v43h200v578l-376 755h-162v45h616v-45h-166l320 -651l221 477q13 30 15.5 60.5t-6.5 56.5t-35 42t-66 15h-53v43z" />
    <glyph glyph-name="ycircumflex" unicode="&#x177;" horiz-adv-x="1017" 
d="M514 1249l-285 -157l-22 30l285 320h45l282 -320l-20 -30zM649 975h414v-41h-41q-65 0 -107 -35.5t-69 -110.5l-340 -976q-41 -116 -100.5 -175t-153.5 -59q-90 0 -147.5 50t-57.5 134q0 66 37.5 105t97.5 39q53 0 87 -30.5t34 -84.5q0 -53 -33.5 -84t-85.5 -31
q-64 0 -94 45q15 -50 57.5 -77t100.5 -27q141 0 211 203l47 141l-420 973h-131v41h545v-41h-133l249 -645l170 504q24 71 1 106t-89 35h-49v41z" />
    <glyph glyph-name="Ydieresis" unicode="&#x178;" horiz-adv-x="1277" 
d="M465 1518q-58 0 -93.5 33.5t-35.5 86.5t35.5 87t93.5 34q55 0 91 -34t36 -87q0 -52 -35.5 -86t-91.5 -34zM862 1518q-58 0 -92.5 33.5t-34.5 86.5t34.5 87t92.5 34q55 0 91 -34t36 -87q0 -52 -35.5 -86t-91.5 -34zM840 1419h477v-43h-49q-74 1 -132.5 -53t-93.5 -129
l-245 -532v-619h198v-43h-663v43h200v578l-376 755h-162v45h616v-45h-166l320 -651l221 477q13 30 15.5 60.5t-6.5 56.5t-35 42t-66 15h-53v43z" />
    <glyph glyph-name="Zacute" unicode="&#x179;" horiz-adv-x="1253" 
d="M518 1554l273 203q68 69 134 53q44 -11 57 -51q16 -50 -34 -92q-24 -20 -61 -33l-348 -108zM1135 496l-15 -496h-1011v37l720 1339h-243q-180 0 -270.5 -100t-118.5 -320h-43l10 465h964v-39l-720 -1339h274q190 0 282 103t126 350h45z" />
    <glyph glyph-name="zacute" unicode="&#x17a;" horiz-adv-x="950" 
d="M373 1116l190 262q41 74 108 73q50 -1 77 -42q31 -48 -9 -99q-20 -24 -53 -44l-287 -176zM842 946l-512 -907h151q137 0 216.5 75t111.5 236h33l-13 -350h-766v29l512 907h-159q-124 0 -199 -71.5t-98 -227.5h-31l12 338h742v-29z" />
    <glyph glyph-name="Zdotaccent" unicode="&#x17b;" horiz-adv-x="1253" 
d="M635 1520q-63 0 -101 35t-38 92q0 53 38.5 87.5t100.5 34.5q60 0 98.5 -34.5t38.5 -87.5q0 -57 -38.5 -92t-98.5 -35zM1135 496l-15 -496h-1011v37l720 1339h-243q-180 0 -270.5 -100t-118.5 -320h-43l10 465h964v-39l-720 -1339h274q190 0 282 103t126 350h45z" />
    <glyph glyph-name="zdotaccent" unicode="&#x17c;" horiz-adv-x="950" 
d="M477 1130q-68 0 -109.5 39t-41.5 101q0 59 41.5 97t109.5 38q66 0 109 -38t43 -97q0 -61 -43 -100.5t-109 -39.5zM842 946l-512 -907h151q137 0 216.5 75t111.5 236h33l-13 -350h-766v29l512 907h-159q-124 0 -199 -71.5t-98 -227.5h-31l12 338h742v-29z" />
    <glyph glyph-name="Zcaron" unicode="&#x17d;" horiz-adv-x="1253" 
d="M612 1534l-299 262l21 33l301 -131l301 131l22 -33l-301 -262h-45zM1090 496h45l-15 -496h-1011v37l720 1339h-243q-180 0 -270.5 -100t-118.5 -320h-43l10 465h964v-39l-720 -1339h274q190 0 282 103t126 350z" />
    <glyph glyph-name="zcaron" unicode="&#x17e;" horiz-adv-x="950" 
d="M455 1096l-285 319l23 31l284 -158l285 158l20 -31l-282 -319h-45zM842 975v-29l-512 -907h151q137 0 216.5 75t111.5 236h33l-13 -350h-766v29l512 907h-159q-124 0 -199 -71.5t-98 -227.5h-31l12 338h742z" />
    <glyph glyph-name="fhook" unicode="&#x192;" horiz-adv-x="618" 
d="M748 1528q110 0 164.5 -54t54.5 -139q0 -62 -32.5 -94.5t-82.5 -32.5q-46 0 -74.5 27t-27.5 70q1 42 30.5 69t71.5 27q46 0 74 -35q-9 55 -48.5 87t-105.5 32q-42 0 -76.5 -16.5t-62 -50.5t-49 -77t-40 -105t-32.5 -124t-29 -145h226l-9 -43h-225l-133 -715
q-61 -336 -177.5 -493.5t-293.5 -157.5q-102 0 -155.5 44.5t-53.5 116.5q0 62 33.5 98t81.5 36q45 0 70.5 -25t25.5 -66q0 -43 -27.5 -70.5t-70.5 -27.5q-41 0 -70 29q32 -94 145 -94q40 0 69.5 12t55.5 42.5t45 71t39 111.5t36 149t38 197l137 742h-164l9 43h164
q59 290 180.5 425.5t288.5 135.5z" />
    <glyph glyph-name="uni0237" unicode="&#x237;" horiz-adv-x="593" 
d="M436 975v-1063q0 -80 -22 -142t-56.5 -99.5t-82 -62t-94.5 -33.5t-99 -9q-100 0 -153.5 45t-53.5 121q0 58 31 89.5t78 31.5q46 0 72 -26.5t26 -70.5q0 -42 -27.5 -68t-68.5 -26q-35 0 -60 19q33 -70 121 -70q65 0 102 47t37 141v1135h-139v41h389z" />
    <glyph glyph-name="circumflex" unicode="&#x2c6;" horiz-adv-x="1138" 
d="M549 1442l282 -320l-20 -30l-285 157l-284 -157l-23 30l285 320h45z" />
    <glyph glyph-name="caron" unicode="&#x2c7;" horiz-adv-x="1138" 
d="M811 1446l20 -31l-282 -319h-45l-285 319l23 31l284 -158z" />
    <glyph glyph-name="breve" unicode="&#x2d8;" horiz-adv-x="1138" 
d="M756 1450h39q0 -58 -9 -107.5t-30.5 -93.5t-54 -74.5t-82.5 -48.5t-113 -18q-79 0 -137 26.5t-91 75t-48 108t-15 132.5h39q1 -87 66.5 -132.5t185.5 -45.5q118 0 183.5 45.5t66.5 132.5z" />
    <glyph glyph-name="dotaccent" unicode="&#x2d9;" horiz-adv-x="1138" 
d="M526 1130q-68 0 -109.5 39t-41.5 101q0 59 41.5 97t109.5 38q66 0 109 -38t43 -97q0 -61 -43 -100.5t-109 -39.5z" />
    <glyph glyph-name="ring" unicode="&#x2da;" horiz-adv-x="1138" 
d="M492 1092q-118 0 -190.5 55t-72.5 145q0 92 72.5 147.5t190.5 57.5q117 2 189.5 -54.5t72.5 -150.5q0 -90 -72 -144t-190 -56zM492 1130q61 0 97 43t36 119q0 78 -36 122t-97 44q-60 0 -96 -44t-36 -122q0 -75 36.5 -118.5t95.5 -43.5z" />
    <glyph glyph-name="ogonek" unicode="&#x2db;" horiz-adv-x="1138" 
d="M496 -399q-97 0 -148 43t-51 108q0 55 33.5 91t124.5 79q135 95 270 117v-39q-81 -11 -130.5 -67t-49.5 -154q0 -111 73 -111q39 0 99 31l10 -35q-89 -63 -231 -63z" />
    <glyph glyph-name="tilde" unicode="&#x2dc;" horiz-adv-x="1138" 
d="M872 1393q-11 -238 -192 -238q-45 0 -143 34t-142 34q-46 0 -75.5 -24t-32.5 -66l-41 6q12 237 194 237q48 0 147 -33.5t138 -33.5q45 0 75 24.5t31 65.5z" />
    <glyph glyph-name="hungarumlaut" unicode="&#x2dd;" horiz-adv-x="1138" 
d="M287 1110l157 270q29 79 94 87q51 6 83 -32q37 -43 5 -98q-14 -24 -40 -45l-271 -202zM647 1110l156 270q29 79 93 87q51 6 84 -31q38 -44 6 -99q-14 -24 -40 -45l-270 -202z" />
    <glyph glyph-name="gravecomb" unicode="&#x300;" horiz-adv-x="0" 
d="M-399 1116l-191 262q-41 74 -108 73q-50 -1 -77 -42q-31 -48 9 -99q20 -24 53 -44l287 -176z" />
    <glyph glyph-name="acutecomb" unicode="&#x301;" horiz-adv-x="0" 
d="M-795 1116l191 262q41 74 108 73q50 -1 77 -42q31 -48 -9 -99q-20 -24 -53 -44l-287 -176z" />
    <glyph glyph-name="uni0302" unicode="&#x302;" horiz-adv-x="0" 
d="M-541 1442l283 -320l-21 -30l-284 157l-285 -157l-22 30l284 320h45z" />
    <glyph glyph-name="tildecomb" unicode="&#x303;" horiz-adv-x="0" 
d="M-217 1393q-11 -238 -193 -238q-45 0 -142.5 34t-141.5 34q-46 0 -76 -24t-33 -66l-41 6q12 237 195 237q49 0 147 -33.5t137 -33.5q45 0 75.5 24.5t31.5 65.5z" />
    <glyph glyph-name="uni0304" unicode="&#x304;" horiz-adv-x="0" 
d="M-260 1276v-113h-596v113h596z" />
    <glyph glyph-name="uni0306" unicode="&#x306;" horiz-adv-x="0" 
d="M-334 1450h39q0 -58 -9 -107.5t-30.5 -93.5t-54 -74.5t-82.5 -48.5t-113 -18q-79 0 -137 26.5t-90.5 75t-47.5 108t-15 132.5h38q1 -87 66.5 -132.5t185.5 -45.5q118 0 183.5 45.5t66.5 132.5z" />
    <glyph glyph-name="uni0307" unicode="&#x307;" horiz-adv-x="0" 
d="M-563 1130q-68 0 -110 39t-42 101q0 59 42 97t110 38q66 0 108.5 -38t42.5 -97q0 -61 -42.5 -100.5t-108.5 -39.5z" />
    <glyph glyph-name="uni0308" unicode="&#x308;" horiz-adv-x="0" 
d="M-741 1126q-60 0 -95.5 34.5t-35.5 90.5q0 53 36 88t95 35q57 0 94 -35t37 -88q0 -55 -37 -90t-94 -35zM-350 1126q-61 0 -97 34.5t-36 90.5q0 54 36.5 88.5t96.5 34.5q57 0 93 -35t36 -88q0 -55 -36 -90t-93 -35z" />
    <glyph glyph-name="uni030A" unicode="&#x30a;" horiz-adv-x="0" 
d="M-561 1092q-117 0 -189.5 55t-72.5 145q0 92 72 147.5t190 57.5q117 2 189.5 -54.5t72.5 -150.5q0 -90 -72 -144t-190 -56zM-561 1130q61 0 97 43t36 119q0 78 -36 122t-97 44q-60 0 -95.5 -44t-35.5 -122q0 -76 36 -119t95 -43z" />
    <glyph glyph-name="uni030B" unicode="&#x30b;" horiz-adv-x="0" 
d="M-803 1110l158 270q29 78 92 87q51 7 84 -31q37 -43 6 -98q-15 -24 -41 -46l-270 -202zM-442 1110l155 270q29 78 93 87q51 7 85 -31q38 -43 7 -98q-14 -24 -41 -46l-271 -202z" />
    <glyph glyph-name="uni030C" unicode="&#x30c;" horiz-adv-x="0" 
d="M-279 1446l21 -31l-283 -319h-45l-284 319l22 31l285 -158z" />
    <glyph glyph-name="uni0326" unicode="&#x326;" horiz-adv-x="0" 
d="M-334 -94q54 0 88.5 -35t34.5 -96q0 -88 -59 -166t-152 -105l-14 29q64 23 105.5 68t60.5 100q-26 -16 -64 -16q-52 0 -83.5 31t-31.5 81q0 48 32 78.5t83 30.5z" />
    <glyph glyph-name="uni0327" unicode="&#x327;" horiz-adv-x="0" 
d="M-571 -135q-50 0 -109 -64l-39 19l168 180h53l-90 -96q31 10 86 10q91 0 145 -41t54 -100q0 -80 -70.5 -127t-191.5 -47q-132 0 -193 84l31 26q55 -65 133 -65q109 0 109 114q0 59 -22 83t-64 24z" />
    <glyph glyph-name="uni0328" unicode="&#x328;" horiz-adv-x="0" 
d="M-733 -399q-97 0 -148 43t-51 108q0 55 33.5 91t124.5 79q135 95 270 117v-39q-81 -11 -130.5 -67t-49.5 -154q0 -111 74 -111q38 0 98 31l10 -35q-89 -63 -231 -63z" />
    <glyph glyph-name="uni2009" unicode="&#x2009;" horiz-adv-x="229" 
 />
    <glyph glyph-name="endash" unicode="&#x2013;" horiz-adv-x="1093" 
d="M92 586v55h912v-55h-912z" />
    <glyph glyph-name="emdash" unicode="&#x2014;" horiz-adv-x="1871" 
d="M92 586v55h1688v-55h-1688z" />
    <glyph glyph-name="quoteleft" unicode="&#x2018;" horiz-adv-x="589" 
d="M299 1227q69 0 110.5 -41.5t41.5 -108.5q0 -64 -43 -104.5t-111 -40.5q-71 0 -116.5 47t-45.5 129q0 117 78 220t203 140l18 -38q-86 -32 -141 -91.5t-80 -132.5q40 21 86 21z" />
    <glyph glyph-name="quoteright" unicode="&#x2019;" horiz-adv-x="589" 
d="M293 1446q71 0 116.5 -47t45.5 -129q0 -117 -78 -220.5t-203 -140.5l-18 39q165 62 221 223q-38 -20 -86 -20q-69 0 -110.5 41.5t-41.5 107.5q0 64 43 105t111 41z" />
    <glyph glyph-name="quotesinglbase" unicode="&#x201a;" horiz-adv-x="536" 
d="M276 -244h-20q-121 222 -121 346q0 69 37.5 109.5t95.5 40.5t95.5 -40.5t37.5 -109.5q0 -116 -125 -346z" />
    <glyph glyph-name="quotedblleft" unicode="&#x201c;" horiz-adv-x="995" 
d="M299 1227q69 0 110.5 -41.5t41.5 -108.5q0 -64 -43 -104.5t-111 -40.5q-71 0 -116.5 47t-45.5 129q0 117 78 220t203 140l18 -38q-86 -32 -141 -91.5t-80 -132.5q40 21 86 21zM705 1227q68 0 109.5 -41.5t41.5 -108.5q0 -64 -43 -104.5t-111 -40.5q-71 0 -116 46.5
t-45 129.5q0 117 77.5 220t202.5 140l19 -38q-86 -32 -141.5 -91.5t-80.5 -132.5q40 21 87 21z" />
    <glyph glyph-name="quotedblright" unicode="&#x201d;" horiz-adv-x="997" 
d="M293 1446q71 0 116.5 -47t45.5 -129q0 -117 -78 -220.5t-203 -140.5l-18 39q165 62 221 223q-38 -20 -86 -20q-69 0 -110.5 41.5t-41.5 107.5q0 64 43 105t111 41zM700 1446q71 0 116.5 -47t45.5 -129q0 -117 -77.5 -220.5t-202.5 -140.5l-19 39q165 62 221 223
q-38 -20 -86 -20q-68 0 -109.5 41.5t-41.5 107.5q0 64 42.5 105t110.5 41z" />
    <glyph glyph-name="quotedblbase" unicode="&#x201e;" horiz-adv-x="935" 
d="M276 -244h-20q-121 222 -121 346q0 69 37.5 109.5t95.5 40.5t95.5 -40.5t37.5 -109.5q0 -116 -125 -346zM676 -244h-21q-120 221 -120 346q0 69 37.5 109.5t95.5 40.5t95.5 -40.5t37.5 -109.5q0 -116 -125 -346z" />
    <glyph glyph-name="dagger" unicode="&#x2020;" horiz-adv-x="1085" 
d="M862 987q58 0 94.5 -35.5t36.5 -89.5t-36.5 -88.5t-94.5 -34.5q-45 0 -95.5 25.5t-105 54t-102.5 33.5q3 -179 64.5 -271t195.5 -149v-12q-50 -21 -81 -41t-63 -58.5t-50 -94.5t-34 -145t-23 -213.5t-9 -297.5h-33q-2 148 -8.5 260.5t-16 196.5t-26.5 144t-35 100t-47 69
t-56.5 45.5t-70.5 34.5v12q134 57 195.5 149t64.5 271q-48 -5 -103 -33.5t-105.5 -54t-94.5 -25.5q-59 0 -95 34t-36 89t36 90t95 35q54 0 150.5 -51.5t152.5 -58.5q-1 68 -14 124t-31 92.5t-35.5 68t-30 65t-12.5 67.5q0 70 42.5 107t97.5 37t97 -37t42 -107
q0 -34 -12.5 -67.5t-30 -65t-35.5 -68t-31 -92.5t-14 -124q56 7 152 58.5t151 51.5z" />
    <glyph glyph-name="daggerdbl" unicode="&#x2021;" horiz-adv-x="1085" 
d="M559 895q1 -72 14.5 -129t34.5 -96.5t55.5 -72.5t70 -54.5t85.5 -44.5v-13q-62 -29 -105 -60t-79.5 -77.5t-55.5 -113.5t-20 -156q39 4 82 22.5t74.5 38t71.5 35.5t75 16q59 0 95 -34.5t36 -89.5q0 -53 -36.5 -88t-94.5 -35q-54 0 -150.5 51.5t-152.5 58.5
q1 -60 13.5 -108t30.5 -78.5t36 -57t30.5 -57.5t12.5 -65q0 -70 -42 -107t-97 -37t-97.5 37t-42.5 107q0 35 12 65t29.5 56.5t35.5 57t31 78.5t15 109q-38 -4 -81 -22t-74 -37.5t-71.5 -35t-76.5 -15.5q-59 0 -95 35t-36 88q0 56 35.5 90t95.5 34q35 0 75 -16t71.5 -35.5
t74.5 -38t82 -22.5q-1 88 -20 154.5t-55.5 113.5t-79.5 78.5t-105 60.5v13q63 29 105 58t79.5 74t56 110.5t19.5 154.5q-48 -5 -103 -33.5t-105.5 -54t-94.5 -25.5q-59 0 -95 34t-36 89t36 90t95 35q54 0 150.5 -52.5t152.5 -57.5q-2 61 -15 110t-31 80.5t-35.5 59
t-29.5 58.5t-12 66q0 70 42.5 107t97.5 37t97 -37t42 -107q0 -35 -12.5 -66t-30.5 -59t-36 -59.5t-30.5 -80.5t-13.5 -109q57 6 153.5 58t149.5 52q58 0 94.5 -35.5t36.5 -89.5t-36.5 -88.5t-94.5 -34.5q-44 0 -94.5 25.5t-105.5 54t-103 33.5z" />
    <glyph glyph-name="bullet" unicode="&#x2022;" horiz-adv-x="622" 
d="M309 707q-97 0 -158 58t-61 148q0 92 61 152.5t158 60.5q96 0 158.5 -61t62.5 -152q0 -89 -62 -147.5t-159 -58.5z" />
    <glyph glyph-name="ellipsis" unicode="&#x2026;" horiz-adv-x="1497" 
d="M287 -27q-67 0 -109.5 41t-42.5 103q0 64 42.5 105.5t109.5 41.5t110 -42t43 -105q0 -62 -43 -103t-110 -41zM748 -27q-67 0 -109.5 41t-42.5 103q0 64 42.5 105.5t109.5 41.5t110 -42t43 -105q0 -62 -43 -103t-110 -41zM1206 -27q-67 0 -109 41t-42 103q0 64 42 105.5
t109 41.5t110.5 -42t43.5 -105q0 -62 -43.5 -103t-110.5 -41z" />
    <glyph glyph-name="perthousand" unicode="&#x2030;" horiz-adv-x="2449" 
d="M270 0l1088 1454h63l-1087 -1454h-64zM379 709q-56 0 -112 24t-103.5 68t-77 116t-29.5 160q0 86 29.5 158t77 117t103.5 69.5t112 24.5t112 -24t102.5 -69t75.5 -117t29 -159q0 -88 -29 -160t-76 -116t-102.5 -68t-111.5 -24zM379 737q73 0 107 81.5t34 258.5
q0 175 -34 257.5t-107 82.5t-107 -82.5t-34 -257.5q0 -177 34 -258.5t107 -81.5zM1303 -25q-55 0 -110.5 24.5t-103 69t-77 116.5t-29.5 159t29.5 159t76.5 116.5t102.5 69t111.5 24.5q58 0 114 -24t102.5 -69t75.5 -117t29 -159t-29.5 -159t-76.5 -116.5t-103 -69
t-112 -24.5zM2071 -25q-56 0 -112 24.5t-103.5 69t-77 116.5t-29.5 159t29.5 159t77 116.5t103.5 69t112 24.5t112 -24t102.5 -69t75.5 -117t29 -159t-29 -159t-76 -116.5t-102.5 -69t-111.5 -24.5zM1303 4q73 0 107 82.5t34 257.5t-34 257.5t-107 82.5t-106.5 -82
t-33.5 -258t33.5 -258t106.5 -82zM2071 4q73 0 107 82.5t34 257.5t-34 257.5t-107 82.5t-107.5 -82.5t-34.5 -257.5t34.5 -257.5t107.5 -82.5z" />
    <glyph glyph-name="guilsinglleft" unicode="&#x2039;" horiz-adv-x="780" 
d="M334 631q91 -45 194 -173.5t146 -248.5l-29 -21q-100 157 -250 276t-291 148v37q143 35 293 152.5t248 271.5l29 -20q-43 -120 -146 -248.5t-194 -173.5z" />
    <glyph glyph-name="guilsinglright" unicode="&#x203a;" horiz-adv-x="780" 
d="M135 1073q98 -154 248 -271.5t293 -152.5v-37q-141 -29 -291 -148t-250 -276l-29 21q43 120 146 248.5t194 173.5q-91 45 -194 173.5t-146 248.5z" />
    <glyph glyph-name="fraction" unicode="&#x2044;" horiz-adv-x="178" 
d="M-485 0l1087 1454h64l-1088 -1454h-63z" />
    <glyph glyph-name="uni20A9" unicode="&#x20a9;" horiz-adv-x="2074" 
d="M1647 1421h473v-43h-41q-81 0 -131.5 -52.5t-71.5 -131.5l-55 -203h198v-45h-211l-96 -344h264v-45h-276l-156 -567h-194l-164 567h-268l-142 -567h-196l-172 567h-285v45h270l-104 342h-223v45h208l-118 389h-148v43h578v-43h-148l115 -389h410l45 182l-60 207h-127v43
h557v-43h-147l106 -387h420l58 213q19 67 -13 120.5t-112 53.5h-43v43zM928 602h246l-134 457zM1651 602l94 344h-395l94 -344h207zM565 944l103 -342h200l84 342h-387zM776 229l80 328h-176zM1548 227l90 330h-180z" />
    <glyph glyph-name="Euro" unicode="&#x20ac;" horiz-adv-x="1312" 
d="M1143 492h41v-508h-37q-22 82 -88 82q-26 0 -59.5 -14t-64.5 -31.5t-85.5 -31.5t-116.5 -14q-101 0 -198.5 36.5t-183.5 106t-148 184t-84 257.5h-189l23 43h162q-6 52 -6 111q0 78 8 135h-187l23 45h172q25 136 86.5 244.5t144.5 174.5t178 100t193 34q62 0 117 -14
t86.5 -31t65 -31t59.5 -14q65 0 84 82h39v-498h-41q-35 214 -138.5 332.5t-226.5 118.5q-145 0 -241 -125.5t-123 -372.5h530l-23 -45h-512q-4 -86 -4 -135q0 -41 4 -111h535l-23 -43h-509q24 -261 121.5 -394.5t244.5 -133.5q60 0 118.5 31.5t109 88.5t89 145.5t54.5 195.5
z" />
    <glyph glyph-name="uni2116" unicode="&#x2116;" horiz-adv-x="2535" 
d="M1989 1444q86 0 169.5 -32t153 -91.5t112 -154.5t42.5 -210t-42.5 -210t-111.5 -154.5t-152.5 -92t-170.5 -32.5q-85 0 -169 32.5t-154 91.5t-113.5 154.5t-43.5 210.5t43.5 210t113.5 154.5t153.5 91.5t169.5 32zM958 1378v43h463v-43h-49q-63 0 -109 -47t-46 -135
v-1219h-170l-734 1299v-1040q0 -96 45 -144.5t119 -48.5h47v-43h-475v43h47q69 0 114.5 49t45.5 144v1015q0 69 -26.5 98t-92.5 29h-71v43h471l624 -1071v846q0 89 -44 135.5t-109 46.5h-50zM1989 510q101 0 155 110.5t54 335.5t-54 335t-155 110q-100 0 -155.5 -110.5
t-55.5 -334.5t55.5 -335t155.5 -111zM1991 264q67 0 110 -42t43 -105q0 -62 -43 -103t-110 -41t-109.5 41t-42.5 103q0 64 42.5 105.5t109.5 41.5z" />
    <glyph glyph-name="uni2117" unicode="&#x2117;" horiz-adv-x="1673" 
d="M836 1438q205 0 371.5 -91.5t263 -259t96.5 -380.5q0 -160 -56.5 -297t-154 -232t-232.5 -149t-288 -54q-204 0 -370.5 91.5t-264 259.5t-97.5 381q0 160 57 297t155 232t233 148.5t287 53.5zM836 27q183 0 334.5 83t243 239.5t91.5 357.5q0 151 -53.5 279.5t-144 215
t-213 135.5t-258.5 49q-135 0 -257 -49t-213 -135.5t-144.5 -215t-53.5 -279.5q0 -200 91.5 -357t243.5 -240t333 -83zM903 1085q143 0 219 -56t76 -169q0 -115 -77 -178.5t-214 -63.5h-116v-272h127v-31h-406v31h102v711h-102v28h391zM872 649q74 0 108 47t34 162
q0 113 -33.5 156t-108.5 43h-81v-408h81z" />
    <glyph glyph-name="trademark" unicode="&#x2122;" horiz-adv-x="1718" 
d="M143 1421h553l9 -262h-23q-16 101 -61 168.5t-111 67.5h-18v-580h104v-27h-352v27h104v580h-16q-68 0 -113 -67.5t-61 -168.5h-23zM1550 1395q-19 0 -30 -11.5t-11 -31.5v-537h74v-27h-293v27h76v545l-219 -582h-21l-239 572v-416q0 -59 21 -89t55 -30h22v-27h-231v27h22
q32 0 53 30.5t21 88.5v397q0 35 -12 49.5t-43 14.5h-33v26h250l174 -426l164 426h233v-26h-33z" />
    <glyph glyph-name="uni2153" unicode="&#x2153;" horiz-adv-x="1359" 
d="M1161 1454h64l-1088 -1454h-63zM227 1358q-46 -37 -104 -47l-4 24q78 21 164 107h102v-694h90v-27h-338v27h90v610zM1079 352q228 -15 228 -176q0 -99 -80 -150t-203 -51q-116 0 -179 45t-63 115q0 43 23 68.5t63 25.5q36 0 59 -20t23 -51t-23 -51.5t-55 -20.5
q-34 0 -53 25q12 -44 52 -68.5t98 -24.5q74 0 114.5 40.5t40.5 119.5q0 158 -176 158h-30v33h30q77 0 119.5 46t42.5 122q0 137 -133 137q-52 0 -88.5 -23.5t-48.5 -68.5q18 18 51 18t53.5 -19t20.5 -49q0 -31 -20.5 -51t-55.5 -20q-39 0 -62.5 23t-23.5 67q0 72 62 117
t173 45q105 0 173.5 -42t68.5 -128q0 -76 -54 -126.5t-147 -64.5z" />
    <glyph glyph-name="uni2154" unicode="&#x2154;" horiz-adv-x="1417" 
d="M1219 1454h63l-1087 -1454h-64zM412 709q-41 0 -77 17t-57 37t-50 37t-58 17q-37 0 -63 -26t-37 -70h-31q0 73 18 131t46.5 96t62.5 69t68.5 56.5t63 51.5t46.5 62.5t18 80.5q0 66 -37.5 99.5t-99.5 33.5q-56 0 -95 -25.5t-54 -72.5q22 22 57 22t57.5 -20.5t22.5 -55.5
q0 -34 -24 -54.5t-62 -20.5q-40 0 -64 25.5t-24 70.5q0 76 66 126t184 50q69 0 122.5 -16t91.5 -59.5t38 -110.5q0 -55 -23 -95t-61 -63.5t-84 -43t-94.5 -40t-90.5 -47t-73.5 -72.5t-42.5 -108q49 108 174 108q42 0 106 -20.5t103 -20.5q94 0 94 84h26q0 -47 -7.5 -85.5
t-25 -73.5t-51 -54.5t-79.5 -19.5zM1137 352q227 -15 227 -176q0 -99 -80 -150t-203 -51q-116 0 -178.5 44.5t-62.5 115.5q0 43 23 68.5t63 25.5q36 0 59 -20t23 -51t-23 -51.5t-55 -20.5q-31 0 -51 23q12 -43 51 -67t96 -24q74 0 115 41t41 119q0 158 -176 158h-31v33h31
q77 0 119 45.5t42 122.5q0 137 -133 137q-52 0 -88.5 -23.5t-48.5 -68.5q18 18 53 18q31 0 51.5 -19t20.5 -49q0 -31 -21 -51t-57 -20q-37 0 -60.5 23t-23.5 67q0 72 62.5 117t173.5 45q105 0 173 -42t68 -128q0 -76 -53.5 -126.5t-146.5 -64.5z" />
    <glyph glyph-name="oneeighth" unicode="&#x215b;" horiz-adv-x="1368" 
d="M1161 1454h64l-1088 -1454h-63zM227 1358q-46 -37 -104 -47l-4 24q78 21 164 107h102v-694h90v-27h-338v27h90v610zM1124 408q36 -21 49.5 -29.5t43.5 -29t43.5 -35.5t31 -37t24.5 -46.5t7 -52.5q0 -89 -69.5 -146t-198.5 -57q-120 0 -196.5 45.5t-76.5 129.5
q0 125 191 174q-73 49 -113.5 96.5t-40.5 114.5q0 83 64.5 130.5t169.5 47.5q101 0 166 -38.5t65 -111.5q0 -58 -45.5 -98.5t-114.5 -56.5zM1055 684q-48 0 -73.5 -28t-25.5 -68q0 -51 36.5 -87.5t107.5 -78.5q59 59 59 139q0 123 -104 123zM1055 4q60 0 91.5 32t31.5 79
q0 29 -12.5 54.5t-38 48t-50.5 39.5t-62 40q-13 8 -20 12q-69 -56 -69 -155q0 -150 129 -150z" />
    <glyph glyph-name="threeeighths" unicode="&#x215c;" horiz-adv-x="1429" 
d="M1223 1454h63l-1087 -1454h-64zM567 909q0 -99 -78.5 -149.5t-203.5 -50.5q-116 0 -178 44.5t-62 114.5q0 43 23 68t63 25q35 0 57.5 -20t22.5 -52q0 -31 -21.5 -50.5t-54.5 -19.5t-53 23q12 -44 51.5 -68t95.5 -24q76 0 116 40t40 119q0 158 -174 158h-33v33h33
q76 0 118 46.5t42 123.5q0 135 -133 135q-53 0 -89.5 -23t-48.5 -67q18 18 54 18q31 0 52 -19.5t21 -49.5t-21 -50t-56 -20q-39 0 -63 23t-24 67q0 72 62.5 117t175.5 45q104 0 173 -42.5t69 -127.5q0 -76 -55 -126.5t-148 -64.5q227 -18 227 -176zM1188 408
q41 -24 59 -35.5t51 -36.5t47.5 -44.5t27.5 -50t13 -63.5q0 -89 -70 -146t-200 -57q-120 0 -196 45.5t-76 129.5q0 67 47.5 108.5t142.5 67.5q-71 45 -111 93.5t-40 115.5q0 84 63.5 131t169.5 47q100 0 165 -38.5t65 -111.5q0 -58 -44.5 -98.5t-113.5 -56.5zM1118 684
q-49 0 -74.5 -28t-25.5 -68q0 -51 36 -87.5t107 -78.5q60 60 60 139q0 123 -103 123zM1116 4q60 0 91.5 32t31.5 79q0 30 -12 55.5t-43 52t-49 38.5t-65 41q-3 2 -5.5 3.5t-5.5 3.5q-72 -56 -72 -155q0 -150 129 -150z" />
    <glyph glyph-name="fiveeighths" unicode="&#x215d;" horiz-adv-x="1413" 
d="M1206 1454h64l-1088 -1454h-63zM563 958q0 -122 -76 -185.5t-204 -63.5q-113 0 -176.5 47.5t-63.5 120.5q0 48 23.5 72t62.5 24q36 0 59 -19.5t23 -52.5q0 -35 -22.5 -55.5t-57.5 -20.5q-25 0 -45 13q14 -39 50 -62.5t87 -23.5q74 0 116 49t42 147q0 92 -35.5 139.5
t-97.5 47.5q-79 0 -129 -78l-29 2l29 381q89 -17 200 -17q119 0 209 19q-2 -75 -47.5 -109.5t-144.5 -34.5q-94 0 -193 21l-18 -219q71 82 203 82q45 0 85 -11.5t74.5 -36t55 -70t20.5 -106.5zM1169 408q36 -21 49.5 -29.5t43.5 -29t43.5 -35.5t31 -37t24.5 -46.5t7 -52.5
q0 -89 -69 -146t-199 -57q-119 0 -195 45.5t-76 129.5q0 67 47.5 108.5t141.5 67.5q-72 46 -112 94t-40 115q0 83 64 130.5t170 47.5q100 0 164.5 -38.5t64.5 -111.5q0 -58 -45.5 -98.5t-114.5 -56.5zM1102 684q-49 0 -75 -28t-26 -68q0 -51 36.5 -87.5t107.5 -78.5
q59 59 59 139q0 123 -102 123zM1100 4q60 0 91.5 32t31.5 79q0 30 -12.5 55.5t-41.5 50.5t-49.5 39t-64.5 41q-9 5 -13 8q-71 -55 -71 -155q0 -150 129 -150z" />
    <glyph glyph-name="seveneighths" unicode="&#x215e;" horiz-adv-x="1349" 
d="M1143 1454h63l-1087 -1454h-64zM100 1309v-88h-30v213h473v-17q-116 -166 -176.5 -331t-63.5 -365h-164q1 65 19.5 132.5t40.5 116t61.5 108.5t62.5 89.5t66 80.5t51 61h-340zM1108 408q36 -21 49.5 -29.5t43.5 -29t43.5 -35.5t31 -37t24.5 -46.5t7 -52.5
q0 -89 -70.5 -146t-200.5 -57q-119 0 -194.5 45t-75.5 130q0 67 47.5 108.5t140.5 67.5q-71 45 -111 93.5t-40 115.5q0 84 63.5 131t169.5 47q100 0 165 -38.5t65 -111.5q0 -58 -44.5 -98.5t-113.5 -56.5zM1038 684q-49 0 -74.5 -28t-25.5 -68q0 -51 36 -87.5t107 -78.5
q60 60 60 139q0 123 -103 123zM1036 4q60 0 91.5 32t31.5 79q0 30 -12 55.5t-43 52t-49 38.5t-65 41q-7 5 -11 7q-72 -56 -72 -155q0 -150 129 -150z" />
    <glyph glyph-name="arrowleft" unicode="&#x2190;" horiz-adv-x="1734" 
d="M602 102q19 -62 50 -95.5t87 -33.5q58 0 89.5 35t31.5 94q0 60 -48 134t-130 146.5t-201 139.5t-250 109q196 -12 399 -43.5t335 -62.5t251 -55t173 -24q97 0 153.5 54.5t56.5 146.5q0 91 -56.5 145t-153.5 54q-55 0 -173 -25t-248.5 -56.5t-331.5 -63.5t-396 -44
q130 42 248 108.5t198 138.5t127 145.5t47 132.5t-31.5 93t-89.5 34q-56 0 -87 -32t-50 -95q-32 -99 -82 -190t-114.5 -165.5t-146.5 -118.5t-167 -44v-46q113 0 217.5 -75t177 -189.5t115.5 -251.5z" />
    <glyph glyph-name="arrowup" unicode="&#x2191;" horiz-adv-x="1605" 
d="M264 993q-62 -19 -95.5 -50t-33.5 -87q0 -58 35 -89.5t94 -31.5q60 0 134 48t146.5 130t139.5 201t109 250q-12 -196 -43.5 -399t-62.5 -334.5t-55 -250.5t-24 -173q0 -97 54.5 -154t146.5 -57q91 0 145 57t54 154q0 55 -25 173t-56.5 248.5t-63.5 331.5t-44 396
q83 -260 241.5 -440.5t282.5 -180.5q59 0 93 31.5t34 89.5q0 56 -32 87t-95 50q-99 32 -190 82t-165.5 114.5t-118.5 146.5t-44 167h-45q0 -113 -75 -217.5t-189.5 -177t-251.5 -115.5z" />
    <glyph glyph-name="arrowright" unicode="&#x2192;" horiz-adv-x="1734" 
d="M1133 1182q25 -79 61.5 -153t85.5 -140.5t104.5 -116.5t122 -79t135.5 -29v-46q-85 0 -166.5 -43t-146 -116t-115 -164.5t-81.5 -192.5q-19 -62 -50.5 -95.5t-87.5 -33.5q-58 0 -89.5 35t-31.5 94q0 60 48 134t130 146.5t201 139.5t250 109q-196 -12 -399 -43.5
t-334.5 -62.5t-250.5 -55t-173 -24q-97 0 -154 54.5t-57 146.5q0 91 57 145t154 54q55 0 173 -25t248.5 -56.5t331.5 -63.5t396 -44q-260 83 -440.5 242t-180.5 283q0 59 31.5 93t89.5 34q56 0 87.5 -32.5t50.5 -94.5z" />
    <glyph glyph-name="minus" unicode="&#x2212;" horiz-adv-x="1161" 
d="M1055 588h-951v53h951v-53z" />
    <glyph glyph-name="approxequal" unicode="&#x2248;" horiz-adv-x="1335" 
d="M1231 754q-55 26 -79 37t-83 24.5t-123 13.5q-72 0 -144 -12.5t-123.5 -28t-133 -28t-172.5 -12.5q-62 0 -118 14t-75 23.5t-74 37.5v54q1 0 22 -11.5t24.5 -12.5t23 -10.5t27 -12t26.5 -9t32 -8.5t32.5 -6t39 -5t40.5 -1q110 0 207 20.5t186 41t180 20.5q61 0 121 -14
t83.5 -24t80.5 -36v-55zM1231 389h-1127v53h1127v-53zM1231 2h-1127v53h1127v-53z" />
    <glyph glyph-name="notequal" unicode="&#x2260;" horiz-adv-x="1212" 
d="M1090 729h-330l-281 -401h611v-56h-650l-209 -297l-45 31l187 266h-252v56h291l280 401h-571v55h610l223 318l45 -31l-200 -287h291v-55z" />
    <glyph glyph-name="lessequal" unicode="&#x2264;" horiz-adv-x="1130" 
d="M983 315v-61l-836 307v51l836 301v-57l-756 -266zM145 53h848v-53h-848v53z" />
    <glyph glyph-name="greaterequal" unicode="&#x2265;" horiz-adv-x="1130" 
d="M991 612v-51l-835 -307v61l755 275l-755 266v57zM145 53h848v-53h-848v53z" />
    <glyph glyph-name="uni261C" unicode="&#x261c;" horiz-adv-x="3213" 
d="M2177 1272q-101 62 -199 101t-260 66t-372 27q-187 0 -340.5 -7t-326 -26.5t-324.5 -60t-273 -100.5q-12 -6 -26.5 -35t-14.5 -63q0 -84 75 -138.5t224 -54.5q152 0 199 33q32 -13 86 -13q-4 -20 -4 -49q0 -51 65 -105t176 -54q-3 -29 12.5 -58t49.5 -45q-25 -25 -25 -98
q0 -62 41.5 -117.5t83.5 -73.5q-10 -13 -10 -57q0 -103 96.5 -175.5t245.5 -72.5q86 0 194.5 -13t223.5 -13q106 0 204.5 44.5t147.5 88.5q620 -294 979 -469l6 8l-299 487l246 185v8l-303 248l309 309v6l-279 182l307 531l-6 6zM2429 772q0 283 -170 445l616 286l-227 -375
l254 -159l-301 -303l299 -238l-229 -178l204 -309l-675 321q30 28 63 69.5t73.5 107.5t66.5 154t26 179zM1249 1372q-117 -35 -281 -122.5t-184 -116.5q-17 -9 -48.5 -24t-57.5 -30q-45 -5 -93.5 6t-58.5 11q-12 0 -26 -6t-27.5 -13.5t-48 -13.5t-82.5 -6q-101 0 -167 32.5
t-66 71.5q0 57 22 64q413 153 907 153q106 0 211 -6zM2327 889q0 -37 -14 -73t-43.5 -69.5t-86 -54t-131.5 -20.5q-106 0 -223 45.5t-222.5 131.5t-168.5 193q-11 19 -33.5 39.5t-34.5 20.5q-24 0 -24 -31q0 -4 6 -13.5t8.5 -14.5t-4.5 -11q-2 -1 -16 -9t-29 -15.5t-34 -16
t-39.5 -13.5t-37.5 -5q-36 0 -76 7t-41 7q-7 0 12 -17q15 -12 9 -12q-4 0 -52.5 -22t-107.5 -44t-88 -22q-65 0 -115.5 27t-50.5 74q0 37 46 71.5t75 34.5q74 0 74 -59q0 -17 10 -17t17.5 17t7.5 49q0 31 -7 42.5t-22 16.5q20 26 156.5 90.5t205.5 90.5q183 69 344 69
q108 0 236 -40.5t237.5 -105t183 -156.5t73.5 -185zM956 776q0 19 7 33q28 8 80.5 34t78.5 42q33 0 94 -41t72 -41q6 0 40.5 7t90.5 7q66 0 118 -42t52 -77q0 -32 -20.5 -54.5t-57.5 -22.5q-47 0 -84.5 12.5t-56 24.5t-20.5 12q-3 0 -8.5 -10t-22.5 -20.5t-47 -10.5
q-26 0 -81 5t-79 13q-29 9 -92.5 60.5t-63.5 68.5zM2343 707q-19 -108 -65 -199.5t-101.5 -149.5t-117.5 -99.5t-112.5 -59t-86.5 -17.5q-62 0 -90.5 24t-28.5 48q0 107 268 158q28 5 41.5 10t17.5 8t-4.5 7.5t-17.5 7.5t-29 8q-106 27 -211 102.5t-145 128.5
q-28 36 -18.5 40.5t40.5 -19.5q28 -21 71 -44t126.5 -48t165.5 -25q191 0 297 119zM987 598q0 12 8.5 20.5t20.5 8.5q42 -47 134 -68.5t202 -21.5q18 0 58 11t63 11q27 0 56.5 -6.5t56 -26t26.5 -47.5q0 -51 -33.5 -69.5t-93.5 -18.5q-31 0 -54 6.5t-35.5 13.5t-15.5 7
q-6 0 -12.5 -12.5t-13.5 -12.5q-100 0 -142 8q-78 15 -163 82q-62 49 -62 115zM1114 381q55 -30 156.5 -49t154.5 -19q28 0 87 6.5t79 6.5q34 0 63 -24.5t29 -57.5t-26 -51.5t-70 -18.5q-34 0 -75 16l-42 17q-4 0 -10 -9.5t-22 -19.5t-43 -10q-32 0 -87.5 9.5t-101.5 31.5
q-50 24 -78 66.5t-28 86.5q0 19 14 19z" />
    <glyph glyph-name="uni261E" unicode="&#x261e;" horiz-adv-x="3213" 
d="M1036 1272q154 95 340.5 144.5t491.5 49.5q187 0 340.5 -7t325.5 -26.5t324 -60t273 -100.5q12 -6 26.5 -35t14.5 -63q0 -84 -75 -138.5t-224 -54.5q-151 0 -198 33q-33 -13 -86 -13q4 -20 4 -49q0 -51 -65.5 -105t-176.5 -54q3 -29 -12 -58t-49 -45q24 -24 24 -98
q0 -62 -41.5 -117.5t-83.5 -73.5q11 -15 11 -57q0 -103 -96.5 -175.5t-245.5 -72.5q-86 0 -194.5 -13t-223.5 -13q-106 0 -205.5 44.5t-147.5 88.5q-582 -276 -978 -469l-7 8l299 487l-245 185v8l303 248l-309 309v6l278 182l-307 531l6 6zM784 772q0 283 170 445l-616 286
l227 -375l-254 -159l301 -303l-299 -238l230 -178l-205 -309l676 321q-30 28 -63 69.5t-74 107.5t-67 154t-26 179zM1964 1372q117 -35 281 -122.5t184 -116.5q17 -9 48.5 -24t57.5 -30q45 -5 93.5 6t58.5 11q12 0 26 -6t27.5 -13.5t48 -13.5t82.5 -6q101 0 167.5 32.5
t66.5 71.5q0 56 -23 64q-413 153 -907 153q-106 0 -211 -6zM887 889q0 -38 14 -73.5t43.5 -69t85.5 -54t131 -20.5q163 0 342 104.5t273 265.5q11 19 33 39.5t34 20.5q25 0 25 -31q0 -4 -6 -13.5t-8.5 -14.5t4.5 -11q2 -1 16 -9t28.5 -15.5t33.5 -16t39.5 -13.5t37.5 -5
q36 0 76 7t41 7q7 0 -12 -17q-15 -12 -9 -12q3 0 52 -22t108 -44t88 -22q65 0 115.5 27t50.5 74q0 37 -46 71.5t-75 34.5q-73 0 -73 -59q0 -17 -11 -17q-10 0 -17 17t-7 49q0 31 7 42.5t21 16.5q-20 26 -156.5 90.5t-205.5 90.5q-183 69 -344 69q-108 0 -235.5 -40.5
t-237 -105t-183 -156.5t-73.5 -185zM2257 776q0 21 -6 33q-28 8 -81 34t-79 42q-33 0 -94 -41t-72 -41q-6 0 -40.5 7t-90.5 7q-66 0 -118 -42t-52 -77q0 -32 20.5 -54.5t57.5 -22.5q47 0 84.5 12.5t56.5 24.5t21 12q3 0 8.5 -10t22.5 -20.5t47 -10.5q26 0 80.5 5t78.5 13
q29 9 92.5 60.5t63.5 68.5zM870 707q19 -108 65 -199.5t102 -149.5t118 -99.5t112.5 -59t86.5 -17.5q62 0 90.5 24t28.5 48q0 106 -269 158q-28 5 -41.5 10t-17.5 8t4.5 7.5t17.5 7.5t29 8q106 27 211 102.5t145 128.5q28 36 18.5 40.5t-40.5 -19.5q-28 -21 -71 -44
t-126.5 -48t-165.5 -25q-191 0 -297 119zM2226 598q0 12 -8 20.5t-20 8.5q-42 -47 -134 -68.5t-202 -21.5q-18 0 -58 11t-63 11q-27 0 -56.5 -6.5t-56 -26t-26.5 -47.5q0 -51 33.5 -69.5t93.5 -18.5q31 0 54 6.5t35 13.5t15 7q6 0 13 -12.5t14 -12.5q99 0 141 8
q79 15 164 82q61 48 61 115zM2099 381q-55 -30 -156.5 -49t-154.5 -19q-28 0 -87 6.5t-79 6.5q-34 0 -63 -24.5t-29 -57.5t26 -51.5t70 -18.5q34 0 76 16l41 17q4 0 10.5 -9.5t22.5 -19.5t43 -10q32 0 87 9.5t101 31.5q50 24 78.5 67t28.5 86q0 19 -15 19z" />
    <glyph glyph-name="uniE000" unicode="&#xe000;" horiz-adv-x="2633" 
d="M1985 430v27q0 58 55 97.5t125 39.5q94 0 149.5 -57t55.5 -158q0 -142 -122.5 -229t-334.5 -87q-118 0 -238 27q-260 -344 -581 -344q-148 0 -242 79.5t-94 213.5q0 87 64.5 157t144.5 70q42 0 75 -26q16 -3 34 -23.5t18 -38.5v-22q-5 -36 -37 -68.5t-68 -32.5
q-44 0 -66 30.5t-22 70.5q0 27 14 47q-38 -8 -66 -57t-28 -113q0 -94 63 -155.5t173 -61.5q117 0 197 76t180 268q-125 49 -354.5 158.5t-338.5 150.5q-191 -258 -460 -258q-116 0 -168 43t-52 113q0 29 14.5 61.5t50.5 67.5t89.5 63t139 46t190.5 18h47q82 175 145 376l4 7
q-81 13 -143.5 39t-99.5 57.5t-60.5 70.5t-32 73.5t-8.5 70.5q0 115 91 190.5t217 75.5q54 0 87 -29.5t33 -76.5v-4q-3 -45 -35.5 -78t-68.5 -33q-43 0 -70 32.5t-22 78.5q0 23 35 67q-72 0 -145 -67t-73 -156q0 -204 312 -273q65 172 150 309.5t172.5 222t174 129
t164.5 44.5q73 0 115.5 -54.5t42.5 -160.5q0 -121 -73 -233.5t-196.5 -190t-269.5 -104.5q-136 -306 -202 -412q180 -39 338 -107t335 -168q42 120 103 232q66 165 182 323q-162 52 -313 52q-152 0 -240 -57.5t-88 -157.5q0 -64 53.5 -105t126.5 -41q91 0 144 55t36 128h-4
q0 -10 -11.5 -27t-22.5 -21q-32 -29 -72 -27.5t-66 27.5q-26 32 -23 67.5t36 61.5q27 19 69 19q58 0 95.5 -32.5t37.5 -84.5q0 -68 -36 -117t-84 -69.5t-99 -20.5q-99 0 -166 56t-67 163q0 135 139 236.5t352 101.5q171 0 338 -53q70 67 140.5 116t105.5 65l35 16l10 -25
q-35 -24 -65 -72t-68 -129q23 -10 113 -10q88 0 158 20.5t114.5 65t44.5 107.5q0 130 -121.5 210.5t-304.5 80.5q-213 0 -297 -115h12q35 0 61.5 -23t26.5 -57q0 -55 -31.5 -84t-76.5 -29q-41 0 -66.5 27.5t-21.5 67.5q0 92 114.5 171.5t278.5 79.5q220 0 350.5 -97.5
t130.5 -248.5q0 -67 -31 -130.5t-88 -114.5t-147 -82t-197 -31q-65 0 -106 10q-18 -46 -51.5 -136.5t-64.5 -168t-62 -141.5q-6 -20 -16.5 -43.5t-19 -39t-23 -41.5t-19.5 -36q174 -72 285 -72q121 0 205.5 75.5t84.5 164.5q0 98 -67 145.5t-146 22.5q43 -21 56 -72
q15 -44 -5 -78t-69 -41q-39 -15 -68.5 7t-37.5 67zM1049 1051q94 22 181 68.5t154.5 111.5t107.5 150.5t40 177.5q0 78 -25.5 109.5t-56.5 31.5q-33 0 -69 -26.5t-84.5 -93.5t-111.5 -201t-136 -328zM551 530q-50 7 -121 7q-130 0 -229 -51t-99 -119q0 -52 37 -80.5
t107 -28.5q97 0 167 63t138 209z" />
    <glyph glyph-name="uniF6C3" unicode="&#xf6c3;" horiz-adv-x="2633" 
d="M1985 430v27q0 58 55 97.5t125 39.5q94 0 149.5 -57t55.5 -158q0 -142 -122.5 -229t-334.5 -87q-118 0 -238 27q-260 -344 -581 -344q-148 0 -242 79.5t-94 213.5q0 87 64.5 157t144.5 70q42 0 75 -26q16 -3 34 -23.5t18 -38.5v-22q-5 -36 -37 -68.5t-68 -32.5
q-44 0 -66 30.5t-22 70.5q0 27 14 47q-38 -8 -66 -57t-28 -113q0 -94 63 -155.5t173 -61.5q117 0 197 76t180 268q-125 49 -354.5 158.5t-338.5 150.5q-191 -258 -460 -258q-116 0 -168 43t-52 113q0 29 14.5 61.5t50.5 67.5t89.5 63t139 46t190.5 18h47q82 175 145 376l4 7
q-81 13 -143.5 39t-99.5 57.5t-60.5 70.5t-32 73.5t-8.5 70.5q0 115 91 190.5t217 75.5q54 0 87 -29.5t33 -76.5v-4q-3 -45 -35.5 -78t-68.5 -33q-43 0 -70 32.5t-22 78.5q0 23 35 67q-72 0 -145 -67t-73 -156q0 -204 312 -273q65 172 150 309.5t172.5 222t174 129
t164.5 44.5q73 0 115.5 -54.5t42.5 -160.5q0 -121 -73 -233.5t-196.5 -190t-269.5 -104.5q-136 -306 -202 -412q180 -39 338 -107t335 -168q42 120 103 232q66 165 182 323q-162 52 -313 52q-152 0 -240 -57.5t-88 -157.5q0 -64 53.5 -105t126.5 -41q91 0 144 55t36 128h-4
q0 -10 -11.5 -27t-22.5 -21q-32 -29 -72 -27.5t-66 27.5q-26 32 -23 67.5t36 61.5q27 19 69 19q58 0 95.5 -32.5t37.5 -84.5q0 -68 -36 -117t-84 -69.5t-99 -20.5q-99 0 -166 56t-67 163q0 135 139 236.5t352 101.5q171 0 338 -53q70 67 140.5 116t105.5 65l35 16l10 -25
q-35 -24 -65 -72t-68 -129q23 -10 113 -10q88 0 158 20.5t114.5 65t44.5 107.5q0 130 -121.5 210.5t-304.5 80.5q-213 0 -297 -115h12q35 0 61.5 -23t26.5 -57q0 -55 -31.5 -84t-76.5 -29q-41 0 -66.5 27.5t-21.5 67.5q0 92 114.5 171.5t278.5 79.5q220 0 350.5 -97.5
t130.5 -248.5q0 -67 -31 -130.5t-88 -114.5t-147 -82t-197 -31q-65 0 -106 10q-18 -46 -51.5 -136.5t-64.5 -168t-62 -141.5q-6 -20 -16.5 -43.5t-19 -39t-23 -41.5t-19.5 -36q174 -72 285 -72q121 0 205.5 75.5t84.5 164.5q0 98 -67 145.5t-146 22.5q43 -21 56 -72
q15 -44 -5 -78t-69 -41q-39 -15 -68.5 7t-37.5 67zM1049 1051q94 22 181 68.5t154.5 111.5t107.5 150.5t40 177.5q0 78 -25.5 109.5t-56.5 31.5q-33 0 -69 -26.5t-84.5 -93.5t-111.5 -201t-136 -328zM551 530q-50 7 -121 7q-130 0 -229 -51t-99 -119q0 -52 37 -80.5
t107 -28.5q97 0 167 63t138 209z" />
    <glyph glyph-name="uniF8FF" unicode="&#xf8ff;" horiz-adv-x="2633" 
d="M1985 430v27q0 58 55 97.5t125 39.5q94 0 149.5 -57t55.5 -158q0 -142 -122.5 -229t-334.5 -87q-118 0 -238 27q-260 -344 -581 -344q-148 0 -242 79.5t-94 213.5q0 87 64.5 157t144.5 70q42 0 75 -26q16 -3 34 -23.5t18 -38.5v-22q-5 -36 -37 -68.5t-68 -32.5
q-44 0 -66 30.5t-22 70.5q0 27 14 47q-38 -8 -66 -57t-28 -113q0 -94 63 -155.5t173 -61.5q117 0 197 76t180 268q-125 49 -354.5 158.5t-338.5 150.5q-191 -258 -460 -258q-116 0 -168 43t-52 113q0 29 14.5 61.5t50.5 67.5t89.5 63t139 46t190.5 18h47q82 175 145 376l4 7
q-81 13 -143.5 39t-99.5 57.5t-60.5 70.5t-32 73.5t-8.5 70.5q0 115 91 190.5t217 75.5q54 0 87 -29.5t33 -76.5v-4q-3 -45 -35.5 -78t-68.5 -33q-43 0 -70 32.5t-22 78.5q0 23 35 67q-72 0 -145 -67t-73 -156q0 -204 312 -273q65 172 150 309.5t172.5 222t174 129
t164.5 44.5q73 0 115.5 -54.5t42.5 -160.5q0 -121 -73 -233.5t-196.5 -190t-269.5 -104.5q-136 -306 -202 -412q180 -39 338 -107t335 -168q42 120 103 232q66 165 182 323q-162 52 -313 52q-152 0 -240 -57.5t-88 -157.5q0 -64 53.5 -105t126.5 -41q91 0 144 55t36 128h-4
q0 -10 -11.5 -27t-22.5 -21q-32 -29 -72 -27.5t-66 27.5q-26 32 -23 67.5t36 61.5q27 19 69 19q58 0 95.5 -32.5t37.5 -84.5q0 -68 -36 -117t-84 -69.5t-99 -20.5q-99 0 -166 56t-67 163q0 135 139 236.5t352 101.5q171 0 338 -53q70 67 140.5 116t105.5 65l35 16l10 -25
q-35 -24 -65 -72t-68 -129q23 -10 113 -10q88 0 158 20.5t114.5 65t44.5 107.5q0 130 -121.5 210.5t-304.5 80.5q-213 0 -297 -115h12q35 0 61.5 -23t26.5 -57q0 -55 -31.5 -84t-76.5 -29q-41 0 -66.5 27.5t-21.5 67.5q0 92 114.5 171.5t278.5 79.5q220 0 350.5 -97.5
t130.5 -248.5q0 -67 -31 -130.5t-88 -114.5t-147 -82t-197 -31q-65 0 -106 10q-18 -46 -51.5 -136.5t-64.5 -168t-62 -141.5q-6 -20 -16.5 -43.5t-19 -39t-23 -41.5t-19.5 -36q174 -72 285 -72q121 0 205.5 75.5t84.5 164.5q0 98 -67 145.5t-146 22.5q43 -21 56 -72
q15 -44 -5 -78t-69 -41q-39 -15 -68.5 7t-37.5 67zM1049 1051q94 22 181 68.5t154.5 111.5t107.5 150.5t40 177.5q0 78 -25.5 109.5t-56.5 31.5q-33 0 -69 -26.5t-84.5 -93.5t-111.5 -201t-136 -328zM551 530q-50 7 -121 7q-130 0 -229 -51t-99 -119q0 -52 37 -80.5
t107 -28.5q97 0 167 63t138 209z" />
    <glyph glyph-name="f_f" unicode="&#xfb00;" horiz-adv-x="1361" 
d="M1210 1497q137 0 204 -54.5t67 -146.5q0 -63 -35 -97t-90 -34q-56 0 -87.5 31t-31.5 80q0 51 33 79.5t82 28.5q38 0 65 -20q-42 86 -157 86q-164 0 -164 -199v-276h225v-45h-225v-889h170v-41h-559v41h137v889h-412v-889h162v-41h-551v41h139v889h-166v45h166v162
q0 96 30.5 168t83.5 112.5t116.5 60t138.5 19.5q252 0 252 -197q0 -60 -33.5 -92t-83.5 -32q-51 0 -78.5 28t-27.5 74q0 45 29 71.5t73 26.5q40 0 68 -22q-29 96 -150 96q-79 0 -123.5 -49t-44.5 -150v-276h412v164q0 96 30 167.5t82.5 112t115.5 59.5t138 19z" />
    <glyph glyph-name="f_f_i" unicode="&#xfb03;" horiz-adv-x="1837" 
d="M1655 41h137v-41h-508v41h121v889h-352v-889h118v-41h-493v41h123v889h-369v-889h143v-41h-532v41h139v889h-166v45h166v178q0 78 21 140.5t56.5 103.5t84.5 68.5t102.5 39t112.5 11.5q136 0 201 -55.5t65 -147.5q0 -63 -35 -97t-90 -34q-54 0 -85 31.5t-31 80.5t32.5 78
t81.5 29q39 0 64 -19q-44 86 -154 86q-82 0 -129 -52.5t-47 -160.5v-280h369v65q0 102 28.5 184t76.5 136.5t113.5 91t136.5 52.5t149 16q166 0 250.5 -69t84.5 -167q0 -68 -37.5 -107.5t-101.5 -39.5q-58 0 -93.5 33.5t-35.5 89.5t34 88t87 32q50 0 84 -34
q-52 118 -231 118q-135 0 -213.5 -85.5t-79.5 -268.5v-135h602v-934z" />
    <glyph glyph-name="exclamdown" horiz-adv-x="636" 
d="M317 1038q-67 0 -109 -40.5t-42 -102.5q0 -64 42 -105.5t109 -41.5t110.5 42t43.5 105q0 62 -43.5 102.5t-110.5 40.5zM338 600h-41q-4 -108 -42.5 -288t-74 -338.5t-35.5 -221.5q0 -87 48.5 -136.5t125.5 -49.5t126 49.5t49 136.5q0 63 -37 221.5t-76.5 338t-42.5 288.5
z" />
    <glyph glyph-name="arrowboth" horiz-adv-x="2258" 
d="M1612 102q-19 -62 -50 -95.5t-87 -33.5q-58 0 -89.5 35t-31.5 94q0 80 80 180.5t225.5 196t318.5 150.5q-150 -7 -289 -33.5t-222.5 -54t-175.5 -50t-161 -22.5t-158 22.5t-170 50t-222 54t-299 33.5q173 -55 319 -151t225.5 -196.5t79.5 -179.5q0 -59 -32.5 -94
t-90.5 -35q-100 0 -135 129q-43 135 -119 250.5t-181 190.5t-212 75v46q81 0 162 44.5t146.5 118t118 165.5t83.5 190q19 62 50.5 94.5t86.5 32.5q58 0 90.5 -34t32.5 -93q0 -80 -80.5 -180t-226.5 -195.5t-319 -151.5q130 7 246.5 27t196.5 43.5t149.5 46.5t135 38
t123.5 15t126 -15.5t139 -38t152 -46.5t194.5 -44t236.5 -26q-174 56 -319.5 151.5t-225 195.5t-79.5 180q0 59 31.5 93t89.5 34q56 0 87 -32t52 -95q41 -132 117 -248.5t181 -193t212 -76.5v-46q-107 0 -212 -74.5t-181.5 -190.5t-118.5 -251z" />
    <glyph glyph-name="arrowupdn" horiz-adv-x="1605" 
d="M1341 1065q62 -19 95.5 -50t33.5 -87q0 -58 -35 -89.5t-94 -31.5q-60 0 -134 48t-146 129.5t-138 199.5t-108 248q7 -150 33.5 -289t54 -222.5t50 -175.5t22.5 -161t-22.5 -158t-50 -170.5t-54 -222.5t-33.5 -299q55 173 150.5 319t196 225.5t179.5 79.5q59 0 94 -32
t35 -90q0 -101 -129 -136q-135 -43 -250.5 -119t-190.5 -181t-75 -212h-45q0 81 -44.5 162t-118 146.5t-165.5 118t-190 83.5q-62 19 -94.5 51t-32.5 87q0 58 34 90t93 32q80 0 180 -80.5t194.5 -226.5t151.5 -319q-8 158 -36.5 299.5t-58 223.5t-52.5 171t-23 158
q0 58 15.5 126t38 139t46.5 152t44 194.5t26 236.5q-43 -131 -109 -249t-138 -199.5t-145.5 -129t-133.5 -47.5q-59 0 -93 31.5t-34 89.5q0 56 32 87t95 52q132 41 248.5 117t193 181t76.5 212h45q0 -107 74.5 -212t190.5 -181.5t251 -118.5z" />
    <glyph glyph-name="f_i" horiz-adv-x="1216" 
d="M1036 41h138v-41h-510v41h122v586h-352v-281h268v-43h-268v-303h-252v303h-143v43h143v281h-151v43h151v372q0 103 29 186t76.5 137t113 90.5t135.5 52.5t146 16q164 0 252 -70.5t88 -171.5q0 -67 -38 -106t-101 -39q-58 0 -93.5 33.5t-35.5 89.5t34 88t86 32
q55 0 87 -32q-26 56 -87 89t-149 33q-132 0 -211.5 -92t-79.5 -278v-430h352v305h250v-934z" />
    <glyph glyph-name="ampersand.alt" horiz-adv-x="1589" 
d="M1556 920q0 -63 -16.5 -118.5t-51 -101.5t-94 -73t-137.5 -27q-73 0 -167 23q210 -77 210 -263q0 -165 -150 -276t-398 -111q-105 0 -199.5 17t-179 54.5t-145.5 92.5t-96.5 136.5t-35.5 181.5q0 89 31.5 165t83.5 128t122 91t143.5 60t152.5 29q-141 14 -221 75.5
t-80 174.5q0 130 109 199t274 69q159 0 246 -65.5t87 -172.5q0 -69 -34.5 -104t-91.5 -35q-55 0 -86 31.5t-31 79.5q0 47 30.5 74.5t81.5 27.5q52 0 80 -31q-19 67 -73.5 103.5t-133.5 36.5q-97 0 -154 -59.5t-57 -157.5q0 -103 63.5 -165.5t160.5 -62.5h32v-45h-34
q-189 0 -306.5 -119t-117.5 -333q0 -105 30.5 -188t83.5 -135.5t123 -80t152 -27.5q164 0 264 93t100 254q0 74 -23.5 131t-63.5 89t-86.5 48t-98.5 16q-95 0 -162 -52.5t-67 -150.5q0 -83 49.5 -127.5t122.5 -44.5q90 0 123 70q-29 -29 -76 -29q-46 0 -78.5 29t-32.5 78
q0 46 31 77t82 31q53 0 87 -34t34 -95q0 -71 -47 -117t-125 -46q-42 0 -80.5 13.5t-72 40t-53.5 74t-20 109.5q0 68 24 128.5t69.5 109.5t120.5 77.5t169 28.5q70 0 176 -20.5t156 -20.5q100 0 156.5 43.5t56.5 126.5q0 76 -46 123t-122 47q-85 0 -133 -55q27 18 61 18
q43 0 74 -26.5t31 -73.5q0 -45 -31 -73.5t-80 -28.5q-50 0 -82 29.5t-32 84.5q0 64 50 112t140 48q105 0 167 -64.5t62 -168.5z" />
    <glyph glyph-name="zero.osf" horiz-adv-x="1341" 
d="M672 -25q-104 0 -206 44.5t-184 122t-133 195t-51 251.5q0 135 51 252.5t133 195t184 122t206 44.5t206 -44t184 -121.5t132.5 -195t50.5 -253.5q0 -134 -51 -251.5t-133 -195t-184 -122t-205 -44.5zM672 16q138 0 209 149.5t71 422.5q0 274 -70.5 422.5t-209.5 148.5
q-140 0 -210.5 -148t-70.5 -423q0 -274 70.5 -423t210.5 -149z" />
    <glyph glyph-name="one.osf" horiz-adv-x="806" 
d="M535 43h180v-43h-617v43h178v995q-87 -69 -200 -90l-8 37q87 23 159.5 72.5t147.5 124.5h160v-1139z" />
    <glyph glyph-name="two.osf" horiz-adv-x="1073" 
d="M967 367h32q0 -390 -270 -390q-58 0 -110 19.5t-90.5 46.5t-73.5 54.5t-75.5 47t-82.5 19.5q-68 0 -116.5 -45t-69.5 -119h-45q0 94 20.5 172.5t54.5 134t78.5 102t94 82t98.5 68t93.5 66t78.5 71t54.5 88t20.5 111.5q0 117 -66.5 181.5t-180.5 64.5q-104 0 -181 -56.5
t-100 -148.5q37 59 109 59q57 0 95 -36t38 -91q0 -54 -39 -91.5t-103 -37.5q-66 0 -105.5 42t-39.5 118q0 126 113.5 214.5t304.5 88.5q121 0 217.5 -32.5t158.5 -106t62 -178.5q0 -74 -25.5 -132t-69.5 -97t-101 -70t-122 -56t-130.5 -50.5t-128 -59t-113 -75t-87.5 -105
t-50 -142.5q43 94 122 144.5t183 50.5q79 0 195 -39t182 -39q170 0 170 152z" />
    <glyph glyph-name="three.osf" horiz-adv-x="1126" 
d="M612 487q88 -7 160.5 -29t133 -62.5t94.5 -108t34 -156.5q0 -131 -70.5 -222.5t-186 -134t-263.5 -42.5q-208 0 -323 88.5t-115 222.5q0 80 40.5 127t110.5 47q63 0 101.5 -37t38.5 -92q0 -57 -38 -94t-96 -37q-73 0 -108 57q17 -99 102.5 -157t206.5 -58q145 0 223 85
t78 247q0 167 -89 248.5t-257 81.5h-65v51h65q150 0 231.5 94.5t81.5 251.5q0 144 -67.5 213.5t-185.5 69.5q-107 0 -185 -56t-98 -161q29 53 104 53q57 0 93 -35t36 -90t-36 -92t-101 -37q-67 0 -107 42.5t-40 125.5q0 138 114 224.5t312 86.5q90 0 167.5 -20t139.5 -59
t97.5 -105t35.5 -152q0 -149 -102 -250t-267 -129z" />
    <glyph glyph-name="four.osf" horiz-adv-x="1112" 
d="M1057 231h-217v-446h194v-43h-657v43h203v446h-566v54l633 923h193v-929h217v-48zM74 279h506v733z" />
    <glyph glyph-name="five.osf" horiz-adv-x="1099" 
d="M590 684q67 0 128 -14t118.5 -47.5t100 -83.5t68 -127.5t25.5 -173.5q0 -240 -142.5 -370t-377.5 -130q-206 0 -323 93t-117 230q0 84 44 132.5t113 48.5q62 0 102 -37.5t40 -100.5q0 -64 -40.5 -103.5t-101.5 -39.5q-53 0 -96 37q26 -82 103 -136.5t188 -54.5
q146 0 227.5 107t81.5 307q0 187 -70 284t-192 97q-89 0 -159 -48.5t-113 -125.5l-43 4l55 762q168 -33 377 -33q227 0 379 41q-3 -134 -85.5 -194t-256.5 -60q-89 0 -199.5 12t-177.5 29l-37 -481q58 78 154 127t227 49z" />
    <glyph glyph-name="six.osf" horiz-adv-x="1218" 
d="M729 862q79 0 151.5 -25t133 -73.5t97 -131t36.5 -188.5q0 -147 -71.5 -255.5t-185.5 -161t-253 -52.5q-58 0 -112.5 10t-109 33.5t-101 59.5t-87 90.5t-69 123.5t-44.5 163t-16 204q0 187 49 339t133.5 248.5t193.5 148t233 51.5q158 0 259 -72t101 -198
q0 -77 -43 -120.5t-115 -43.5q-65 0 -102 37t-37 94q0 60 38 95.5t95 35.5q67 0 103 -39q-25 79 -105.5 119.5t-181.5 40.5q-182 0 -257 -169.5t-83 -574.5q43 104 135.5 157.5t214.5 53.5zM637 25q231 0 231 389q0 370 -225 370q-108 0 -183 -86.5t-79 -251.5
q23 -421 256 -421z" />
    <glyph glyph-name="seven.osf" horiz-adv-x="956" 
d="M956 1182v-37q-150 -208 -246 -407.5t-153 -445t-63 -532.5h-279q3 103 22 206.5t44 186t70 176t79 154.5t93.5 146t90 125t92 117.5t78.5 99.5h-647v-187h-55v398h874z" />
    <glyph glyph-name="eight.osf" horiz-adv-x="1148" 
d="M700 823q52 -32 79 -49.5t73 -50.5t71.5 -56.5t58 -60t49 -70.5t28.5 -77t12 -90q0 -171 -129.5 -282.5t-368.5 -111.5q-136 0 -246 38.5t-178.5 119t-68.5 191.5q0 255 356 368q-64 42 -110 80.5t-89 88.5t-65 110.5t-22 130.5q0 156 118 250t307 94q184 0 302 -77
t118 -220q0 -116 -84 -201t-211 -125zM578 1397q-100 0 -151.5 -62.5t-51.5 -146.5q0 -55 21.5 -103t65 -90t86.5 -73t109 -72q129 122 129 293q0 124 -55.5 189t-152.5 65zM578 23q122 0 187.5 70.5t65.5 172.5q0 60 -22.5 110.5t-79 102t-92 77.5t-121.5 82q-26 17 -39 26
q-160 -122 -160 -336q0 -154 68 -229.5t193 -75.5z" />
    <glyph glyph-name="nine.osf" horiz-adv-x="1218" 
d="M582 1202q68 0 131 -14.5t125 -45t112.5 -84.5t89.5 -127.5t60.5 -179t21.5 -233.5q0 -187 -49 -338.5t-133.5 -247.5t-194 -147t-233.5 -51q-158 0 -259 72t-101 198q0 77 42.5 119.5t114.5 42.5q66 0 103 -37t37 -94q0 -58 -38.5 -93.5t-95.5 -35.5q-63 0 -102 39
q25 -80 105.5 -121t181.5 -41q182 0 257 170t83 575q-43 -105 -136 -159t-215 -54q-62 0 -121 15t-113 48.5t-94.5 81.5t-64.5 118.5t-24 154.5q0 90 27 166.5t74.5 131.5t111.5 94t139.5 58t157.5 19zM575 395q104 0 179 79.5t84 232.5q-14 448 -256 448q-232 0 -232 -391
q0 -369 225 -369z" />
    <glyph glyph-name="zero.sub" horiz-adv-x="755" 
d="M379 -276q-56 0 -112 24t-103.5 68.5t-77 116.5t-29.5 159t29.5 159t77 116.5t103.5 69t112 24.5t112 -24t102.5 -69t75.5 -117t29 -159t-29 -159t-76 -116.5t-102.5 -68.5t-111.5 -24zM379 -248q73 0 107 82.5t34 257.5t-34 257.5t-107 82.5t-107 -82.5t-34 -257.5
t34 -257.5t107 -82.5z" />
    <glyph glyph-name="one.sub" horiz-adv-x="460" 
d="M311 -238h90v-26h-338v26h91v613q-46 -36 -105 -47l-6 24q81 22 164 105h104v-695z" />
    <glyph glyph-name="two.sub" horiz-adv-x="616" 
d="M553 -43h27q0 -46 -8 -85.5t-25.5 -74t-51 -54t-79.5 -19.5q-41 0 -77 17t-57 37t-50 37t-58 17q-38 0 -64.5 -26t-35.5 -70h-31q0 73 18 131t46.5 96t63 69t69 56.5t63 51.5t46.5 62.5t18 80.5q0 67 -38 100t-102 33q-56 0 -96 -26t-53 -73q23 23 59 23q34 0 56 -20.5
t22 -53.5q0 -35 -23 -55.5t-61 -20.5q-40 0 -64 26t-24 71q0 75 65.5 124.5t184.5 49.5q50 0 93 -9.5t80 -30.5t58 -58.5t21 -88.5q0 -55 -23 -95t-61 -63.5t-84 -43t-94.5 -40t-90.5 -46.5t-73.5 -71.5t-42.5 -107.5q50 109 172 109q44 0 107.5 -21.5t101.5 -21.5
q96 0 96 84z" />
    <glyph glyph-name="three.sub" horiz-adv-x="622" 
d="M340 100q227 -14 227 -176q0 -99 -78.5 -149.5t-203.5 -50.5q-116 0 -178 44t-62 115q0 43 23 67.5t63 24.5q35 0 57.5 -19t22.5 -50t-22 -51.5t-54 -20.5q-34 0 -53 25q12 -43 51.5 -67.5t95.5 -24.5q156 0 156 157q0 79 -44.5 119.5t-129.5 40.5h-33v33h33
q76 0 118 45.5t42 122.5q0 135 -133 135q-53 0 -89.5 -23t-48.5 -67q18 18 54 18q31 0 52 -18.5t21 -48.5q0 -31 -21 -51.5t-56 -20.5q-39 0 -63 23t-24 67q0 72 62.5 117t175.5 45q104 0 173 -42.5t69 -127.5q0 -76 -55 -126.5t-148 -64.5z" />
    <glyph glyph-name="four.sub" horiz-adv-x="612" 
d="M571 -20h-106v-218h100v-26h-364v26h106v218h-295v26l330 465h123v-461h106v-30zM55 10h252v352z" />
    <glyph glyph-name="five.sub" horiz-adv-x="606" 
d="M328 199q45 0 85 -12t74.5 -37t55 -70.5t20.5 -106.5q0 -121 -76.5 -185t-203.5 -64q-113 0 -176.5 47.5t-63.5 122.5q0 46 24 71t62 25q36 0 59 -20.5t23 -53.5t-23 -54.5t-57 -21.5q-25 0 -45 13q14 -38 50 -61t87 -23q75 0 116.5 48t41.5 148q0 91 -35.5 138t-97.5 47
q-79 0 -129 -78l-29 2l29 381q107 -17 200 -17q109 0 209 21q-1 -76 -46.5 -110t-145.5 -34q-104 0 -193 19l-18 -217q68 82 203 82z" />
    <glyph glyph-name="six.sub" horiz-adv-x="667" 
d="M412 166q89 0 153 -51t64 -156q0 -112 -80 -173.5t-199 -61.5q-57 0 -105.5 16.5t-92.5 53t-69.5 107t-25.5 167.5q0 96 28 173t75 124t106 71.5t125 24.5q88 0 140.5 -37t52.5 -102q0 -41 -23 -65t-63 -24q-37 0 -58.5 20t-21.5 52q0 33 21.5 51.5t54.5 18.5
q31 0 51 -17q-13 34 -52 53t-90 19q-92 0 -131 -79t-43 -277q50 92 183 92zM350 -248q113 0 113 191q0 174 -109 174q-52 0 -87.5 -38t-39.5 -116q6 -211 123 -211z" />
    <glyph glyph-name="seven.sub" horiz-adv-x="522" 
d="M524 449v-15q-115 -165 -176 -331t-65 -367h-164q1 56 12.5 111t35 106.5t44.5 92t56 87.5t54.5 72t56 67t44.5 52h-340v-86h-31v211h473z" />
    <glyph glyph-name="eight.sub" horiz-adv-x="628" 
d="M389 154q47 -27 73 -44.5t59.5 -46.5t49 -63.5t15.5 -75.5q0 -87 -70.5 -143.5t-200.5 -56.5q-120 0 -195 45t-75 129q0 67 47 108.5t141 67.5q-71 45 -111 93.5t-40 115.5q0 82 64 130t169 48q99 0 164.5 -39t65.5 -111q0 -58 -44 -98t-112 -59zM317 430
q-49 0 -74.5 -27t-25.5 -67q0 -51 36 -87.5t107 -78.5q60 60 60 139q0 121 -103 121zM315 -248q60 0 91.5 32t31.5 79q0 13 -3 25.5t-6.5 22.5t-13 22t-14.5 19.5t-19.5 19.5t-21 17.5t-24.5 17.5l-24 16t-27.5 17.5t-26.5 16.5q-72 -56 -72 -155q0 -150 129 -150z" />
    <glyph glyph-name="nine.sub" horiz-adv-x="667" 
d="M317 461q57 0 105.5 -16.5t92.5 -53t69.5 -107t25.5 -167.5q0 -96 -28 -173t-75 -124t-106 -71.5t-125 -24.5q-88 0 -140 36.5t-52 102.5q0 41 23 64.5t63 23.5q37 0 58.5 -20t21.5 -52q0 -33 -21.5 -51t-54.5 -18q-30 0 -51 14q13 -33 51.5 -51.5t89.5 -18.5
q92 0 130.5 79.5t43.5 277.5q-50 -93 -182 -93q-89 0 -153 51t-64 156q0 112 79.5 174t198.5 62zM313 68q52 0 87.5 37t39.5 114q-6 213 -123 213q-112 0 -112 -190q0 -89 26.5 -131.5t81.5 -42.5z" />
    <glyph glyph-name="zero.sup" horiz-adv-x="755" 
d="M379 872q-56 0 -112 24.5t-103.5 69t-77 116.5t-29.5 159q0 86 29.5 158t77 117t103.5 69.5t112 24.5t112 -24t102.5 -69t75.5 -117t29 -159t-29 -159t-76 -116.5t-102.5 -69t-111.5 -24.5zM379 901q73 0 107 81.5t34 258.5q0 175 -34 257.5t-107 82.5t-107 -82.5
t-34 -257.5q0 -177 34 -258.5t107 -81.5z" />
    <glyph glyph-name="one.sup" horiz-adv-x="460" 
d="M311 911h90v-26h-338v26h91v611q-46 -36 -105 -47l-6 24q83 23 164 107h104v-695z" />
    <glyph glyph-name="two.sup" horiz-adv-x="616" 
d="M549 1106h26q0 -47 -7.5 -86t-25 -73.5t-51 -54.5t-79.5 -20q-41 0 -77 17t-57 37.5t-50 37.5t-58 17q-37 0 -63 -26t-37 -70h-31q0 73 18 131t46.5 96t62.5 69t68.5 56.5t63 51.5t46.5 62.5t18 80.5q0 67 -37.5 100t-99.5 33q-56 0 -95 -26t-54 -73q23 23 57 23
t57 -20.5t23 -53.5q0 -35 -23.5 -55.5t-62.5 -20.5q-40 0 -64 25t-24 70q0 77 65.5 126.5t184.5 49.5q50 0 93 -9.5t80 -30.5t58 -58.5t21 -88.5q0 -55 -23 -95t-60.5 -63.5t-83.5 -43t-94.5 -40t-90.5 -46.5t-74 -71.5t-43 -107.5q50 107 174 107q42 0 106 -20.5t103 -20.5
q94 0 94 84z" />
    <glyph glyph-name="three.sup" horiz-adv-x="622" 
d="M340 1249q227 -14 227 -176q0 -99 -79 -150t-203 -51q-116 0 -178 44.5t-62 115.5q0 43 23 67.5t63 24.5q35 0 57.5 -19t22.5 -50t-22 -51.5t-54 -20.5q-33 0 -53 23q12 -42 51.5 -66.5t95.5 -24.5q156 0 156 158q0 79 -44.5 119.5t-129.5 40.5h-33v31h33q76 0 118 46.5
t42 123.5q0 135 -133 135q-53 0 -89.5 -23t-48.5 -67q18 18 54 18q31 0 52 -19t21 -51q0 -30 -21 -49.5t-56 -19.5q-39 0 -63 23t-24 67q0 72 62.5 117t175.5 45q104 0 173 -42.5t69 -127.5q0 -76 -55 -126.5t-148 -64.5z" />
    <glyph glyph-name="four.sup" horiz-adv-x="612" 
d="M571 1128h-106v-217h100v-26h-364v26h106v217h-295v27l330 463h123v-459h106v-31zM55 1159h252v352z" />
    <glyph glyph-name="five.sup" horiz-adv-x="606" 
d="M328 1348q45 0 85 -12t74.5 -37t55 -70.5t20.5 -106.5q0 -121 -76.5 -185.5t-203.5 -64.5q-113 0 -176.5 47.5t-63.5 120.5q0 48 24 73.5t62 25.5q36 0 59 -20.5t23 -53.5t-23 -54.5t-57 -21.5q-27 0 -45 12q14 -38 50 -60.5t87 -22.5q75 0 116.5 48t41.5 148
q0 91 -35.5 137.5t-97.5 46.5q-79 0 -129 -77l-29 2l29 381q107 -17 200 -17q109 0 209 21q-1 -76 -46.5 -110t-145.5 -34q-104 0 -193 19l-18 -217q71 82 203 82z" />
    <glyph glyph-name="six.sup" horiz-adv-x="667" 
d="M412 1315q89 0 153 -51t64 -156q0 -113 -80 -174.5t-199 -61.5q-56 0 -105 16.5t-93 53.5t-69.5 107.5t-25.5 167.5q0 96 28 173t75 124t106 71.5t125 24.5q87 0 140 -37.5t53 -102.5q0 -41 -23 -64.5t-63 -23.5q-37 0 -58.5 20t-21.5 52q0 33 21.5 51.5t54.5 18.5
q31 0 51 -17q-13 34 -52 53t-90 19q-92 0 -131 -79t-43 -277q50 92 183 92zM350 901q113 0 113 191q0 174 -109 174q-52 0 -87.5 -38t-39.5 -116q6 -211 123 -211z" />
    <glyph glyph-name="seven.sup" horiz-adv-x="522" 
d="M524 1597v-14q-115 -165 -176 -331.5t-65 -366.5h-164q1 56 12.5 111t35 106.5t44.5 92t56 87.5t54.5 72t56 67t44.5 52h-340v-89h-31v213h473z" />
    <glyph glyph-name="eight.sup" horiz-adv-x="628" 
d="M389 1303q47 -27 73 -44.5t59.5 -46.5t49 -63.5t15.5 -75.5q0 -87 -70.5 -144t-200.5 -57q-119 0 -194.5 45t-75.5 130q0 67 48 108.5t143 65.5q-73 46 -113.5 94.5t-40.5 116.5q0 82 64 130t169 48q99 0 164.5 -39t65.5 -111q0 -58 -44 -98t-112 -59zM317 1579
q-49 0 -74.5 -27t-25.5 -67q0 -51 36 -87.5t107 -78.5q60 60 60 139q0 121 -103 121zM315 901q60 0 91.5 31t31.5 80q0 13 -3 25.5t-6.5 22.5t-13 22t-14.5 19.5t-19.5 19.5t-21 17.5t-24.5 17.5l-24 16t-27.5 17.5t-26.5 16.5q-72 -59 -72 -155q0 -150 129 -150z" />
    <glyph glyph-name="nine.sup" horiz-adv-x="667" 
d="M317 1610q57 0 105.5 -16.5t92.5 -53t69.5 -107t25.5 -167.5q0 -190 -97.5 -292t-236.5 -102q-88 0 -140 37t-52 103q0 41 23 64.5t63 23.5q37 0 58.5 -20.5t21.5 -51.5q0 -33 -21.5 -52.5t-54.5 -19.5q-32 0 -49 17q13 -33 51 -51.5t88 -18.5q92 0 130.5 79.5
t43.5 277.5q-50 -93 -182 -93q-89 0 -153 51t-64 156q0 112 79.5 174t198.5 62zM313 1217q52 0 87.5 37t39.5 114q-6 213 -123 213q-112 0 -112 -190q0 -89 26.5 -131.5t81.5 -42.5z" />
    <glyph glyph-name="zero.dnom" horiz-adv-x="755" 
d="M379 -25q-56 0 -112 24.5t-103.5 69t-77 116.5t-29.5 159t29.5 159t77 116.5t103.5 69t112 24.5t112 -24t102.5 -69t75.5 -117t29 -159t-29 -159t-76 -116.5t-102.5 -69t-111.5 -24.5zM379 4q73 0 107 82.5t34 257.5t-34 257.5t-107 82.5t-107 -82.5t-34 -257.5
t34 -257.5t107 -82.5z" />
    <glyph glyph-name="one.dnom" horiz-adv-x="509" 
d="M336 14h90v-26h-338v26h90v613q-46 -37 -104 -47l-4 24q77 21 163 107h103v-697z" />
    <glyph glyph-name="two.dnom" horiz-adv-x="616" 
d="M553 211h27q0 -65 -13 -114.5t-51.5 -85.5t-99.5 -36q-41 0 -77 17t-57 37.5t-50 37.5t-58 17q-38 0 -64.5 -26t-35.5 -70h-31q0 73 18 131t46.5 96t63 69t69 56.5t63 51.5t46.5 62.5t18 80.5q0 67 -38 100t-102 33q-56 0 -96 -26t-53 -73q23 23 59 23q34 0 56 -20.5
t22 -53.5q0 -35 -23 -55.5t-61 -20.5q-40 0 -64 26t-24 71q0 75 65.5 124.5t184.5 49.5q50 0 93 -9.5t80 -30.5t58 -58.5t21 -88.5q0 -55 -23 -95t-61 -63.5t-84 -43t-94.5 -40t-90.5 -46.5t-73.5 -71.5t-42.5 -107.5q50 109 172 109q44 0 107.5 -20.5t101.5 -20.5
q96 0 96 84z" />
    <glyph glyph-name="three.dnom" horiz-adv-x="622" 
d="M340 352q227 -14 227 -176q0 -99 -79 -150t-203 -51q-116 0 -178 44.5t-62 115.5q0 43 23 68.5t63 25.5q35 0 57.5 -20t22.5 -51t-22 -51.5t-54 -20.5q-33 0 -53 23q12 -42 51.5 -66.5t95.5 -24.5q76 0 116 40.5t40 119.5q0 158 -174 158h-33v33h33q76 0 118 45.5
t42 122.5q0 137 -133 137q-52 0 -89 -23.5t-49 -68.5q18 18 54 18q31 0 52 -19t21 -49q0 -31 -21 -51t-56 -20q-39 0 -63 23t-24 67q0 73 62.5 117.5t175.5 44.5q104 0 173 -42.5t69 -127.5q0 -76 -55 -126.5t-148 -64.5z" />
    <glyph glyph-name="four.dnom" horiz-adv-x="612" 
d="M571 231h-106v-217h100v-26h-364v26h106v217h-295v27l330 465h123v-461h106v-31zM55 262h252v352z" />
    <glyph glyph-name="five.dnom" horiz-adv-x="606" 
d="M328 451q45 0 85 -12t74.5 -36.5t55 -70t20.5 -105.5q0 -122 -76.5 -187t-203.5 -65q-113 0 -176.5 47.5t-63.5 122.5q0 46 24 71.5t62 25.5q36 0 59 -20.5t23 -53.5t-23 -54.5t-57 -21.5q-27 0 -45 12q14 -38 50 -61t87 -23q75 0 116.5 48.5t41.5 148.5
q0 91 -35.5 137.5t-97.5 46.5q-78 0 -129 -75h-29l29 383q89 -17 200 -17q119 0 209 19q-1 -76 -46.5 -110t-145.5 -34q-104 0 -193 19l-18 -217q68 82 203 82z" />
    <glyph glyph-name="six.dnom" horiz-adv-x="667" 
d="M412 418q89 0 153 -51t64 -156q0 -112 -80 -174t-199 -62q-57 0 -105.5 16.5t-92.5 53t-69.5 107t-25.5 167.5q0 96 28 173t75 124.5t106 72t125 24.5q88 0 140.5 -37t52.5 -103q0 -41 -23 -64.5t-63 -23.5q-37 0 -58.5 20t-21.5 52q0 33 21.5 52.5t54.5 19.5
q29 0 49 -17q-13 33 -52 51.5t-88 18.5q-92 0 -131 -79t-43 -277q50 92 183 92zM350 4q113 0 113 191q0 174 -109 174q-52 0 -87.5 -37.5t-39.5 -114.5q6 -213 123 -213z" />
    <glyph glyph-name="seven.dnom" horiz-adv-x="522" 
d="M524 700v-14q-115 -165 -176 -331t-65 -367h-164q1 49 11.5 99t25 91.5t38.5 86t44 76.5t50 71.5t48.5 61.5t47 55.5t38.5 45.5h-340v-86h-31v211h473z" />
    <glyph glyph-name="eight.dnom" horiz-adv-x="628" 
d="M387 408q36 -21 49.5 -29.5t43.5 -29t43.5 -35.5t31 -37t24.5 -46.5t7 -52.5q0 -89 -70.5 -146t-200.5 -57q-119 0 -194.5 45t-75.5 130q0 67 47 108.5t141 67.5q-71 45 -111 93.5t-40 115.5q0 84 63.5 131t169.5 47q100 0 165 -38.5t65 -111.5q0 -58 -44.5 -98.5
t-113.5 -56.5zM317 684q-49 0 -74.5 -28t-25.5 -68q0 -51 36 -87.5t107 -78.5q60 60 60 139q0 123 -103 123zM315 4q60 0 91.5 32t31.5 79q0 30 -12 55.5t-43 52t-49 38.5t-65 41q-3 2 -5.5 3.5t-5.5 3.5q-72 -56 -72 -155q0 -150 129 -150z" />
    <glyph glyph-name="nine.dnom" horiz-adv-x="667" 
d="M317 713q57 0 105.5 -16.5t92.5 -53t69.5 -107t25.5 -167.5q0 -96 -28 -173t-75 -124.5t-106 -72t-125 -24.5q-87 0 -139.5 37.5t-52.5 102.5q0 41 23 64.5t63 23.5q37 0 58.5 -20t21.5 -52q0 -33 -21.5 -51.5t-54.5 -18.5q-28 0 -51 15q13 -33 51.5 -51.5t89.5 -18.5
q92 0 131 79t43 277q-50 -92 -182 -92q-89 0 -153 51t-64 156q0 113 79.5 174.5t198.5 61.5zM313 319q52 0 87.5 38t39.5 116q-6 211 -123 211q-112 0 -112 -190q0 -175 108 -175z" />
    <glyph glyph-name="zero.numr" horiz-adv-x="755" 
d="M379 709q-56 0 -112 24t-103.5 68t-77 116t-29.5 160q0 86 29.5 158t77 117t103.5 69.5t112 24.5t112 -24t102.5 -69t75.5 -117t29 -159q0 -88 -29 -160t-76 -116t-102.5 -68t-111.5 -24zM379 737q73 0 107 81.5t34 258.5q0 175 -34 257.5t-107 82.5t-107 -82.5
t-34 -257.5q0 -177 34 -258.5t107 -81.5z" />
    <glyph glyph-name="one.numr" horiz-adv-x="509" 
d="M336 748h90v-27h-338v27h90v610q-46 -37 -104 -47l-4 24q77 21 163 107h103v-694z" />
    <glyph glyph-name="two.numr" horiz-adv-x="616" 
d="M549 942h26q0 -47 -7.5 -85.5t-25 -73.5t-51 -54.5t-79.5 -19.5q-41 0 -77 17t-57 37t-50 37t-58 17q-37 0 -63 -26t-37 -70h-31q0 73 18 131t46.5 96t62.5 69t68.5 56.5t63 51.5t46.5 62.5t18 80.5q0 66 -37.5 99.5t-99.5 33.5q-56 0 -95 -25.5t-54 -72.5q22 22 57 22
t57.5 -20.5t22.5 -55.5q0 -34 -24 -54.5t-62 -20.5q-40 0 -64 25.5t-24 70.5q0 76 66 126t184 50q69 0 122.5 -16t91.5 -59.5t38 -110.5q0 -55 -23 -95t-61 -63.5t-84 -43t-94.5 -40t-90.5 -47t-73.5 -72.5t-42.5 -108q49 108 174 108q42 0 106 -20.5t103 -20.5q94 0 94 84z
" />
    <glyph glyph-name="three.numr" horiz-adv-x="622" 
d="M340 1085q227 -18 227 -176q0 -99 -78.5 -149.5t-203.5 -50.5q-116 0 -178 44.5t-62 114.5q0 43 23 68t63 25q35 0 57.5 -20t22.5 -52q0 -31 -21.5 -50.5t-54.5 -19.5t-53 23q12 -44 51.5 -68t95.5 -24q76 0 116 40t40 119q0 158 -174 158h-33v33h33q76 0 118 46.5
t42 123.5q0 135 -133 135q-53 0 -89.5 -23t-48.5 -67q18 18 54 18q31 0 52 -19.5t21 -49.5t-21 -50t-56 -20q-39 0 -63 23t-24 67q0 72 62.5 117t175.5 45q104 0 173 -42.5t69 -127.5q0 -76 -55 -126.5t-148 -64.5z" />
    <glyph glyph-name="four.numr" horiz-adv-x="612" 
d="M571 965h-106v-217h100v-27h-364v27h106v217h-295v26l330 463h123v-461h106v-28zM53 993h254v355z" />
    <glyph glyph-name="five.numr" horiz-adv-x="606" 
d="M328 1182q45 0 85 -11.5t74.5 -36t55 -70t20.5 -106.5q0 -122 -76 -185.5t-204 -63.5q-113 0 -176.5 47.5t-63.5 120.5q0 48 23.5 72t62.5 24q36 0 59 -19.5t23 -52.5q0 -35 -22.5 -55.5t-57.5 -20.5q-25 0 -45 13q14 -39 50 -62.5t87 -23.5q74 0 116 49t42 147
q0 92 -35.5 139.5t-97.5 47.5q-79 0 -129 -78l-29 2l29 381q89 -17 200 -17q119 0 209 19q-2 -75 -47.5 -109.5t-144.5 -34.5q-94 0 -193 21l-18 -219q71 82 203 82z" />
    <glyph glyph-name="six.numr" horiz-adv-x="667" 
d="M412 1151q89 0 153 -52t64 -157q0 -112 -80 -172.5t-199 -60.5q-57 0 -105.5 16.5t-92.5 53t-69.5 107t-25.5 167.5q0 96 28 173t75 124t106 71.5t125 24.5q88 0 140.5 -37.5t52.5 -103.5q0 -40 -23 -63t-63 -23q-37 0 -58.5 19.5t-21.5 51.5t21.5 51t54.5 19
q31 0 51 -17q-13 34 -52 53t-90 19q-92 0 -131 -79.5t-45 -278.5q52 94 185 94zM350 737q113 0 113 191q0 172 -109 172q-52 0 -87.5 -37t-39.5 -115q6 -211 123 -211z" />
    <glyph glyph-name="seven.numr" horiz-adv-x="522" 
d="M524 1434v-17q-115 -165 -176 -330.5t-65 -365.5h-164q1 65 20 133t39.5 115.5t62.5 109.5t62 88t67.5 81.5t51.5 60.5h-340v-88h-31v213h473z" />
    <glyph glyph-name="eight.numr" horiz-adv-x="628" 
d="M387 1139q38 -22 58.5 -34.5t52 -36.5t47.5 -45t28.5 -51t12.5 -63q0 -87 -70.5 -143.5t-200.5 -56.5q-120 0 -195 45t-75 129q0 67 47 108.5t141 65.5q-71 47 -111 95t-40 116q0 82 64 130t169 48q99 0 164.5 -39t65.5 -111q0 -60 -44.5 -100.5t-113.5 -56.5zM317 1415
q-50 0 -75 -27.5t-25 -68.5q0 -51 36 -87.5t107 -78.5q60 60 60 141q0 121 -103 121zM315 737q60 0 91.5 31t31.5 80q0 13 -3 25.5t-6.5 22.5t-13 22t-14.5 19.5t-19.5 19.5t-21 17.5t-24.5 17.5l-24 16t-27.5 17.5t-26.5 16.5q-72 -59 -72 -157q0 -148 129 -148z" />
    <glyph glyph-name="nine.numr" horiz-adv-x="667" 
d="M317 1446q44 0 84 -9.5t79 -34t67 -62.5t45.5 -99.5t17.5 -140.5q0 -96 -28 -172.5t-75 -123t-106 -71t-125 -24.5q-88 0 -140 36.5t-52 102.5q0 41 23 63.5t63 22.5q37 0 58.5 -20t21.5 -50q0 -33 -21.5 -52t-54.5 -19t-49 16q13 -33 51 -51.5t88 -18.5q92 0 131 79.5
t45 277.5q-53 -95 -184 -95q-89 0 -153 52t-64 157q0 112 79.5 174t198.5 62zM313 1053q52 0 87.5 37t39.5 114q-6 211 -123 211q-112 0 -112 -190q0 -88 26.5 -130t81.5 -42z" />
    <glyph glyph-name="zero.bulletFill" horiz-adv-x="1695" 
d="M848 -25q148 0 282 51.5t236 144t162.5 232t60.5 304.5t-60.5 304.5t-162.5 231.5t-236 143.5t-282 51.5q-118 0 -228.5 -32t-204 -95t-163 -150.5t-109 -204t-39.5 -249.5q0 -165 60.5 -304.5t163 -232t237.5 -144t283 -51.5zM846 197q-74 0 -146.5 35t-131.5 98.5
t-95.5 163t-36.5 217.5t36.5 217.5t95.5 163t131.5 98.5t146.5 35q75 0 147.5 -35t131.5 -98.5t95.5 -163t36.5 -217.5t-36.5 -218t-96 -163t-132 -98t-146.5 -35zM846 229q205 0 205 482q0 481 -205 481t-205 -481q0 -482 205 -482z" />
    <glyph glyph-name="one.bulletFill" horiz-adv-x="1695" 
d="M848 -25q148 0 282 51.5t236 144t162.5 232t60.5 304.5t-60.5 304.5t-162.5 231.5t-236 143.5t-282 51.5q-118 0 -228.5 -32t-204 -95t-163 -150.5t-109 -204t-39.5 -249.5q0 -165 60.5 -304.5t163 -232t237.5 -144t283 -51.5zM1065 246v-29h-434v29h127v874
q-61 -47 -142 -63l-6 30q103 26 215 138h115v-979h125z" />
    <glyph glyph-name="two.bulletFill" horiz-adv-x="1695" 
d="M848 -25q148 0 282 51.5t236 144t162.5 232t60.5 304.5t-60.5 304.5t-162.5 231.5t-236 143.5t-282 51.5q-118 0 -228.5 -32t-204 -95t-163 -150.5t-109 -204t-39.5 -249.5q0 -165 60.5 -304.5t163 -232t237.5 -144t283 -51.5zM1194 514q0 -297 -197 -297q-52 0 -97.5 22
t-73.5 48.5t-65.5 48.5t-74.5 22q-50 0 -84.5 -34t-50.5 -91h-35q0 99 24 179t62 132t84 96t92 80.5t84 74t62 89t24 113.5q0 98 -49.5 148.5t-134.5 50.5q-86 0 -146 -51t-67 -135q6 29 29 46t53 17q41 0 68.5 -25.5t27.5 -66.5t-28 -68.5t-74 -27.5q-49 0 -80 33t-31 90
q0 100 84 167.5t227 67.5q66 0 121.5 -13t103 -41t74.5 -79t27 -121q0 -60 -19.5 -107t-52.5 -79.5t-76.5 -59t-92 -50t-97 -47.5t-94.5 -56.5t-82.5 -72.5t-61.5 -99t-32 -133q54 174 223 174q59 0 143 -31t133 -31q123 0 123 117h27z" />
    <glyph glyph-name="three.bulletFill" horiz-adv-x="1695" 
d="M848 -25q148 0 282 51.5t236 144t162.5 232t60.5 304.5t-60.5 304.5t-162.5 231.5t-236 143.5t-282 51.5q-118 0 -228.5 -32t-204 -95t-163 -150.5t-109 -204t-39.5 -249.5q0 -165 60.5 -304.5t163 -232t237.5 -144t283 -51.5zM1186 483q0 -135 -102 -206.5t-263 -71.5
q-145 0 -226 62.5t-81 154.5q0 55 29.5 88t77.5 33q44 0 71 -25.5t27 -64.5t-26.5 -65t-65.5 -26q-58 0 -76 46q9 -71 68.5 -113.5t146.5 -42.5q102 0 156.5 59t54.5 172q0 232 -244 232h-43v35h43q106 0 162.5 67t56.5 176q0 100 -47 148.5t-129 48.5q-79 0 -132.5 -41.5
t-65.5 -120.5q13 47 73 47q40 0 65 -25t25 -63q0 -40 -25 -65t-71 -25q-47 0 -74.5 29.5t-27.5 87.5q0 98 78 158.5t217 60.5q137 0 224 -58.5t87 -175.5q0 -107 -75 -179t-197 -87q64 -3 117 -18t97.5 -43t69.5 -76.5t25 -112.5z" />
    <glyph glyph-name="four.bulletFill" horiz-adv-x="1695" 
d="M848 -25q148 0 282 51.5t236 144t162.5 232t60.5 304.5t-60.5 304.5t-162.5 231.5t-236 143.5t-282 51.5q-118 0 -228.5 -32t-204 -95t-163 -150.5t-109 -204t-39.5 -249.5q0 -165 60.5 -304.5t163 -232t237.5 -144t283 -51.5zM1143 244v-29h-461v29h143v313h-395v37
l442 647h136v-649h151v-35h-151v-313h135zM825 1104l-354 -512h354v512z" />
    <glyph glyph-name="five.bulletFill" horiz-adv-x="1695" 
d="M848 -25q148 0 282 51.5t236 144t162.5 232t60.5 304.5t-60.5 304.5t-162.5 231.5t-236 143.5t-282 51.5q-118 0 -228.5 -32t-204 -95t-163 -150.5t-109 -204t-39.5 -249.5q0 -165 60.5 -304.5t163 -232t237.5 -144t283 -51.5zM1171 545q0 -167 -99 -257.5t-263 -90.5
q-145 0 -227 65t-82 160q0 59 31 93t79 34q43 0 71 -26t28 -70q0 -45 -28.5 -73t-70.5 -28q-20 0 -39 11t-28 28q14 -64 68.5 -105.5t136.5 -41.5q102 0 158.5 74.5t56.5 213.5q0 132 -49 201.5t-134 69.5q-62 0 -111 -34.5t-79 -88.5l-31 2l39 535q128 -25 264 -25
q151 0 264 29q-1 -94 -58.5 -136.5t-178.5 -42.5q-64 0 -142.5 9t-121.5 22l-27 -336q90 121 266 121q59 0 111.5 -16.5t97.5 -52t71.5 -98t26.5 -146.5z" />
    <glyph glyph-name="six.bulletFill" horiz-adv-x="1695" 
d="M848 -25q148 0 282 51.5t236 144t162.5 232t60.5 304.5t-60.5 304.5t-162.5 231.5t-236 143.5t-282 51.5q-118 0 -228.5 -32t-204 -95t-163 -150.5t-109 -204t-39.5 -249.5q0 -165 60.5 -304.5t163 -232t237.5 -144t283 -51.5zM1194 539q0 -154 -102.5 -241t-253.5 -87
q-58 0 -110 14t-102.5 48t-86.5 87t-58 137t-22 191q0 132 34.5 238t93.5 173t135.5 102.5t162.5 35.5q112 0 183 -50t71 -138q0 -53 -30.5 -83t-80.5 -30q-46 0 -72 25.5t-26 66.5t26.5 65.5t67.5 24.5q44 0 72 -31q-16 57 -74 87t-129 30q-128 0 -181.5 -120.5
t-56.5 -405.5q30 74 95 112.5t151 38.5q55 0 105.5 -17.5t93.5 -51t68.5 -91t25.5 -130.5zM840 776q-73 0 -124.5 -56.5t-58.5 -166.5q14 -309 181 -309q161 0 161 272q0 260 -159 260z" />
    <glyph glyph-name="seven.bulletFill" horiz-adv-x="1695" 
d="M848 -25q148 0 282 51.5t236 144t162.5 232t60.5 304.5t-60.5 304.5t-162.5 231.5t-236 143.5t-282 51.5q-118 0 -228.5 -32t-204 -95t-163 -150.5t-109 -204t-39.5 -249.5q0 -165 60.5 -304.5t163 -232t237.5 -144t283 -51.5zM1178 1169q-159 -222 -239 -448t-87 -520
h-195q2 72 15.5 144t31.5 130t48.5 122t56 108.5t65 101.5t64 88.5t64.5 82.5t55 71h-453v-134h-39v279h613v-25z" />
    <glyph glyph-name="eight.bulletFill" horiz-adv-x="1695" 
d="M848 -25q148 0 282 51.5t236 144t162.5 232t60.5 304.5t-60.5 304.5t-162.5 231.5t-236 143.5t-282 51.5q-118 0 -228.5 -32t-204 -95t-163 -150.5t-109 -204t-39.5 -249.5q0 -165 60.5 -304.5t163 -232t237.5 -144t283 -51.5zM1204 473q0 -120 -91 -197t-259 -77
q-148 0 -247 63.5t-99 179.5q0 177 248 258q-95 65 -147 131t-52 156q0 109 83 175.5t216 66.5q127 0 211 -55t84 -154q0 -81 -59 -139.5t-150 -87.5q49 -30 78 -49t69 -51.5t61.5 -61.5t37.5 -70.5t16 -87.5zM715 1047q0 -71 48.5 -123t141.5 -109q101 83 101 201
q0 86 -40.5 132t-109.5 46q-68 0 -104.5 -44t-36.5 -103zM676 444q0 -108 47.5 -160.5t134.5 -52.5q86 0 131 49.5t45 120.5q0 55 -36 106.5t-71 78.5t-110 77q-15 10 -22 15q-119 -94 -119 -234z" />
    <glyph glyph-name="nine.bulletFill" horiz-adv-x="1695" 
d="M848 -25q148 0 282 51.5t236 144t162.5 232t60.5 304.5t-60.5 304.5t-162.5 231.5t-236 143.5t-282 51.5q-118 0 -228.5 -32t-204 -95t-163 -150.5t-109 -204t-39.5 -249.5q0 -165 60.5 -304.5t163 -232t237.5 -144t283 -51.5zM1235 748q0 -132 -34.5 -238.5
t-93.5 -173.5t-135.5 -103t-162.5 -36q-112 0 -183 50.5t-71 137.5q0 55 30.5 85t80.5 30q46 0 72 -26t26 -66q0 -41 -27 -66t-67 -25q-46 0 -72 29q18 -57 74.5 -86t126.5 -29q128 0 182 120.5t57 404.5q-30 -75 -94.5 -113.5t-150.5 -38.5q-55 0 -105.5 17.5t-93.5 51.5
t-68.5 92t-25.5 132q0 154 102.5 241t253.5 87q58 0 110 -14t102.5 -48t86.5 -87t58 -137t22 -191zM694 920q0 -261 158 -261q74 0 127 59t57 171q-17 303 -180 303q-162 0 -162 -272z" />
    <glyph glyph-name="zero.bulletHollow" horiz-adv-x="1695" 
d="M848 -25q148 0 282 51.5t236 144t162.5 232t60.5 304.5t-60.5 304.5t-162.5 231.5t-236 143.5t-282 51.5q-118 0 -228.5 -32t-204 -95t-163 -150.5t-109 -204t-39.5 -249.5q0 -165 60.5 -304.5t163 -232t237.5 -144t283 -51.5zM848 14q-113 0 -218 30.5t-192.5 90
t-152.5 142.5t-101.5 193.5t-36.5 236.5t36.5 236.5t101.5 193t152.5 142t192.5 90t218 30.5q190 0 348 -82t255 -242t97 -368q0 -157 -56.5 -289t-152.5 -219.5t-223 -136t-268 -48.5zM846 197q-74 0 -146.5 35t-131.5 98.5t-95.5 163t-36.5 217.5t36.5 217.5t95.5 163
t131.5 98.5t146.5 35q75 0 147.5 -35t131.5 -98.5t95.5 -163t36.5 -217.5t-36.5 -218t-96 -163t-132 -98t-146.5 -35zM846 229q205 0 205 482q0 481 -205 481t-205 -481q0 -482 205 -482z" />
    <glyph glyph-name="one.bulletHollow" horiz-adv-x="1695" 
d="M848 -25q148 0 282 51.5t236 144t162.5 232t60.5 304.5t-60.5 304.5t-162.5 231.5t-236 143.5t-282 51.5q-118 0 -228.5 -32t-204 -95t-163 -150.5t-109 -204t-39.5 -249.5q0 -165 60.5 -304.5t163 -232t237.5 -144t283 -51.5zM848 14q-113 0 -218 30.5t-192.5 90
t-152.5 142.5t-101.5 193.5t-36.5 236.5t36.5 236.5t101.5 193t152.5 142t192.5 90t218 30.5q190 0 348 -82t255 -242t97 -368q0 -157 -56.5 -289t-152.5 -219.5t-223 -136t-268 -48.5zM1065 246v-29h-434v29h127v874q-61 -47 -142 -63l-6 30q103 26 215 138h115v-979h125z
" />
    <glyph glyph-name="two.bulletHollow" horiz-adv-x="1695" 
d="M848 -25q148 0 282 51.5t236 144t162.5 232t60.5 304.5t-60.5 304.5t-162.5 231.5t-236 143.5t-282 51.5q-118 0 -228.5 -32t-204 -95t-163 -150.5t-109 -204t-39.5 -249.5q0 -165 60.5 -304.5t163 -232t237.5 -144t283 -51.5zM848 14q-113 0 -218 30.5t-192.5 90
t-152.5 142.5t-101.5 193.5t-36.5 236.5t36.5 236.5t101.5 193t152.5 142t192.5 90t218 30.5q190 0 348 -82t255 -242t97 -368q0 -157 -56.5 -289t-152.5 -219.5t-223 -136t-268 -48.5zM1194 514q0 -297 -197 -297q-52 0 -97.5 22t-73.5 48.5t-65.5 48.5t-74.5 22
q-50 0 -84.5 -34t-50.5 -91h-35q0 99 24 179t62 132t84 96t92 80.5t84 74t62 89t24 113.5q0 98 -49.5 148.5t-134.5 50.5q-86 0 -145 -50t-66 -134q4 28 27 44.5t53 16.5q41 0 68.5 -25.5t27.5 -66.5t-28 -68.5t-74 -27.5q-49 0 -80 33t-31 90q0 100 84 167.5t227 67.5
q66 0 121.5 -13t103 -41t74.5 -79t27 -121q0 -60 -19.5 -107t-52.5 -79.5t-76.5 -59t-92 -50t-97 -47.5t-94.5 -56.5t-82.5 -72.5t-61.5 -99t-32 -133q54 174 223 174q59 0 143 -31t133 -31q123 0 123 117h27z" />
    <glyph glyph-name="three.bulletHollow" horiz-adv-x="1695" 
d="M848 -25q148 0 282 51.5t236 144t162.5 232t60.5 304.5t-60.5 304.5t-162.5 231.5t-236 143.5t-282 51.5q-118 0 -228.5 -32t-204 -95t-163 -150.5t-109 -204t-39.5 -249.5q0 -165 60.5 -304.5t163 -232t237.5 -144t283 -51.5zM848 14q-113 0 -218 30.5t-192.5 90
t-152.5 142.5t-101.5 193.5t-36.5 236.5t36.5 236.5t101.5 193t152.5 142t192.5 90t218 30.5q190 0 348 -82t255 -242t97 -368q0 -157 -56.5 -289t-152.5 -219.5t-223 -136t-268 -48.5zM1186 483q0 -135 -102 -206.5t-263 -71.5q-145 0 -226 62.5t-81 154.5q0 55 29.5 88
t77.5 33q44 0 71 -25.5t27 -64.5t-26.5 -65t-65.5 -26q-58 0 -76 46q9 -71 68.5 -113.5t146.5 -42.5q102 0 156.5 59t54.5 172q0 232 -244 232h-43v35h43q106 0 162.5 67t56.5 176q0 100 -47 148.5t-129 48.5q-79 0 -132.5 -41.5t-65.5 -120.5q13 47 73 47q40 0 65 -25
t25 -63q0 -40 -25 -65t-71 -25q-47 0 -74.5 29.5t-27.5 87.5q0 98 78 158.5t217 60.5q137 0 224 -58.5t87 -175.5q0 -107 -76 -179t-199 -87q65 -3 118.5 -18t98.5 -43t70 -76.5t25 -112.5z" />
    <glyph glyph-name="four.bulletHollow" horiz-adv-x="1695" 
d="M848 -25q148 0 282 51.5t236 144t162.5 232t60.5 304.5t-60.5 304.5t-162.5 231.5t-236 143.5t-282 51.5q-118 0 -228.5 -32t-204 -95t-163 -150.5t-109 -204t-39.5 -249.5q0 -165 60.5 -304.5t163 -232t237.5 -144t283 -51.5zM848 14q-113 0 -218 30.5t-192.5 90
t-152.5 142.5t-101.5 193.5t-36.5 236.5t36.5 236.5t101.5 193t152.5 142t192.5 90t218 30.5q190 0 348 -82t255 -242t97 -368q0 -157 -56.5 -289t-152.5 -219.5t-223 -136t-268 -48.5zM1143 244v-29h-461v29h143v313h-395v37l442 647h136v-649h151v-35h-151v-313h135z
M825 1104l-354 -512h354v512z" />
    <glyph glyph-name="five.bulletHollow" horiz-adv-x="1695" 
d="M848 -25q148 0 282 51.5t236 144t162.5 232t60.5 304.5t-60.5 304.5t-162.5 231.5t-236 143.5t-282 51.5q-118 0 -228.5 -32t-204 -95t-163 -150.5t-109 -204t-39.5 -249.5q0 -165 60.5 -304.5t163 -232t237.5 -144t283 -51.5zM848 14q-113 0 -218 30.5t-192.5 90
t-152.5 142.5t-101.5 193.5t-36.5 236.5t36.5 236.5t101.5 193t152.5 142t192.5 90t218 30.5q190 0 348 -82t255 -242t97 -368q0 -157 -56.5 -289t-152.5 -219.5t-223 -136t-268 -48.5zM1171 545q0 -167 -99 -257.5t-263 -90.5q-145 0 -226 64.5t-81 160.5q0 60 30.5 93.5
t77.5 33.5q43 0 71 -26t28 -70q0 -45 -28.5 -73t-70.5 -28q-20 0 -38 11t-27 28q14 -64 67.5 -105.5t135.5 -41.5q102 0 158.5 74.5t56.5 213.5q0 132 -49 201.5t-134 69.5q-62 0 -111 -34.5t-79 -88.5l-31 2l39 535q128 -25 264 -25q151 0 264 29q-1 -94 -58.5 -136.5
t-178.5 -42.5q-64 0 -142.5 9t-121.5 22l-27 -336q90 121 266 121q59 0 111.5 -16.5t97.5 -52t71.5 -98t26.5 -146.5z" />
    <glyph glyph-name="six.bulletHollow" horiz-adv-x="1695" 
d="M848 -25q148 0 282 51.5t236 144t162.5 232t60.5 304.5t-60.5 304.5t-162.5 231.5t-236 143.5t-282 51.5q-118 0 -228.5 -32t-204 -95t-163 -150.5t-109 -204t-39.5 -249.5q0 -165 60.5 -304.5t163 -232t237.5 -144t283 -51.5zM848 14q-113 0 -218 30.5t-192.5 90
t-152.5 142.5t-101.5 193.5t-36.5 236.5t36.5 236.5t101.5 193t152.5 142t192.5 90t218 30.5q190 0 348 -82t255 -242t97 -368q0 -157 -56.5 -289t-152.5 -219.5t-223 -136t-268 -48.5zM1194 539q0 -154 -102.5 -241t-253.5 -87q-58 0 -110 14t-102.5 48t-86.5 87t-58 137
t-22 191q0 132 34.5 238t93.5 173t135.5 102.5t162.5 35.5q112 0 183 -50t71 -138q0 -53 -30.5 -83t-80.5 -30q-46 0 -72 25.5t-26 66.5t26.5 65.5t67.5 24.5q44 0 72 -31q-16 57 -74 87t-129 30q-128 0 -181.5 -120.5t-56.5 -405.5q30 74 95 112.5t151 38.5
q55 0 105.5 -17.5t93.5 -51t68.5 -91t25.5 -130.5zM840 776q-73 0 -124.5 -56.5t-58.5 -166.5q14 -309 181 -309q161 0 161 272q0 260 -159 260z" />
    <glyph glyph-name="seven.bulletHollow" horiz-adv-x="1695" 
d="M848 -25q148 0 282 51.5t236 144t162.5 232t60.5 304.5t-60.5 304.5t-162.5 231.5t-236 143.5t-282 51.5q-118 0 -228.5 -32t-204 -95t-163 -150.5t-109 -204t-39.5 -249.5q0 -165 60.5 -304.5t163 -232t237.5 -144t283 -51.5zM848 14q-113 0 -218 30.5t-192.5 90
t-152.5 142.5t-101.5 193.5t-36.5 236.5t36.5 236.5t101.5 193t152.5 142t192.5 90t218 30.5q190 0 348 -82t255 -242t97 -368q0 -157 -56.5 -289t-152.5 -219.5t-223 -136t-268 -48.5zM1178 1169q-159 -222 -239 -448t-87 -520h-195q2 72 15.5 144t31.5 130t48.5 122
t56 108.5t65 101.5t64 88.5t64.5 82.5t55 71h-453v-134h-39v279h613v-25z" />
    <glyph glyph-name="eight.bulletHollow" horiz-adv-x="1695" 
d="M848 -25q148 0 282 51.5t236 144t162.5 232t60.5 304.5t-60.5 304.5t-162.5 231.5t-236 143.5t-282 51.5q-118 0 -228.5 -32t-204 -95t-163 -150.5t-109 -204t-39.5 -249.5q0 -165 60.5 -304.5t163 -232t237.5 -144t283 -51.5zM848 14q-113 0 -218 30.5t-192.5 90
t-152.5 142.5t-101.5 193.5t-36.5 236.5t36.5 236.5t101.5 193t152.5 142t192.5 90t218 30.5q190 0 348 -82t255 -242t97 -368q0 -157 -56.5 -289t-152.5 -219.5t-223 -136t-268 -48.5zM1204 473q0 -120 -91 -197t-259 -77q-148 0 -247 63.5t-99 179.5q0 177 248 258
q-95 65 -147 131t-52 156q0 109 83 175.5t216 66.5q127 0 211 -55t84 -154q0 -81 -59 -139.5t-150 -87.5q49 -30 78 -49t69 -51.5t61.5 -61.5t37.5 -70.5t16 -87.5zM715 1047q0 -71 48.5 -123t141.5 -109q101 83 101 201q0 86 -40.5 132t-109.5 46q-68 0 -104.5 -44
t-36.5 -103zM676 444q0 -108 47.5 -160.5t134.5 -52.5q86 0 131 49.5t45 120.5q0 55 -36 106.5t-71 78.5t-110 77q-15 10 -22 15q-119 -94 -119 -234z" />
    <glyph glyph-name="nine.bulletHollow" horiz-adv-x="1695" 
d="M848 -25q148 0 282 51.5t236 144t162.5 232t60.5 304.5t-60.5 304.5t-162.5 231.5t-236 143.5t-282 51.5q-118 0 -228.5 -32t-204 -95t-163 -150.5t-109 -204t-39.5 -249.5q0 -165 60.5 -304.5t163 -232t237.5 -144t283 -51.5zM848 14q-113 0 -218 30.5t-192.5 90
t-152.5 142.5t-101.5 193.5t-36.5 236.5t36.5 236.5t101.5 193t152.5 142t192.5 90t218 30.5q190 0 348 -82t255 -242t97 -368q0 -157 -56.5 -289t-152.5 -219.5t-223 -136t-268 -48.5zM1235 748q0 -132 -34.5 -238.5t-93.5 -173.5t-135.5 -103t-162.5 -36q-112 0 -183 50.5
t-71 137.5q0 55 30.5 85t80.5 30q46 0 72 -26t26 -66q0 -41 -27 -66t-67 -25q-46 0 -72 29q18 -57 74.5 -86t126.5 -29q128 0 182 120.5t57 404.5q-30 -75 -94.5 -113.5t-150.5 -38.5q-55 0 -105.5 17.5t-93.5 51.5t-68.5 92t-25.5 132q0 154 102.5 241t253.5 87
q58 0 110 -14t102.5 -48t86.5 -87t58 -137t22 -191zM694 920q0 -261 158 -261q74 0 127 59t57 171q-17 303 -180 303q-162 0 -162 -272z" />
    <glyph glyph-name="A.sc" horiz-adv-x="1228" 
d="M1087 35h127v-35h-565v35h139l-106 342h-391l-66 -219q-19 -59 2 -91t80 -32h82v-35h-434v35h65q109 0 146 127l313 1014h234zM303 416h367l-187 594z" />
    <glyph glyph-name="B.sc" horiz-adv-x="1245" 
d="M782 594q379 -26 379 -289q0 -153 -118 -229t-341 -76h-620v35h149v1091h-149v35h614q406 0 406 -276q0 -125 -86.5 -197t-233.5 -94zM608 1126h-112v-514h106q121 0 182.5 61.5t61.5 198.5q0 140 -59.5 197t-178.5 57zM633 35q126 0 191 58t65 210t-70 212t-205 60h-118
v-540h137z" />
    </font>
</defs>
</svg>
