<?xml version="1.0" encoding="UTF-8"?>
<svg width="26px" height="26px" viewBox="0 0 26 26" version="1.1" xmlns="http://www.w3.org/2000/svg" xmlns:xlink="http://www.w3.org/1999/xlink">
    <!-- Generator: Sketch 52.2 (67145) - http://www.bohemiancoding.com/sketch -->
    <title>Search Icon Copy</title>
    <desc>Created with Sketch.</desc>
    <g id="Symbols" stroke="none" stroke-width="1" fill="none" fill-rule="evenodd">
        <g id="Logo,-Search,-Nav" transform="translate(-1230.000000, -15.000000)" fill="white">
            <g id="Search-Icon-Copy">
                <path d="M1255.37814,40.3770228 C1254.54898,41.2076591 1253.20469,41.2076591 1252.37553,40.3770228 L1248.10677,36.0967177 C1246.24733,37.3679524 1244.00008,38.1133582 1241.5763,38.1133582 C1235.18329,38.1133582 1230,32.9402998 1230,26.5566791 C1230,20.1745031 1235.18329,15 1241.5763,15 C1247.96931,15 1253.15259,20.1745031 1253.15259,26.5566791 C1253.15259,28.9850263 1252.39869,31.2356896 1251.11806,33.0963149 L1255.37814,37.3665079 C1256.20729,38.1971442 1256.20729,39.5463865 1255.37814,40.3770228 L1255.37814,40.3770228 Z M1241.5,19 C1237.357,19 1234,22.3585 1234,26.5 C1234,30.643 1237.357,34 1241.5,34 C1245.6415,34 1249,30.643 1249,26.5 C1249,22.3585 1245.6415,19 1241.5,19 L1241.5,19 Z"></path>
            </g>
        </g>
    </g>
</svg>