<?xml version="1.0" encoding="UTF-8"?>
<svg width="247px" height="44px" viewBox="0 0 247 44" version="1.1" xmlns="http://www.w3.org/2000/svg" xmlns:xlink="http://www.w3.org/1999/xlink">
    <!-- Generator: Sketch 52.2 (67145) - http://www.bohemiancoding.com/sketch -->
    <title>Logo Reverse</title>
    <desc>Created with Sketch.</desc>
    <defs>
        <polygon id="path-1" points="0.288860756 0.00283870968 19.9533637 0.00283870968 19.9533637 10.3956387 0.288860756 10.3956387"></polygon>
    </defs>
    <g id="Symbols" stroke="none" stroke-width="1" fill="none" fill-rule="evenodd">
        <g id="Logo,-Search,-Nav">
            <g id="Logo-Reverse">
                <g>
                    <polygon id="Fill-1" fill="#FEFEFE" points="0 39 0 44 1.43577743 44 1.43577743 42.2074012 11 42.2074012 11 40.7947094 1.43577743 40.7947094 1.43577743 39"></polygon>
                    <polygon id="Fill-2" fill="#FEFEFE" points="0 29 0 30.3517149 4.78854654 30.3517149 4.78854654 33.6482851 0 33.6482851 0 35 11 35 11 33.6482851 6.22432397 33.6482851 6.22432397 30.3517149 11 30.3517149 11 29"></polygon>
                    <g id="Group-30">
                        <path d="M9.60427907,19.5882323 L9.60427907,23.1600387 C9.60427907,23.4169419 9.51739826,23.6248774 9.33932849,23.8030065 C9.15982267,23.9782968 8.95231395,24.0655871 8.70244186,24.0655871 L6.25039244,24.0655871 L6.25039244,19.5882323 L4.80860174,19.5882323 L4.80860174,24.0655871 L2.35655233,24.0655871 C2.10596221,24.0655871 1.89629942,23.9782968 1.71320349,23.8008774 C1.53082558,23.6234581 1.4417907,23.4155226 1.4417907,23.1600387 L1.4417907,19.5882323 L0,19.5882323 L0,23.1600387 C0,23.7966194 0.230485465,24.3494581 0.684276163,24.8043613 C1.13950291,25.2599742 1.70243314,25.4899097 2.35655233,25.4899097 L8.70244186,25.4899097 C9.34938081,25.4899097 9.90728488,25.2599742 10.3617936,24.8043613 C10.8155843,24.3508774 11.0460698,23.7980387 11.0460698,23.1600387 L11.0460698,19.5882323 L9.60427907,19.5882323 Z" id="Fill-3" fill="#FEFEFE"></path>
                        <path d="M38.6771843,40.8175226 C38.6771843,41.5520387 38.4230041,42.1659097 37.9132076,42.6598452 C37.4041291,43.1516516 36.7772948,43.3986194 36.0334227,43.3986194 C34.9513616,43.3986194 34.1751785,42.9061032 33.7091814,41.9196516 L23.9950448,21.6157806 C23.846414,21.3219742 23.602286,21.2055871 23.262661,21.2694581 C22.923036,21.3319097 22.7528645,21.5426839 22.7528645,21.8989419 L22.7528645,43.1473935 L20.7783006,43.1473935 L20.7783006,21.8989419 C20.7783006,21.1644258 21.038225,20.5498452 21.5587919,20.0580387 C22.0786407,19.5648129 22.7105012,19.3178452 23.4536552,19.3178452 C24.5364343,19.3178452 25.3111814,19.811071 25.7786145,20.7968129 L35.4611581,41.0694581 C35.6090709,41.3639742 35.8531988,41.4789419 36.1935419,41.4164903 C36.5331669,41.3526194 36.7026203,41.1532 36.7026203,40.8175226 L36.7026203,19.5385548 L38.6771843,19.5385548 L38.6771843,40.8175226 Z" id="Fill-5" fill="#FEFEFE"></path>
                        <path d="M84.4806058,40.8175226 C84.4806058,41.5520387 84.2264256,42.1659097 83.7166291,42.6598452 C83.2075506,43.1516516 82.5807163,43.3986194 81.8368442,43.3986194 C80.7547831,43.3986194 79.9786,42.9061032 79.5126029,41.9196516 L69.7984663,21.6157806 C69.6498355,21.3219742 69.4057076,21.2055871 69.0660826,21.2694581 C68.7264576,21.3319097 68.556286,21.5426839 68.556286,21.8989419 L68.556286,43.1473935 L66.5817221,43.1473935 L66.5817221,21.8989419 C66.5817221,21.1644258 66.8416465,20.5498452 67.3622134,20.0580387 C67.8820622,19.5648129 68.5139227,19.3178452 69.2570767,19.3178452 C70.3398558,19.3178452 71.1146029,19.811071 71.582036,20.7968129 L81.2645797,41.0694581 C81.4124924,41.3639742 81.6566203,41.4789419 81.9969634,41.4164903 C82.3365884,41.3526194 82.5060419,41.1532 82.5060419,40.8175226 L82.5060419,19.5385548 L84.4806058,19.5385548 L84.4806058,40.8175226 Z" id="Fill-7" fill="#FEFEFE"></path>
                        <path d="M107.451749,43.1475355 L99.8715779,43.1475355 C98.576982,43.1475355 97.467636,42.695471 96.5442581,41.793471 C95.6194442,40.8907613 95.1584733,39.7999871 95.1584733,38.519729 L95.1584733,24.2289548 C95.1584733,22.9274065 95.6194442,21.8252774 96.5442581,20.9232774 C97.467636,20.0205677 98.576982,19.5699226 99.8715779,19.5699226 L107.451749,19.5699226 L107.451749,21.5215355 L99.8715779,21.5215355 C99.1076012,21.5215355 98.4599442,21.7890839 97.928607,22.3241806 C97.3979878,22.8592774 97.1330372,23.4944387 97.1330372,24.2289548 L97.1330372,30.0199226 C97.1330372,30.2718581 97.2608453,30.3981806 97.5150256,30.3981806 L107.451749,30.3981806 L107.451749,32.3497935 L97.5150256,32.3497935 C97.2608453,32.3497935 97.1330372,32.4647613 97.1330372,32.6961161 L97.1330372,38.519729 C97.1330372,39.2542452 97.3979878,39.8844387 97.928607,40.4088903 C98.4599442,40.9326323 99.1076012,41.1959226 99.8715779,41.1959226 L107.451749,41.1959226 L107.451749,43.1475355 Z" id="Fill-9" fill="#FEFEFE"></path>
                        <path d="M127.930132,21.5218194 L124.108812,21.5218194 C123.874736,21.5218194 123.757699,21.6367871 123.757699,21.8667226 L123.757699,43.1478194 L121.783135,43.1478194 L121.783135,21.8667226 C121.783135,21.6367871 121.666815,21.5218194 121.432739,21.5218194 L117.611419,21.5218194 L117.611419,19.5702065 L127.930132,19.5702065 L127.930132,21.5218194 Z" id="Fill-11" fill="#FEFEFE"></path>
                        <path d="M151.101819,43.1475355 L143.521648,43.1475355 C142.226334,43.1475355 141.116988,42.695471 140.194328,41.793471 C139.269514,40.8907613 138.808543,39.7999871 138.808543,38.519729 L138.808543,24.2289548 C138.808543,22.9274065 139.269514,21.8252774 140.194328,20.9232774 C141.116988,20.0205677 142.226334,19.5699226 143.521648,19.5699226 L151.101819,19.5699226 L151.101819,21.5215355 L143.521648,21.5215355 C142.757671,21.5215355 142.110014,21.7890839 141.577959,22.3241806 C141.048058,22.8592774 140.783107,23.4944387 140.783107,24.2289548 L140.783107,30.0199226 C140.783107,30.2718581 140.910915,30.3981806 141.164377,30.3981806 L151.101819,30.3981806 L151.101819,32.3497935 L141.164377,32.3497935 C140.910915,32.3497935 140.783107,32.4647613 140.783107,32.6961161 L140.783107,38.519729 C140.783107,39.2542452 141.048058,39.8844387 141.577959,40.4088903 C142.110014,40.9326323 142.757671,41.1959226 143.521648,41.1959226 L151.101819,41.1959226 L151.101819,43.1475355 Z" id="Fill-13" fill="#FEFEFE"></path>
                        <path d="M174.721553,43.1475355 L167.141382,43.1475355 C165.846786,43.1475355 164.73744,42.695471 163.814062,41.793471 C162.889248,40.8907613 162.428277,39.7999871 162.428277,38.519729 L162.428277,24.2289548 C162.428277,22.9274065 162.889248,21.8252774 163.814062,20.9232774 C164.73744,20.0205677 165.846786,19.5699226 167.141382,19.5699226 L174.721553,19.5699226 L174.721553,21.5215355 L167.141382,21.5215355 C166.377405,21.5215355 165.729748,21.7890839 165.198411,22.3241806 C164.667792,22.8592774 164.402841,23.4944387 164.402841,24.2289548 L164.402841,30.0199226 C164.402841,30.2718581 164.530649,30.3981806 164.784829,30.3981806 L174.721553,30.3981806 L174.721553,32.3497935 L164.784829,32.3497935 C164.530649,32.3497935 164.402841,32.4647613 164.402841,32.6961161 L164.402841,38.519729 C164.402841,39.2542452 164.667792,39.8844387 165.198411,40.4088903 C165.729748,40.9326323 166.377405,41.1959226 167.141382,41.1959226 L174.721553,41.1959226 L174.721553,43.1475355 Z" id="Fill-15" fill="#FEFEFE"></path>
                        <path d="M204.01604,40.8175226 C204.01604,41.5520387 203.76186,42.1659097 203.252064,42.6598452 C202.742985,43.1516516 202.116151,43.3986194 201.372279,43.3986194 C200.290218,43.3986194 199.514035,42.9061032 199.048037,41.9196516 L189.333901,21.6157806 C189.18527,21.3219742 188.941142,21.2055871 188.601517,21.2694581 C188.261892,21.3319097 188.091721,21.5426839 188.091721,21.8989419 L188.091721,43.1473935 L186.117157,43.1473935 L186.117157,21.8989419 C186.117157,21.1644258 186.377081,20.5498452 186.897648,20.0580387 C187.417497,19.5648129 188.049357,19.3178452 188.792511,19.3178452 C189.87529,19.3178452 190.650037,19.811071 191.117471,20.7968129 L200.800014,41.0694581 C200.947927,41.3639742 201.192055,41.4789419 201.532398,41.4164903 C201.872023,41.3526194 202.041476,41.1532 202.041476,40.8175226 L202.041476,19.5385548 L204.01604,19.5385548 L204.01604,40.8175226 Z" id="Fill-17" fill="#FEFEFE"></path>
                        <path d="M223.845832,21.5218194 L220.024513,21.5218194 C219.790437,21.5218194 219.673399,21.6367871 219.673399,21.8667226 L219.673399,43.1478194 L217.698835,43.1478194 L217.698835,21.8667226 C217.698835,21.6367871 217.581797,21.5218194 217.34844,21.5218194 L213.52712,21.5218194 L213.52712,19.5702065 L223.845832,19.5702065 L223.845832,21.5218194 Z" id="Fill-19" fill="#FEFEFE"></path>
                        <path d="M246.792419,43.1475355 L244.817856,43.1475355 L244.817856,32.6961161 C244.817856,32.4647613 244.690765,32.3497935 244.435867,32.3497935 L235.868414,32.3497935 C235.614233,32.3497935 235.486425,32.4647613 235.486425,32.6961161 L235.486425,43.1475355 L233.511861,43.1475355 L233.511861,19.5699226 L235.486425,19.5699226 L235.486425,30.0199226 C235.486425,30.2718581 235.614233,30.3981806 235.868414,30.3981806 L244.435867,30.3981806 C244.690765,30.3981806 244.817856,30.2718581 244.817856,30.0199226 L244.817856,19.5699226 L246.792419,19.5699226 L246.792419,43.1475355 Z" id="Fill-21" fill="#FEFEFE"></path>
                        <path d="M53.4800953,38.0980387 C53.2388395,38.3308129 52.9530663,38.4486194 52.6220576,38.4486194 C52.2917669,38.4486194 52.0088657,38.3336516 51.772636,38.1051355 C51.5364064,37.8766194 51.4186506,37.5991355 51.4186506,37.2719742 C51.4186506,36.9462323 51.5364064,36.667329 51.772636,36.4402323 C52.0088657,36.2102968 52.2917669,36.0967484 52.6220576,36.0967484 C52.9530663,36.0967484 53.2388395,36.2131355 53.4800953,36.447329 C53.7206331,36.6801032 53.840543,36.9547484 53.840543,37.2719742 C53.840543,37.5892 53.7206331,37.8652645 53.4800953,38.0980387 M55.1293948,34.9350065 C54.4688134,34.2998452 53.6280081,33.9826194 52.6076971,33.9826194 C51.5794878,33.9826194 50.7437087,34.2977161 50.1017959,34.9279097 C49.4591651,35.5573935 49.1389267,36.3387484 49.1389267,37.2719742 C49.1389267,38.0469419 49.4361884,38.7261032 50.0307116,39.3094581 C50.6252349,39.8913935 51.3949558,40.2121677 52.3391564,40.2689419 L50.3990576,43.1658452 L52.9904035,43.1658452 L54.5061506,40.953071 C55.1573977,40.0013935 55.5896477,39.2761032 55.8014645,38.7772 C56.0139994,38.2782968 56.1209849,37.7765548 56.1209849,37.2719742 C56.1209849,36.3486839 55.7906942,35.5694581 55.1293948,34.9350065" id="Fill-23" fill="#4AC6E8"></path>
                        <polygon id="Fill-25" fill="#4AC6E8" points="50.6935907 23.5940065 51.6665122 22.6323935 51.6665122 29.7568452 53.8579192 29.7568452 53.8579192 19.5509742 53.0049076 19.5509742 51.6744105 19.5509742 51.6665122 19.5509742 51.6665122 19.5587806 49.1390703 22.0568452"></polygon>
                        <g id="Group-29" transform="translate(117.755814, 0.000000)">
                            <mask id="mask-2" fill="white">
                                <use xlink:href="#path-1"></use>
                            </mask>
                            <g id="Clip-28"></g>
                            <polygon id="Fill-27" fill="#4AC6E8" mask="url(#mask-2)" points="0.288860756 10.3956387 0.288860756 0.00241290323 19.9533637 5.17809032"></polygon>
                        </g>
                    </g>
                </g>
            </g>
        </g>
    </g>
</svg>